<svg width="60" height="60" viewBox="0 0 60 60" fill="none" xmlns="http://www.w3.org/2000/svg">
<path d="M29.4471 8.36906C29.4471 8.36906 28.0187 3.86282 24.1771 3.25908C24.1771 3.25908 25.6958 5.32613 23.8251 6.27677C23.8251 6.27677 23.8101 3.66635 20.7628 3.63633C17.7155 3.60632 15.1961 5.37149 14.2302 7.60466C13.2644 9.83782 13.5666 13.127 14.6528 14.6654L13.6522 13.6619C13.6522 13.6619 11.2436 7.00023 16.7349 3.4095C22.2263 -0.181225 29.3789 2.98689 29.9965 7.7851V8.36496L29.4471 8.36906Z" fill="#2C6E4A"/>
<path d="M32.3051 27.5207C32.3051 27.5207 34.92 25.2275 32.6673 21.8074C30.4147 18.3872 27.1153 17.5829 25.9892 13.7605C25.9892 13.7605 25.748 15.2695 24.318 14.6658C22.8879 14.0621 21.5019 12.3924 20.6571 13.4788C20.6571 13.4788 20.9791 10.3806 24.0165 11.2054C24.0165 11.2054 22.9422 4.50623 29.9965 0V1.04615C29.9965 1.04615 25.8357 4.58162 26.1488 9.77823C26.4619 14.9748 29.5279 17.3826 31.4191 18.791C33.3102 20.1994 35.3818 23.4784 34.4565 25.5506L32.3051 27.5207Z" fill="#BA4749"/>
<path d="M31.8485 9.31417C31.8485 9.68023 31.7399 10.0381 31.5366 10.3424C31.3332 10.6468 31.0442 10.884 30.7061 11.0241C30.3679 11.1642 29.9958 11.2008 29.6369 11.1294C29.2779 11.058 28.9482 10.8817 28.6894 10.6229C28.4306 10.364 28.2543 10.0343 28.1829 9.67525C28.1115 9.31623 28.1481 8.94409 28.2882 8.60591C28.4283 8.26772 28.6655 7.97867 28.9698 7.7753C29.2741 7.57193 29.6319 7.46338 29.9979 7.46338C30.4887 7.46338 30.9594 7.65838 31.3064 8.00547C31.6535 8.35256 31.8485 8.82331 31.8485 9.31417Z" fill="#2C6E4A"/>
<path d="M8.50903 8.51259C8.50903 8.51259 8.91625 8.93521 11.3251 8.46961C13.9086 7.97059 17.2189 7.52409 17.7417 9.13339C17.7417 9.13339 17.9525 5.24931 22.0465 7.06122C22.0465 7.06122 18.2748 8.87177 18.636 12.7043C18.9971 16.5369 24.0973 17.9231 27.2953 14.9675C30.4934 12.0119 29.5882 9.31451 29.5882 9.31451H30.0998L29.9951 12.3421C29.9951 12.3421 30.0094 15.1282 26.1473 17.2198C22.2852 19.3114 21.2897 22.5409 21.7136 25.3471C22.129 28.1076 24.3548 30.0505 26.1791 30.1132C26.2094 30.1132 26.2398 30.1132 26.2698 30.1132H23.2225C23.2225 30.1132 18.6363 25.1332 20.6577 18.6766C21.188 18.806 21.7445 18.7778 22.259 18.5955C22.7735 18.4133 23.2236 18.0849 23.5543 17.6506C23.5543 17.6506 19.6322 18.254 18.2137 14.6633C16.7953 11.0725 14.2916 10.6799 11.4551 11.5552C11.4551 11.5552 12.6017 9.26164 16.0112 9.71325C16.0112 9.71325 14.9151 8.32465 12.29 8.95874C9.91622 9.53213 9.17477 9.17261 9.17477 9.17261L8.50903 8.51259Z" fill="#2C6E4A"/>
<path d="M30.5431 8.3691C30.5431 8.3691 31.9715 3.86287 35.8135 3.25912C35.8135 3.25912 34.2947 5.32617 36.1654 6.27681C36.1654 6.27681 36.1804 3.66639 39.2281 3.63637C42.2757 3.60636 44.7948 5.37153 45.7603 7.6047C46.7258 9.83786 46.424 13.1271 45.3377 14.6654L46.3421 13.608C46.3421 13.608 48.7473 6.99925 43.2559 3.4092C37.7646 -0.180842 30.612 2.98658 29.9944 7.7848V8.36467L30.5431 8.3691Z" fill="#2C6E4A"/>
<path d="M27.6868 27.5206C27.6868 27.5206 25.072 25.2274 27.3246 21.8072C29.5773 18.387 32.876 17.5824 34.0015 13.76C34.0015 13.76 34.2429 15.2691 35.6726 14.6653C37.1023 14.0616 38.4887 12.3919 39.3335 13.4783C39.3335 13.4783 39.0119 10.3801 35.9745 11.2049C35.9745 11.2049 37.0488 4.50575 29.9944 -0.000488281V1.04566C29.9944 1.04566 34.1553 4.58113 33.8422 9.77774C33.5291 14.9744 30.463 17.3822 28.5722 18.7905C26.6814 20.1989 24.6095 23.4779 25.5348 25.5501L27.6868 27.5206Z" fill="#BA4749"/>
<path d="M28.1436 9.31417C28.1436 9.68023 28.2521 10.0381 28.4554 10.3424C28.6588 10.6468 28.9478 10.884 29.2859 11.0241C29.6241 11.1642 29.9962 11.2008 30.3551 11.1294C30.7141 11.058 31.0439 10.8817 31.3027 10.6229C31.5615 10.364 31.7377 10.0343 31.8091 9.67525C31.8805 9.31623 31.8439 8.94409 31.7038 8.60591C31.5637 8.26772 31.3266 7.97867 31.0222 7.7753C30.7179 7.57193 30.3601 7.46338 29.9941 7.46338C29.5033 7.46338 29.0326 7.65838 28.6856 8.00547C28.3385 8.35256 28.1436 8.82331 28.1436 9.31417Z" fill="#2C6E4A"/>
<path d="M51.4825 8.51259C51.4825 8.51259 51.0753 8.93521 48.6664 8.46961C46.0829 7.97059 42.7726 7.52409 42.2498 9.13339C42.2498 9.13339 42.039 5.24931 37.945 7.06122C37.945 7.06122 41.7167 8.87177 41.3556 12.7043C40.9944 16.5369 35.8943 17.9231 32.6958 14.9675C29.4974 12.0119 30.4029 9.31451 30.4029 9.31451H29.8914L29.9961 12.3421C29.9961 12.3421 29.9817 15.1282 33.8438 17.2198C37.7059 19.3114 38.7018 22.5409 38.2793 25.3471C37.8639 28.1076 35.6381 30.0505 33.8138 30.1132C33.7835 30.1132 33.7535 30.1132 33.7231 30.1132H36.7673C36.7673 30.1132 41.3535 25.1332 39.3321 18.6766C38.8018 18.806 38.2453 18.7778 37.7308 18.5955C37.2163 18.4133 36.7662 18.0849 36.4355 17.6506C36.4355 17.6506 40.3576 18.254 41.7761 14.6633C43.1945 11.0725 45.6982 10.6799 48.5348 11.5552C48.5348 11.5552 47.3881 9.26164 43.9786 9.71325C43.9786 9.71325 45.0748 8.32465 47.6999 8.95874C50.0733 9.53213 50.8185 9.17944 50.8185 9.17944L51.4825 8.51259Z" fill="#2C6E4A"/>
<path d="M8.3678 30.5519C8.3678 30.5519 3.86213 31.98 3.25778 35.8218C3.25778 35.8218 5.32457 34.3029 6.27509 36.1738C6.27509 36.1738 3.66534 36.1888 3.63499 39.2365C3.60464 42.2842 5.36993 44.8039 7.60248 45.7696C9.83502 46.7352 13.1241 46.4333 14.6623 45.347L13.6616 46.3392C13.6616 46.3392 6.99813 48.7565 3.40785 43.2645C-0.182433 37.7725 2.98528 30.619 7.78289 30.001H8.36269L8.3678 30.5519Z" fill="#2C6E4A"/>
<path d="M27.516 27.6951C27.516 27.6951 25.2227 25.0799 21.8033 27.3328C18.3839 29.5858 17.579 32.8852 13.7575 34.0119C13.7575 34.0119 15.266 34.2533 14.6626 35.6832C14.0593 37.1131 12.3895 38.4997 13.4758 39.3446C13.4758 39.3446 10.378 39.0229 11.2026 35.9851C11.2026 35.9851 4.50433 37.0596 -0.00134277 30.0043H1.04467C1.04467 30.0043 4.5797 34.1657 9.77566 33.8529C14.9716 33.5401 17.3791 30.4733 18.7873 28.5819C20.1956 26.6905 23.4741 24.6187 25.546 25.5441L27.516 27.6951Z" fill="#BA4749"/>
<path d="M9.31321 31.8534C10.3352 31.8534 11.1638 31.0248 11.1638 30.0026C11.1638 28.9805 10.3352 28.1519 9.31321 28.1519C8.29117 28.1519 7.46265 28.9805 7.46265 30.0026C7.46265 31.0248 8.29117 31.8534 9.31321 31.8534Z" fill="#2C6E4A"/>
<path d="M8.51137 51.4942C8.51137 51.4942 8.93394 51.0866 8.4684 48.6778C7.96943 46.0936 7.52299 42.7833 9.13209 42.2601C9.13209 42.2601 5.2485 42.0492 7.06018 37.9551C7.06018 37.9551 8.8705 41.7272 12.7026 41.366C16.5347 41.0048 17.9207 35.904 14.9655 32.7056C12.0102 29.5071 9.31319 30.412 9.31319 30.412V29.9004L12.3404 30.0051C12.3404 30.0051 15.1261 29.9911 17.2175 33.8534C19.3088 37.7156 22.5379 38.7116 25.3438 38.2876C28.1039 37.8722 30.0466 35.6465 30.1093 33.8216C30.1093 33.7913 30.1093 33.7613 30.1093 33.7309V36.7786C30.1093 36.7786 25.1299 41.3653 18.6741 39.3437C18.8035 38.8133 18.7753 38.2568 18.5931 37.7422C18.4108 37.2276 18.0825 36.7774 17.6482 36.4467C17.6482 36.4467 18.2519 40.3693 14.6613 41.788C11.0706 43.2066 10.6784 45.7106 11.5536 48.5475C11.5536 48.5475 9.26032 47.4007 9.71188 43.9908C9.71188 43.9908 8.32379 45.0874 8.95747 47.7125C9.53078 50.0862 9.17199 50.8284 9.17199 50.8284L8.51137 51.4942Z" fill="#2C6E4A"/>
<path d="M8.36776 29.4579C8.36776 29.4579 3.86209 28.0293 3.25842 24.1869C3.25842 24.1869 5.32521 25.7058 6.27573 23.8349C6.27573 23.8349 3.66598 23.8199 3.63562 20.7722C3.60527 17.7245 5.37057 15.2048 7.60311 14.2391C9.83565 13.2735 13.1248 13.5754 14.6629 14.6617L13.6524 13.6627C13.6524 13.6627 6.9991 11.2518 3.40882 16.7438C-0.181457 22.2358 2.98626 29.3893 7.78387 30.007H8.36366L8.36776 29.4579Z" fill="#2C6E4A"/>
<path d="M27.516 32.3145C27.516 32.3145 25.2227 34.9297 21.8033 32.6768C18.3839 30.4238 17.579 27.1244 13.7575 25.9978C13.7575 25.9978 15.266 25.7563 14.6626 24.3264C14.0593 22.8965 12.3895 21.5099 13.4758 20.665C13.4758 20.665 10.378 20.987 11.2026 24.0248C11.2026 24.0248 4.50433 22.9504 -0.00134277 30.0056H1.04467C1.04467 30.0056 4.5797 25.8443 9.77566 26.1574C14.9716 26.4705 17.3791 29.537 18.7873 31.4284C20.1956 33.3197 23.4741 35.3916 25.546 34.4662L27.516 32.3145Z" fill="#BA4749"/>
<path d="M9.31345 31.8578C9.67946 31.8578 10.0372 31.7493 10.3416 31.5459C10.6459 31.3426 10.8831 31.0535 11.0231 30.7153C11.1632 30.3771 11.1999 30.005 11.1285 29.646C11.0571 29.287 10.8808 28.9572 10.622 28.6983C10.3632 28.4395 10.0335 28.2632 9.67448 28.1918C9.3155 28.1204 8.94342 28.157 8.60527 28.2971C8.26713 28.4372 7.97811 28.6744 7.77477 28.9788C7.57142 29.2832 7.46289 29.641 7.46289 30.007C7.46289 30.4979 7.65786 30.9687 8.00491 31.3157C8.35195 31.6628 8.82265 31.8578 9.31345 31.8578Z" fill="#2C6E4A"/>
<path d="M8.51137 8.51562C8.51137 8.51562 8.93394 8.9229 8.4684 11.3321C7.96943 13.9159 7.52299 17.2262 9.13209 17.7495C9.13209 17.7495 5.2485 17.9603 7.06018 22.0545C7.06018 22.0545 8.8705 18.2823 12.7026 18.6435C16.5347 19.0047 17.9207 24.1055 14.9655 27.3039C12.0102 30.5024 9.31319 29.5975 9.31319 29.5975V30.1091L12.3404 30.0044C12.3404 30.0044 15.1261 30.0184 17.2175 26.1561C19.3088 22.2939 22.5379 21.2979 25.3438 21.7219C28.1039 22.1373 30.0466 24.3633 30.1093 26.1879C30.1093 26.2182 30.1093 26.2482 30.1093 26.2786V23.2309C30.1093 23.2309 25.1299 18.6442 18.6741 20.6658C18.8035 21.1962 18.7753 21.7527 18.5931 22.2673C18.4108 22.7819 18.0825 23.2321 17.6482 23.5628C17.6482 23.5628 18.2519 19.6402 14.6613 18.2215C11.0706 16.8029 10.6784 14.2989 11.5536 11.462C11.5536 11.462 9.26032 12.6088 9.71188 16.0187C9.71188 16.0187 8.32379 14.9221 8.95747 12.297C9.53078 9.92299 9.17131 9.17565 9.17131 9.17565L8.51137 8.51562Z" fill="#2C6E4A"/>
<path d="M30.5493 51.6308C30.5493 51.6308 31.9777 56.137 35.8196 56.7408C35.8196 56.7408 34.3009 54.6737 36.1716 53.7231C36.1716 53.7231 36.1866 56.3335 39.2339 56.3635C42.2813 56.3935 44.8006 54.6283 45.7665 52.3952C46.7324 50.162 46.4302 46.8732 45.3439 45.3345L46.3391 46.3434C46.3391 46.3434 48.7534 52.9993 43.2621 56.5903C37.7708 60.1814 30.6179 57.0123 29.9999 52.2147V51.6349L30.5493 51.6308Z" fill="#2C6E4A"/>
<path d="M27.693 32.479C27.693 32.479 25.0781 34.7725 27.3311 38.1924C29.5841 41.6122 32.8828 42.4186 34.0103 46.2388C34.0103 46.2388 34.2515 44.7298 35.6798 45.3336C37.1081 45.9373 38.4959 47.607 39.3407 46.5206C39.3407 46.5206 39.0187 49.6184 35.9813 48.7937C35.9813 48.7937 37.0556 55.4928 30.0012 59.9994V58.9533C30.0012 58.9533 34.1621 55.4178 33.849 50.2212C33.5359 45.0245 30.4699 42.6167 28.5791 41.2087C26.6882 39.8006 24.6163 36.5213 25.5416 34.4492L27.693 32.479Z" fill="#BA4749"/>
<path d="M28.1483 50.6853C28.1483 50.3192 28.2569 49.9614 28.4602 49.657C28.6635 49.3527 28.9526 49.1154 29.2907 48.9753C29.6288 48.8353 30.0009 48.7986 30.3599 48.87C30.7189 48.9415 31.0486 49.1177 31.3074 49.3765C31.5662 49.6354 31.7425 49.9652 31.8139 50.3242C31.8853 50.6832 31.8486 51.0553 31.7086 51.3935C31.5685 51.7317 31.3313 52.0208 31.027 52.2241C30.7227 52.4275 30.3649 52.5361 29.9989 52.5361C29.5081 52.5361 29.0374 52.3411 28.6903 51.994C28.3433 51.6469 28.1483 51.1761 28.1483 50.6853Z" fill="#2C6E4A"/>
<path d="M51.4891 51.4872C51.4891 51.4872 51.0818 51.0649 48.673 51.5302C46.0892 52.0292 42.7792 52.4757 42.2561 50.8664C42.2561 50.8664 42.0453 54.7505 37.9516 52.9382C37.9516 52.9382 41.7233 51.1277 41.3621 47.2955C41.001 43.4633 35.9008 42.0767 32.7028 45.0323C29.5047 47.9879 30.4095 50.6853 30.4095 50.6853H29.8979L30.0026 47.6577C30.0026 47.6577 29.9883 44.8713 33.8508 42.78C37.7132 40.6888 38.7084 37.4589 38.2845 34.6524C37.8691 31.8919 35.6433 29.9487 33.819 29.8862C33.789 29.8862 33.7587 29.8862 33.7287 29.8862H36.7763C36.7763 29.8862 41.3625 34.8662 39.341 41.3232C38.8108 41.1938 38.2543 41.222 37.7398 41.4043C37.2253 41.5865 36.7751 41.9149 36.4445 42.3492C36.4445 42.3492 40.3666 41.7458 41.7851 45.3369C43.2035 48.928 45.7072 49.3199 48.5437 48.445C48.5437 48.445 47.3971 50.7385 43.9876 50.2869C43.9876 50.2869 45.0837 51.6752 47.7088 51.0414C50.0826 50.468 50.8155 50.8187 50.8155 50.8187L51.4891 51.4872Z" fill="#2C6E4A"/>
<path d="M29.4552 51.6308C29.4552 51.6308 28.0269 56.137 24.1849 56.7408C24.1849 56.7408 25.7036 54.6737 23.8329 53.7231C23.8329 53.7231 23.8179 56.3335 20.7703 56.3635C17.7226 56.3935 15.2036 54.6283 14.238 52.3952C13.2725 50.162 13.5744 46.8732 14.6606 45.3345L13.6634 46.3407C13.6634 46.3407 11.2511 52.9993 16.7424 56.59C22.2337 60.1807 29.3867 57.0126 30.004 52.2144V51.6345L29.4552 51.6308Z" fill="#2C6E4A"/>
<path d="M32.3123 32.479C32.3123 32.479 34.9275 34.7725 32.6745 38.1924C30.4215 41.6122 27.1218 42.4186 25.9953 46.2388C25.9953 46.2388 25.7538 44.7298 24.3241 45.3336C22.8944 45.9373 21.508 47.607 20.6632 46.5206C20.6632 46.5206 20.9852 49.6184 24.0226 48.7937C24.0226 48.7937 22.9483 55.4928 30.0026 59.9994V58.9533C30.0026 58.9533 25.8418 55.4178 26.1549 50.2212C26.468 45.0245 29.534 42.6167 31.4248 41.2087C33.3157 39.8006 35.3875 36.5213 34.4623 34.4492L32.3123 32.479Z" fill="#BA4749"/>
<path d="M31.8549 50.6853C31.8549 50.3192 31.7464 49.9614 31.5431 49.657C31.3397 49.3527 31.0507 49.1154 30.7126 48.9753C30.3744 48.8353 30.0023 48.7986 29.6433 48.87C29.2844 48.9415 28.9546 49.1177 28.6958 49.3765C28.437 49.6354 28.2608 49.9652 28.1894 50.3242C28.118 50.6832 28.1546 51.0553 28.2947 51.3935C28.4347 51.7317 28.6719 52.0208 28.9763 52.2241C29.2806 52.4275 29.6384 52.5361 30.0044 52.5361C30.4952 52.5361 30.9659 52.3411 31.3129 51.994C31.66 51.6469 31.8549 51.1761 31.8549 50.6853Z" fill="#2C6E4A"/>
<path d="M8.5155 51.4872C8.5155 51.4872 8.92272 51.0649 11.3316 51.5302C13.9151 52.0292 17.2254 52.4757 17.7482 50.8664C17.7482 50.8664 17.959 54.7505 22.0526 52.9382C22.0526 52.9382 18.2813 51.1277 18.6421 47.2955C19.0029 43.4633 24.1034 42.0767 27.3015 45.0323C30.4995 47.9879 29.5944 50.6853 29.5944 50.6853H30.106L30.0013 47.6577C30.0013 47.6577 30.0152 44.8713 26.1535 42.78C22.2917 40.6888 21.2955 37.4589 21.7198 34.6524C22.1352 31.8919 24.3609 29.9487 26.1852 29.8862C26.2155 29.8862 26.2459 29.8862 26.2759 29.8862H23.2286C23.2286 29.8862 18.6424 34.8662 20.6639 41.3232C21.1941 41.1938 21.7506 41.222 22.2651 41.4043C22.7796 41.5865 23.2298 41.9149 23.5604 42.3492C23.5604 42.3492 19.6383 41.7458 18.2199 45.3369C16.8014 48.928 14.2977 49.3199 11.4612 48.445C11.4612 48.445 12.6078 50.7385 16.0173 50.2869C16.0173 50.2869 14.9208 51.6752 12.2961 51.0414C9.9227 50.468 9.17476 50.832 9.17476 50.832L8.5155 51.4872Z" fill="#2C6E4A"/>
<path d="M51.6323 29.4518C51.6323 29.4518 56.1383 28.0233 56.7417 24.1809C56.7417 24.1809 54.6749 25.6998 53.7243 23.8289C53.7243 23.8289 56.3341 23.8138 56.3645 20.7661C56.3948 17.7184 54.6295 15.1988 52.3966 14.2331C50.1637 13.2675 46.8749 13.5693 45.3368 14.6557L46.3941 13.6515C46.3941 13.6515 53.002 11.2458 56.5916 16.7381C60.1812 22.2305 57.0138 29.3836 52.2165 30.0013H51.6368L51.6323 29.4518Z" fill="#2C6E4A"/>
<path d="M32.4828 32.3087C32.4828 32.3087 34.776 34.9242 38.1954 32.6709C41.6149 30.4176 42.4198 27.1185 46.2413 25.9919C46.2413 25.9919 44.7328 25.7504 45.3361 24.3205C45.9394 22.8906 47.6092 21.5041 46.523 20.6592C46.523 20.6592 49.6208 20.9812 48.7958 24.019C48.7958 24.019 55.4941 22.9445 60.0001 29.9998H58.9541C58.9541 29.9998 55.419 25.8384 50.2231 26.1515C45.0271 26.4647 42.6196 29.5315 41.2117 31.4225C39.8039 33.3135 36.525 35.3857 34.4531 34.4603L32.4828 32.3087Z" fill="#BA4749"/>
<path d="M50.687 31.852C50.321 31.852 49.9632 31.7434 49.6589 31.5401C49.3545 31.3367 49.1173 31.0476 48.9773 30.7095C48.8372 30.3713 48.8006 29.9991 48.872 29.6401C48.9434 29.2811 49.1196 28.9513 49.3784 28.6925C49.6372 28.4336 49.967 28.2574 50.326 28.186C50.6849 28.1145 51.057 28.1512 51.3952 28.2913C51.7333 28.4314 52.0223 28.6686 52.2257 28.9729C52.429 29.2773 52.5376 29.6351 52.5376 30.0012C52.5376 30.2442 52.4897 30.4849 52.3967 30.7095C52.3037 30.934 52.1674 31.138 51.9955 31.3099C51.8237 31.4818 51.6197 31.6181 51.3952 31.7111C51.1706 31.8041 50.93 31.852 50.687 31.852Z" fill="#2C6E4A"/>
<path d="M51.4891 8.50977C51.4891 8.50977 51.0665 8.91704 51.5321 11.3262C52.031 13.91 52.4775 17.2207 50.8684 17.7436C50.8684 17.7436 54.7519 17.9544 52.9403 22.0486C52.9403 22.0486 51.13 18.2764 47.2982 18.6376C43.4665 18.9988 42.0784 24.0993 45.0353 27.2981C47.9923 30.4969 50.6863 29.5926 50.6863 29.5926V30.1043L47.659 29.9996C47.659 29.9996 44.8733 30.0139 42.782 26.1513C40.6906 22.2887 37.4615 21.2931 34.6553 21.717C31.8952 22.1325 29.9525 24.3585 29.8898 26.183C29.8898 26.2134 29.8898 26.2434 29.8898 26.2734V23.2257C29.8898 23.2257 34.8692 18.639 41.325 20.6607C41.1956 21.191 41.2238 21.7476 41.406 22.2621C41.5883 22.7767 41.9166 23.2269 42.3509 23.5576C42.3509 23.5576 41.7472 19.635 45.3378 18.2164C48.9285 16.7977 49.3207 14.2937 48.4455 11.4568C48.4455 11.4568 50.7388 12.6036 50.2872 16.0136C50.2872 16.0136 51.6756 14.9169 51.0416 12.2919C50.4683 9.91782 50.8223 9.1831 50.8223 9.1831L51.4891 8.50977Z" fill="#2C6E4A"/>
<path d="M51.6323 30.5461C51.6323 30.5461 56.1383 31.9746 56.7417 35.8171C56.7417 35.8171 54.6749 34.2982 53.7243 36.1691C53.7243 36.1691 56.3341 36.1841 56.3645 39.2318C56.3948 42.2795 54.6295 44.7992 52.3966 45.7648C50.1637 46.7305 46.8749 46.4286 45.3368 45.3422L46.3395 46.3426C46.3395 46.3426 53.0006 48.7521 56.5913 43.2601C60.1819 37.7681 57.0135 30.6143 52.2162 29.9966H51.6364L51.6323 30.5461Z" fill="#2C6E4A"/>
<path d="M32.4828 27.6892C32.4828 27.6892 34.776 25.074 38.1954 27.3269C41.6149 29.5799 42.4198 32.8793 46.2413 34.006C46.2413 34.006 44.7328 34.2475 45.3361 35.6773C45.9394 37.1072 47.6092 38.4938 46.523 39.3387C46.523 39.3387 49.6208 39.0167 48.7958 35.9792C48.7958 35.9792 55.4941 37.0537 60.0001 29.9984H58.9541C58.9541 29.9984 55.419 34.1598 50.2231 33.847C45.0271 33.5342 42.6196 30.4671 41.2117 28.576C39.8039 26.685 36.525 24.6128 34.4531 25.5382L32.4828 27.6892Z" fill="#BA4749"/>
<path d="M50.6869 28.146C50.3209 28.146 49.9631 28.2545 49.6587 28.4579C49.3544 28.6613 49.1172 28.9503 48.9772 29.2885C48.8371 29.6267 48.8005 29.9988 48.8719 30.3579C48.9433 30.7169 49.1195 31.0467 49.3783 31.3055C49.6371 31.5643 49.9669 31.7406 50.3258 31.812C50.6848 31.8834 51.0569 31.8468 51.395 31.7067C51.7332 31.5666 52.0222 31.3294 52.2255 31.025C52.4289 30.7207 52.5374 30.3628 52.5374 29.9968C52.5374 29.7537 52.4895 29.5131 52.3965 29.2885C52.3035 29.064 52.1672 28.8599 51.9954 28.6881C51.8236 28.5162 51.6196 28.3799 51.395 28.2869C51.1705 28.1939 50.9299 28.146 50.6869 28.146Z" fill="#2C6E4A"/>
<path d="M51.4891 51.4888C51.4891 51.4888 51.0665 51.0812 51.532 48.6721C52.031 46.0883 52.4775 42.7779 50.8684 42.2547C50.8684 42.2547 54.7519 42.0439 52.9402 37.9497C52.9402 37.9497 51.1299 41.7219 47.2982 41.3607C43.4664 40.9994 42.0783 35.8987 45.0353 32.7002C47.9922 29.5017 50.6876 30.4067 50.6876 30.4067V29.895L47.6604 29.9997C47.6604 29.9997 44.8747 29.9854 42.7833 33.8483C40.692 37.7113 37.4629 38.7066 34.6567 38.2826C31.8965 37.8671 29.9539 35.6411 29.8911 33.8166C29.8911 33.7862 29.8911 33.7562 29.8911 33.7259V36.7736C29.8911 36.7736 34.8705 41.3603 41.3263 39.3386C41.1971 38.8083 41.2253 38.2519 41.4075 37.7374C41.5897 37.2229 41.918 36.7727 42.3522 36.442C42.3522 36.442 41.7485 40.3647 45.3392 41.7833C48.9298 43.2019 49.322 45.7059 48.4469 48.5428C48.4469 48.5428 50.7401 47.3964 50.2886 43.9861C50.2886 43.9861 51.677 45.0824 51.043 47.7078C50.4696 50.0818 50.8179 50.8162 50.8179 50.8162L51.4891 51.4888Z" fill="#2C6E4A"/>
<path d="M29.9998 29.0021C30.0471 29.0131 30.0967 29.0072 30.1399 28.9853C30.1832 28.9634 30.2174 28.927 30.2365 28.8824C30.7682 27.825 31.3064 26.71 31.3085 25.5004C31.3085 24.3475 30.8051 23.2833 30.2127 22.3204C30.1904 22.284 30.1592 22.2539 30.122 22.233C30.0848 22.2121 30.0428 22.2012 30.0002 22.2012C29.9575 22.2012 29.9156 22.2121 29.8784 22.233C29.8412 22.2539 29.81 22.284 29.7877 22.3204C29.1936 23.284 28.6939 24.3458 28.6919 25.5004C28.6895 26.7083 29.2332 27.8274 29.7635 28.8824C29.7827 28.9269 29.8168 28.9632 29.86 28.985C29.9032 29.0069 29.9527 29.013 29.9998 29.0021Z" fill="#BA4749"/>
<path d="M37.6776 30.2127C37.7141 30.1904 37.7441 30.1592 37.765 30.1219C37.7859 30.0847 37.7968 30.0427 37.7968 30C37.7968 29.9574 37.7859 29.9154 37.765 29.8781C37.7441 29.8409 37.7141 29.8096 37.6776 29.7874C36.7142 29.1935 35.6525 28.6941 34.498 28.6914C33.2903 28.689 32.1713 29.2331 31.1165 29.7631C31.0794 29.7905 31.0493 29.8262 31.0286 29.8673C31.0079 29.9084 30.9971 29.9538 30.9971 29.9999C30.9971 30.0459 31.0079 30.0913 31.0286 30.1324C31.0493 30.1735 31.0794 30.2092 31.1165 30.2366C32.1737 30.7684 33.2886 31.3066 34.498 31.3087C35.6514 31.31 36.7172 30.8052 37.6776 30.2127Z" fill="#BA4749"/>
<path d="M30.0005 30.9976C29.9532 30.9866 29.9036 30.9925 29.8603 31.0144C29.817 31.0363 29.7827 31.0727 29.7635 31.1173C29.2321 32.1747 28.6936 33.2897 28.6919 34.4993C28.6919 35.6522 29.1953 36.7164 29.7877 37.6793C29.8099 37.7157 29.8412 37.7458 29.8784 37.7667C29.9156 37.7876 29.9575 37.7985 30.0002 37.7985C30.0428 37.7985 30.0848 37.7876 30.122 37.7667C30.1592 37.7458 30.1904 37.7157 30.2127 37.6793C30.8064 36.7154 31.3061 35.6539 31.3085 34.4993C31.3109 33.2914 30.7669 32.1723 30.2365 31.1173C30.2173 31.0729 30.1833 31.0367 30.1401 31.0148C30.097 30.9929 30.0476 30.9868 30.0005 30.9976Z" fill="#BA4749"/>
<path d="M22.3217 29.7874C22.2853 29.8096 22.2552 29.8409 22.2343 29.8781C22.2135 29.9154 22.2025 29.9573 22.2025 30C22.2025 30.0427 22.2135 30.0847 22.2343 30.1219C22.2552 30.1592 22.2853 30.1904 22.3217 30.2127C23.2852 30.8065 24.3469 31.3042 25.5013 31.3086C26.709 31.3114 27.828 30.7673 28.8825 30.2366C28.9196 30.2093 28.9498 30.1736 28.9706 30.1325C28.9913 30.0914 29.0022 30.0459 29.0022 29.9999C29.0022 29.9538 28.9913 29.9084 28.9706 29.8672C28.9498 29.8261 28.9196 29.7905 28.8825 29.7631C27.8253 29.2317 26.7107 28.6931 25.5013 28.6914C24.3486 28.69 23.2824 29.1949 22.3217 29.7874Z" fill="#BA4749"/>
<path d="M24.5079 26.9805C24.8617 27.4478 25.3786 27.7645 25.9556 27.8673C26.7232 28.0471 27.4806 28.2676 28.2247 28.528C28.2666 28.5392 28.3107 28.5391 28.3526 28.5278C28.3944 28.5166 28.4326 28.4945 28.4633 28.4638C28.494 28.4331 28.516 28.3949 28.5273 28.3531C28.5386 28.3112 28.5387 28.2671 28.5275 28.2252C28.2682 27.4807 28.0478 26.7232 27.8672 25.9558C27.764 25.3789 27.4475 24.862 26.9805 24.5079C26.2905 24.0689 25.2278 24.4397 25.2323 25.2327C24.4403 25.2279 24.0689 26.2898 24.5079 26.9805Z" fill="#BA4749"/>
<path d="M33.0192 24.5073C32.5519 24.8611 32.2353 25.3782 32.1324 25.9552C31.9528 26.7229 31.7323 27.4804 31.4718 28.2245C31.4607 28.2665 31.4607 28.3106 31.472 28.3525C31.4833 28.3944 31.5053 28.4325 31.536 28.4632C31.5667 28.4939 31.6049 28.516 31.6468 28.5272C31.6886 28.5385 31.7327 28.5386 31.7747 28.5274C32.5191 28.2681 33.2764 28.0476 34.0437 27.8667C34.6206 27.7636 35.1375 27.447 35.4915 26.9799C35.9301 26.2899 35.5597 25.2266 34.7667 25.2314C34.7708 24.4397 33.7098 24.0683 33.0192 24.5073Z" fill="#BA4749"/>
<path d="M35.4918 33.0197C35.1381 32.5523 34.6211 32.2356 34.0441 32.1329C33.2765 31.9531 32.5191 31.7326 31.775 31.4722C31.7331 31.461 31.689 31.4611 31.6471 31.4724C31.6052 31.4837 31.5671 31.5057 31.5364 31.5364C31.5057 31.5671 31.4837 31.6053 31.4724 31.6471C31.4611 31.689 31.461 31.7331 31.4722 31.775C31.7315 32.5195 31.952 33.277 32.1328 34.0444C32.236 34.6213 32.5526 35.1382 33.0195 35.4923C33.7091 35.931 34.7722 35.5605 34.7678 34.7675C35.5597 34.7719 35.9304 33.7101 35.4918 33.0197Z" fill="#BA4749"/>
<path d="M26.9812 35.4923C27.4483 35.1384 27.7649 34.6214 27.8679 34.0444C28.0475 33.2767 28.2679 32.5192 28.5282 31.7751C28.5393 31.7331 28.5393 31.689 28.528 31.6471C28.5167 31.6053 28.4947 31.5671 28.464 31.5364C28.4333 31.5057 28.3951 31.4836 28.3533 31.4724C28.3114 31.4611 28.2673 31.461 28.2254 31.4722C27.481 31.7317 26.7236 31.9522 25.9563 32.1329C25.3795 32.2362 24.8627 32.5528 24.5086 33.0197C24.07 33.7094 24.4403 34.773 25.2333 34.7678C25.2285 35.5599 26.2906 35.9313 26.9812 35.4923Z" fill="#BA4749"/>
</svg>
