<svg width="188" height="259" viewBox="0 0 188 259" fill="none" xmlns="http://www.w3.org/2000/svg">
<g opacity="0.23" clip-path="url(#clip0_29_694)">
<path d="M182.791 20.0002L172.278 23.437V12.3629L161.764 8.9261L168.263 0H165.635L159.661 8.25783L134.238 0H127.356L111.682 5.10745V21.6231L95.9593 0H93.331L77.6085 21.6231V5.10745L62.1251 0H55.0524L29.6289 8.25783L23.8943 0H21.0269L27.5262 8.9261L17.0127 12.3629V23.437L6.49924 20.0002L0 28.974V32.6017L17.0127 56.0387V73.9386L0 79.4757V81.7191L17.0127 87.2562V105.013L0 128.593V132.173L17.0127 155.61V173.558L0 179.095V181.386L17.0127 186.923V204.775L0 228.212V231.792L6.49924 240.766L17.0127 237.329V248.212L27.5262 251.649L22.3172 258.809H24.9456L29.7245 252.317L49.7 258.809H56.5338L30.967 250.694L47.7885 227.257L64.8012 221.72L75.3147 236.04V253.94L60.3569 258.714H67.1429L77.4174 255.372V239.143L91.7539 259H94.3823L77.3218 235.563V217.615L94.3823 212.078L111.395 217.663V235.563L94.3823 259H96.9629L111.299 239.143V255.659L121.574 259H128.36L113.402 254.227V236.231L123.916 221.911L140.928 227.448L157.941 250.885L132.852 259H139.686L159.661 252.508L164.44 259H167.069L161.86 251.84L172.373 248.403V237.329L182.887 240.766L188.096 233.558V229.978L182.074 238.284L172.517 235.133V208.355L188.239 229.978V226.446L172.278 204.775V186.828L188 181.72V178.665L172.278 173.558V155.61L188 133.939V130.359L172.278 152.03V135.514L156.555 130.407L172.278 125.299V108.736L188 130.359V126.827L172.278 105.013V87.2562L188 82.1487V79.0461L172.278 73.9386V56.0387L188 34.3679V30.7879L172.278 52.5065V25.6804L181.835 22.53L187.857 30.7879V27.2079L182.791 20.0002ZM17.0127 235.133L7.45501 238.284L1.29029 229.978L17.0127 208.355V235.133ZM160.378 10.7877L169.936 13.9381V24.1052L144.751 32.4108L160.378 10.7877ZM101.168 150.407L94.669 159.381L88.1698 150.407L77.6085 153.844V142.77L66.9039 139.333L73.4032 130.407L66.9039 121.433L77.4174 117.996V106.922L87.9786 110.359L94.4779 101.385L100.977 110.359L111.491 106.922V117.996L122.004 121.433L115.505 130.407L122.004 139.333L111.491 142.77V153.844L101.168 150.407ZM111.682 156.087V182.818L95.9593 161.195L101.933 152.746L111.682 156.087ZM93.331 161.195L77.6085 182.818V156.087L87.1662 152.889L93.331 161.195ZM91.2283 49.7857L75.5058 54.8931V71.5997L65.9481 58.1867L50.2257 63.3419L59.7834 49.9289L50.2257 36.5636L65.8048 41.5278L75.3625 28.1626V44.6782L91.2283 49.7857ZM94.669 97.8052L77.6085 74.3682V56.4683L94.669 50.8835L111.682 56.4683V74.3682L94.669 97.8052ZM111.682 77.9482V104.727L102.124 107.877L96.1505 99.6191L111.682 77.9482ZM93.331 99.6191L87.3574 107.877L77.7997 104.727V77.9482L93.331 99.6191ZM64.9924 60.5734L75.5058 74.8933V103.867L47.7885 95.0844L37.275 80.7645L47.7885 66.4445L64.9924 60.5734ZM50.0824 97.9961L75.5058 106.254V116.469L65.9481 119.619L50.0824 97.9961ZM71.0137 130.407L64.9924 138.665L39.5689 130.407L64.9924 122.101L71.0137 130.407ZM63.7021 120.335L36.1281 129.261L19.1154 123.724V105.824L29.5811 91.5044L46.6416 96.9937L63.7021 120.335ZM63.7021 140.479L46.6894 163.916L29.6289 169.453L19.1154 155.133V137.042L36.1281 131.505L63.7021 140.479ZM47.7885 165.729L75.3147 156.756V185.73L64.8012 200.05L47.7885 194.703L37.275 180.384L47.7885 165.729ZM49.8912 162.818L65.6136 141.147L75.1713 144.297V154.512L49.8912 162.818ZM113.593 156.756L141.119 165.729L151.633 180.049L141.119 194.369L124.25 200.479L113.737 186.159L113.593 156.756ZM113.593 154.512V144.297L123.151 141.147L138.873 162.818L113.593 154.512ZM118.085 130.646L124.25 122.101L149.674 130.407L124.25 138.665L118.085 130.646ZM123.294 119.858L113.737 116.708V106.254L139.16 97.9961L123.294 119.858ZM113.737 104.249V75.0365L124.25 60.7166L141.263 66.2536L151.776 80.5735L141.263 94.8935L113.737 104.249ZM142.41 64.5352L131.896 50.2153L142.458 35.8953L169.984 26.9215V55.8955L159.47 70.2154L142.458 64.6784L142.41 64.5352ZM113.737 6.87357L130.797 1.09786L158.323 10.0717L141.311 33.4132L124.25 39.0457L113.737 24.7258V6.87357ZM113.737 45.0601V28.1626L123.294 41.5278L139.017 36.4204L129.459 49.7857L139.017 63.1987L123.294 58.0435L113.737 71.4565V54.8931L98.0142 49.7857L113.737 45.0601ZM77.6085 25.2508L94.669 1.76613L111.682 25.2508V42.9598L94.669 48.6878L77.6085 42.9598V25.2508ZM58.4931 1.09786L75.5058 6.63491V24.5348L64.9924 38.8548L47.7885 33.4132L30.967 10.0717L58.4931 1.09786ZM19.1154 13.8903L28.6731 10.74L44.5389 32.4108L19.1154 24.1052V13.8903ZM19.1154 26.3487L46.6894 35.3225L57.2028 49.6425L46.6894 63.9624L29.6289 69.8336L19.1154 55.5136V26.3487ZM1.29029 30.7879L7.31164 22.53L16.8693 25.6804V52.5065L1.29029 30.7879ZM3.39298 80.5735L19.1154 75.4661V58.9504L28.6731 72.3157L44.3955 67.2083L34.8378 80.5735L44.3955 93.9388L28.6731 88.8314L19.1154 102.197V85.9197L3.39298 80.5735ZM1.29029 130.359L17.0127 108.736V125.299L32.7351 130.407L17.0127 135.514V152.03L1.29029 130.359ZM3.39298 180.193L19.1154 175.085V158.569L28.6731 171.839L44.5389 167.066L34.9812 180.431L44.5389 193.797L28.6731 188.45L19.1154 201.816V185.3L3.39298 180.193ZM28.6731 250.026L19.1154 246.876V236.661L44.5389 228.355L28.6731 250.026ZM46.546 225.491L19.1154 234.417V205.253L29.6289 190.933L46.6416 196.47L57.1551 210.79L46.546 225.491ZM75.2191 215.945V232.46L65.6614 219.095L50.0824 224.346L59.6401 210.98L50.0824 197.615L65.8048 202.723L75.3625 189.357V205.873L91.0849 210.98L75.2191 215.945ZM77.3218 204.202V186.446L94.3823 162.961L111.395 186.446V204.346L94.669 210.026L77.3218 204.202ZM123.199 219.095L113.641 232.46V216.088L98.062 210.98L113.784 205.873V189.357L123.342 202.723L139.065 197.615L129.507 210.98L139.065 224.346L123.199 219.095ZM169.888 246.733L160.33 249.883L144.608 228.212L170.032 236.518L169.888 246.733ZM169.888 234.274L142.362 225.348L131.801 211.028L142.314 196.708L159.661 190.933L170.175 205.253L169.888 234.274ZM185.897 180.193L170.175 185.3V201.816L160.617 188.45L144.895 193.558L154.452 180.193L144.895 166.827L160.474 171.839L170.032 158.474V174.99L185.897 180.193ZM170.175 137.233V155.133L159.661 169.453L142.601 163.916L125.588 140.479L153.162 131.505L170.175 137.233ZM170.175 123.915L153.162 129.452L125.588 120.526L142.601 97.0415L159.661 91.5522L170.175 105.872V123.915ZM185.897 80.9554L170.175 85.9197V102.483L160.617 89.07L144.895 94.1775L154.452 80.8122L144.895 67.4469L160.617 72.5544L170.175 59.1891V75.7048L185.897 80.9554Z" fill="white"/>
</g>
<defs>
<clipPath id="clip0_29_694">
<rect width="188" height="259" fill="white"/>
</clipPath>
</defs>
</svg>
