<svg width="444" height="323" viewBox="0 0 444 323" fill="none" xmlns="http://www.w3.org/2000/svg">
<g clip-path="url(#clip0_29_714)">
<path d="M34.286 8.94944L40.1777 27.0125H21.1935L15.3019 45.0755L0 33.9093L0 38.425L14.1563 48.6881L0 92.3678L0 104.191L8.75562 131.121H37.0682L0 158.134L0 162.649L37.0682 189.662H8.75562L0 216.264L0 228.415L14.1563 272.095L0 281.948L0 286.874L15.3019 275.708L21.1935 293.771H40.1777L34.286 311.834L49.6697 323H55.8887L96.0664 293.771H126.752L136.244 323H140.09L149.582 293.771H180.022L220.445 323H226.582L266.76 293.771H297.527L307.02 323H310.947L320.439 293.771H351.043L391.221 323H397.358L412.742 311.834L406.85 293.771H425.507L431.398 275.708L443.673 284.657V280.141L432.544 271.931L443.673 237.611V225.87L429.762 269.796L389.584 240.895L380.092 211.666L404.641 193.603H435.326L443.509 219.302V207.643L437.781 189.99H409.959L444 165.359V160.843L403.822 190.155H373.055L363.563 160.843L373.137 131.614H403.822L444 160.843V156.41L409.959 131.778H438.272L444 114.126V102.467L435.817 128.166H404.968L380.42 110.102L389.912 80.8732L430.089 51.6439L444 94.7489V83.0079L432.871 48.6881L444 40.4777V35.9619L431.726 44.9113L425.834 26.8483H406.85L412.742 8.78523L400.386 -0.164187H394.248L408.487 10.181L403.086 26.602H357.18L394.248 -0.410491H388.193L351.043 27.0125H320.276L311.52 2.60604e-05H306.283L297.527 27.0125H266.76L229.61 2.60604e-05H223.473L260.623 27.0125H232.31L223.555 54.0249L214.799 27.0125H186.405L223.473 2.60604e-05H217.418L180.022 27.0125H149.582L140.826 2.60604e-05H135.508L126.752 27.0125H96.0664L58.9163 2.60604e-05H52.7792L90.0111 27.0125H44.0236L38.6229 10.5915L52.7792 0.24633H46.6421L34.286 8.94944ZM403.086 293.771L408.487 310.192L394.248 320.783L357.18 293.771H403.086ZM18.4932 47.4565L23.8938 31.0356H41.3233L55.5614 74.3048L18.4932 47.4565ZM257.841 149.184L273.224 160.351L257.841 171.517L263.732 189.662H244.748L238.857 208.053L223.555 196.887L208.171 208.053L202.279 189.99H183.295L189.187 171.845L173.803 160.679L189.187 149.513L183.295 131.45H202.279L208.171 113.387L223.555 124.553L238.857 113.387L244.748 131.45H263.732L257.841 149.184ZM267.578 131.121H313.402L276.334 158.134L261.85 147.871L267.578 131.121ZM276.334 162.649L313.402 189.662H267.578L262.096 173.241L276.334 162.649ZM85.3469 166.262L94.1025 193.275H122.742L99.7486 209.695L108.586 236.708L85.5923 220.287L62.6804 236.708L71.1906 209.942L48.2787 193.521H76.5912L85.3469 166.262ZM167.666 160.351L127.488 189.662H96.8028L87.2289 160.351L96.8028 131.121H127.488L167.666 160.351ZM133.626 131.121H179.531L184.932 147.542L170.776 157.805L133.626 131.121ZM170.776 162.649L184.932 172.913L179.531 189.334H133.626L170.776 162.649ZM103.84 211.338L128.389 193.275H178.058L163.002 240.895L138.453 258.958L113.905 240.895L103.84 211.338ZM167.993 236.954L182.15 193.275H199.661L205.062 209.695L167.993 236.954ZM223.555 200.992L237.711 211.338L223.555 255.017L209.317 211.338L223.555 200.992ZM206.289 213.554L221.591 260.929L212.099 290.158H181.413L156.865 272.177L166.275 242.866L206.289 213.554ZM240.821 213.554L280.998 242.784L290.49 272.095L265.942 290.158H234.929L225.437 260.929L240.821 213.554ZM284.108 240.895L268.724 193.603H318.394L342.942 211.666L333.777 240.895L309.229 258.958L284.108 240.895ZM279.116 237.283L241.966 210.27L247.367 193.849H264.878L279.116 237.283ZM268.724 127.837L284.108 80.5448L308.656 62.4817L333.205 80.5448L343.679 109.528L319.13 127.591L268.724 127.837ZM264.878 127.837H247.367L241.966 111.416L279.116 84.4037L264.878 127.837ZM223.964 120.119L209.317 109.528L223.555 65.848L237.711 109.528L223.964 120.119ZM205.471 111.17L200.07 127.591H182.15L167.993 83.911L205.471 111.17ZM178.713 127.591H128.634L104.086 109.528L113.578 80.2984L138.126 62.2354L162.675 80.2984L178.713 127.591ZM110.632 78.3279L86.0833 96.391L61.5348 78.2458L46.1511 30.9535H95.8209L120.369 49.0166L110.877 78.2458L110.632 78.3279ZM11.7833 127.591L1.88205 98.2794L17.2658 50.9871L57.2798 80.2163L66.9355 109.528L42.387 127.591H11.7833ZM77.2459 127.591H48.2787L71.1906 111.17L62.4349 84.1574L85.3469 100.578L108.341 84.1574L99.5031 111.17L122.497 127.591H94.1025L85.3469 154.603L77.2459 127.591ZM43.2871 189.662L3.02764 160.351L43.2871 131.121H73.6454L83.4648 160.351L73.6454 189.662H43.2871ZM1.88205 222.504L11.3741 193.275H42.0597L66.6082 211.338L57.2798 240.895L17.2658 269.796L1.88205 222.504ZM23.812 290.158L18.4114 273.737L55.5614 246.478L41.3233 290.158H23.812ZM45.1692 290.158L60.5529 242.784L85.1014 224.721L109.65 242.784L119.715 272.095L95.1662 290.158H45.1692ZM52.7792 320.783L38.6229 310.438L44.0236 294.017H90.0111L52.7792 320.783ZM138.126 317.171L129.37 290.158H101.058L123.97 273.737L115.214 246.725L138.126 263.146L161.038 246.725L152.282 273.737L175.194 290.158H147.291L138.126 317.171ZM223.473 320.783L186.405 293.771H214.799L223.555 266.758L232.31 293.771H260.623L223.473 320.783ZM308.902 317.171L300.146 290.158H271.833L294.582 273.737L286.399 246.478L309.311 262.899L332.223 246.478L323.058 273.737L345.97 290.158H317.657L308.902 317.171ZM428.616 273.737L423.216 290.158H405.704L391.466 246.478L428.616 273.737ZM386.557 243.03L401.858 290.158H351.861L327.313 272.095L336.805 242.866L361.354 224.803L386.557 243.03ZM370.191 193.767H398.504L375.592 210.188L384.593 236.954L361.681 220.533L338.769 236.954L347.525 209.942L324.613 193.521H352.925L361.681 166.508L370.191 193.767ZM350.061 190.155H319.621L279.362 160.843L319.621 131.614H350.307L360.044 160.351L350.061 190.155ZM375.592 111.334L398.504 127.755H370.436L361.681 154.521L352.925 127.509H324.613L347.525 111.088L338.769 84.0753L361.681 100.496L384.593 84.0753L375.592 111.334ZM422.97 31.1177L428.371 47.5387L391.221 74.5511L405.459 30.8714L422.97 31.1177ZM401.613 31.1177L386.311 78.41L361.763 96.5552L337.214 78.4921L327.313 48.6881L351.861 30.6251L401.613 31.1177ZM308.902 3.61262L317.657 30.6251H345.97L323.058 47.046L331.814 74.0585L308.902 57.6375L285.99 74.0585L294.582 47.2923L271.67 30.8714H299.982L308.902 3.61262ZM235.256 30.6251H265.942L290.49 48.6881L280.998 77.9995L240.821 107.229L225.437 59.8544L235.256 30.6251ZM212.426 30.6251L221.918 59.8544L206.616 107.229L166.357 77.9995L156.947 48.6881L181.495 30.6251H212.426ZM138.781 3.61262L147.291 30.6251H175.685L152.691 47.046L161.447 74.0585L138.535 57.6375L115.623 74.0585L124.379 47.046L101.467 30.6251H129.78L138.781 3.61262Z" fill="#DCEFE1"/>
</g>
<defs>
<clipPath id="clip0_29_714">
<rect width="323" height="444" fill="white" transform="matrix(0 -1 1 0 0 323)"/>
</clipPath>
</defs>
</svg>
