<svg width="60" height="54" viewBox="0 0 60 54" fill="none" xmlns="http://www.w3.org/2000/svg">
<path d="M59.1797 18.4953H56.5612L56.8978 17.6787C57.2791 16.7589 57.3786 15.7465 57.1836 14.7701C56.9885 13.7936 56.5078 12.8971 55.8023 12.1944L53.4816 9.8731V7.04935C53.4816 6.83179 53.3951 6.62314 53.2413 6.4693C53.0875 6.31546 52.8788 6.22904 52.6613 6.22904C52.4437 6.22904 52.235 6.31546 52.0812 6.4693C51.9274 6.62314 51.8409 6.83179 51.8409 7.04935V9.87357L49.5197 12.1948C48.8143 12.8976 48.3335 13.7941 48.1385 14.7705C47.9434 15.747 48.0429 16.7594 48.4242 17.6792L48.7608 18.4958H46.1428C45.9253 18.4958 45.7166 18.5822 45.5628 18.736C45.4089 18.8899 45.3225 19.0985 45.3225 19.3161V24.1873C45.3225 24.4049 45.4089 24.6135 45.5628 24.7674C45.7166 24.9212 45.9253 25.0076 46.1428 25.0076H48.0469V30.3111H44.4141V27.2056C44.4139 26.9881 44.3275 26.7795 44.1737 26.6257C44.0199 26.4719 43.8113 26.3854 43.5938 26.3853H41.8594C42.9478 24.7485 43.5106 22.8183 43.4725 20.853C43.4344 18.8877 42.7972 16.9809 41.6461 15.3875C39.7227 12.7141 37.019 10.7015 33.9061 9.62607L33.0023 9.30263C33.3709 8.50485 33.546 7.63136 33.5134 6.75316C33.4809 5.87496 33.2415 5.01685 32.8148 4.24857L30.7158 0.495288C30.6446 0.36791 30.5408 0.261823 30.415 0.187976C30.2892 0.114128 30.1459 0.0751953 30 0.0751953C29.8541 0.0751953 29.7109 0.114128 29.585 0.187976C29.4592 0.261823 29.3554 0.36791 29.2842 0.495288L27.1847 4.24857C26.758 5.01685 26.5187 5.87496 26.4861 6.75316C26.4535 7.63136 26.6286 8.50485 26.9972 9.30263L26.0934 9.62607C22.9812 10.7018 20.2782 12.7144 18.3553 15.3875C17.2041 16.9808 16.5667 18.8875 16.5283 20.8528C16.4899 22.8181 17.0524 24.7483 18.1406 26.3853H16.4062C16.1887 26.3854 15.9802 26.4719 15.8263 26.6257C15.6725 26.7795 15.5861 26.9881 15.5859 27.2056V30.3111H11.9531V25.0086H13.8577C13.9654 25.0085 14.0722 24.9872 14.1717 24.9459C14.2713 24.9046 14.3617 24.8441 14.4379 24.7678C14.5141 24.6916 14.5745 24.6011 14.6157 24.5015C14.6569 24.4018 14.678 24.2951 14.678 24.1873V19.3123C14.6778 19.0948 14.5914 18.8862 14.4376 18.7324C14.2838 18.5786 14.0752 18.4921 13.8577 18.492H11.2387L11.5758 17.6754C11.9571 16.7556 12.0565 15.7432 11.8614 14.7668C11.6664 13.7904 11.1857 12.8939 10.4803 12.1911L8.15906 9.86982V7.04935C8.15906 6.83179 8.07264 6.62314 7.9188 6.4693C7.76496 6.31546 7.55631 6.22904 7.33875 6.22904C7.12119 6.22904 6.91254 6.31546 6.7587 6.4693C6.60486 6.62314 6.51844 6.83179 6.51844 7.04935V9.87357L4.19766 12.1948C3.49222 12.8976 3.01147 13.7941 2.81643 14.7705C2.62139 15.747 2.72085 16.7594 3.10219 17.6792L3.43875 18.4958H0.820312C0.602871 18.4959 0.394365 18.5823 0.240567 18.736C0.0867685 18.8897 0.000248327 19.0982 0 19.3156L0 24.1873C0.000124192 24.4048 0.0865896 24.6134 0.240401 24.7672C0.394213 24.921 0.60279 25.0075 0.820312 25.0076H2.72484V53.1031C2.72484 53.3207 2.81127 53.5293 2.96511 53.6831C3.11895 53.837 3.3276 53.9234 3.54516 53.9234H56.4548C56.6724 53.9234 56.8811 53.837 57.0349 53.6831C57.1887 53.5293 57.2752 53.3207 57.2752 53.1031V25.0086H59.1797C59.2875 25.0085 59.3942 24.9872 59.4938 24.9459C59.5933 24.9046 59.6838 24.8441 59.7599 24.7678C59.8361 24.6916 59.8965 24.6011 59.9377 24.5015C59.9789 24.4018 60.0001 24.2951 60 24.1873V19.3123C59.999 19.0954 59.9122 18.8876 59.7584 18.7345C59.6047 18.5814 59.3966 18.4954 59.1797 18.4953ZM49.9406 17.0534C49.6837 16.433 49.6168 15.7503 49.7484 15.0919C49.88 14.4335 50.2042 13.8289 50.6798 13.355L52.6613 11.3736L54.6427 13.355C55.1183 13.8289 55.4425 14.4335 55.574 15.0919C55.7055 15.7504 55.6385 16.4331 55.3814 17.0534L54.7866 18.4953H50.5355L49.9406 17.0534ZM28.6167 5.04919L30 2.57794L31.3833 5.05107C31.6969 5.6148 31.8672 6.24695 31.8792 6.89193C31.8912 7.5369 31.7446 8.17496 31.4522 8.74998L30.2761 8.3281C30.0975 8.26437 29.9025 8.26437 29.7239 8.3281L28.5478 8.74998C28.2551 8.17472 28.1083 7.53632 28.1203 6.89098C28.1323 6.24565 28.3028 5.61316 28.6167 5.04919ZM19.703 16.3231C21.4306 13.9308 23.8558 12.1312 26.6461 11.1711L30 9.97107L33.3539 11.1711C36.1442 12.1312 38.5694 13.9308 40.297 16.3231C41.3632 17.8081 41.8969 19.6095 41.8118 21.4357C41.7268 23.2618 41.0279 25.0058 39.8283 26.3853H20.1727C18.9729 25.0059 18.2739 23.262 18.1886 21.4358C18.1034 19.6097 18.637 17.8082 19.703 16.3231ZM17.2266 28.0259H42.7734V30.3111H17.2266V28.0259ZM4.61859 17.0534C4.36149 16.4331 4.29445 15.7504 4.42598 15.0919C4.55751 14.4335 4.88167 13.8289 5.35734 13.355L7.33875 11.3736L9.32016 13.355C9.79583 13.8289 10.12 14.4335 10.2515 15.0919C10.383 15.7504 10.316 16.4331 10.0589 17.0534L9.46453 18.4953H5.21344L4.61859 17.0534ZM1.64062 20.1359H13.0373V23.3703H1.64062V20.1359ZM4.36547 25.0109H10.3125V52.2861H4.36547V25.0109ZM11.9531 31.9517H48.0469V52.2837H46.507V46.0892C46.5057 45.2766 46.3383 44.4728 46.0151 43.7273C45.6918 42.9817 45.2196 42.3101 44.6273 41.7537L42.8278 40.0686C42.6757 39.9265 42.4753 39.8475 42.2672 39.8475C42.059 39.8475 41.8587 39.9265 41.7066 40.0686L39.907 41.7537C39.3148 42.3101 38.8426 42.9817 38.5193 43.7273C38.1961 44.4728 38.0287 45.2766 38.0273 46.0892V52.2837H35.8303V42.8276C35.8285 41.6892 35.594 40.5632 35.1411 39.5187C34.6883 38.4743 34.0266 37.5334 33.1969 36.754L30.5625 34.2856C30.4105 34.1433 30.2101 34.0641 30.0019 34.0641C29.7937 34.0641 29.5932 34.1433 29.4412 34.2856L26.8031 36.754C25.9734 37.5335 25.3119 38.4743 24.8591 39.5188C24.4063 40.5632 24.1719 41.6893 24.1702 42.8276V52.2837H21.9727V46.0892C21.9713 45.2766 21.8039 44.4728 21.4807 43.7273C21.1574 42.9817 20.6852 42.3101 20.093 41.7537L18.2934 40.0686C18.1413 39.9265 17.941 39.8474 17.7328 39.8475C17.5247 39.8475 17.3243 39.9265 17.1722 40.0686L15.375 41.7537C14.7828 42.3101 14.3105 42.9817 13.9873 43.7273C13.6641 44.4728 13.4966 45.2766 13.4953 46.0892V52.2837H11.9531V31.9517ZM15.1336 52.2837V46.0892C15.1343 45.5011 15.2552 44.9194 15.489 44.3798C15.7227 43.8402 16.0644 43.3541 16.493 42.9514L17.7314 41.7912L18.9698 42.9514C19.3984 43.3541 19.7401 43.8402 19.9738 44.3798C20.2076 44.9194 20.3285 45.5011 20.3292 46.0892V52.2837H15.1336ZM25.8108 52.2837V42.8276C25.8122 41.9139 26.0004 41.0101 26.3639 40.1718C26.7274 39.3334 27.2584 38.5783 27.9244 37.9526L30 36.0083L32.0756 37.9517C32.7417 38.5773 33.2728 39.3324 33.6363 40.1708C33.9999 41.0091 34.1882 41.9129 34.1897 42.8267V52.2828L25.8108 52.2837ZM39.668 52.2837V46.0892C39.6686 45.5011 39.7896 44.9194 40.0233 44.3798C40.2571 43.8402 40.5988 43.3541 41.0273 42.9514L42.2658 41.7912L43.5047 42.9514C43.9332 43.3541 44.2749 43.8402 44.5087 44.3798C44.7425 44.9194 44.8634 45.5011 44.8641 46.0892V52.2837H39.668ZM55.6345 52.2837H49.6875V25.0086H55.6345V52.2837ZM58.3594 23.3679H46.9627V20.1336H58.3594V23.3679Z" fill="#2C6E4A"/>
<path d="M32.6433 13.1573C32.4382 13.084 32.2123 13.0952 32.0155 13.1884C31.8186 13.2816 31.6668 13.4492 31.5935 13.6544C31.5202 13.8595 31.5315 14.0853 31.6247 14.2822C31.7179 14.4791 31.8855 14.6308 32.0906 14.7041C34.1464 15.3985 35.9375 16.711 37.2188 18.4621C37.2803 18.5506 37.3587 18.6261 37.4494 18.6843C37.5402 18.7425 37.6415 18.7822 37.7476 18.8013C37.8537 18.8203 37.9625 18.8183 38.0678 18.7953C38.1731 18.7723 38.2729 18.7287 38.3613 18.6672C38.4498 18.6056 38.5253 18.5272 38.5835 18.4365C38.6417 18.3458 38.6815 18.2445 38.7005 18.1384C38.7196 18.0323 38.7175 17.9235 38.6945 17.8181C38.6715 17.7128 38.628 17.6131 38.5664 17.5246C37.0896 15.4929 35.0207 13.9675 32.6433 13.1573Z" fill="#2C6E4A"/>
</svg>
