<svg width="60" height="58" viewBox="0 0 60 58" fill="none" xmlns="http://www.w3.org/2000/svg">
<path d="M58.8089 42.6318C58.6503 42.4736 58.4755 42.3324 58.2874 42.2105C59.3046 41.6744 60 40.6067 60 39.3792C60 38.3279 59.4805 37.3696 58.6591 36.7812C59.2242 36.204 59.5736 35.4147 59.5736 34.5451C59.5736 33.3741 58.9308 32.3164 57.9458 31.7603C58.3572 31.2096 58.579 30.5405 58.5783 29.8531C58.5783 28.5678 57.8029 27.421 56.6517 26.922C56.8903 26.4664 57.0147 25.9597 57.0143 25.4455C57.0143 24.0048 56.0414 22.7356 54.6557 22.3612L54.6151 22.3505C54.5852 22.3428 54.5549 22.3373 54.5247 22.3304C54.6667 21.9636 54.7395 21.5736 54.7393 21.1802C54.7393 19.7395 53.7664 18.4704 52.3807 18.0959L52.3402 18.0853C52.2659 18.0658 52.1911 18.049 52.1156 18.0349C52.0866 18.0296 52.0574 18.0249 52.0282 18.0209L51.9898 18.0152C51.9818 18.014 51.9744 18.0133 51.9664 18.0123C52.0129 17.7958 52.0378 17.5715 52.0378 17.3414C52.0378 15.9007 51.0649 14.6315 49.6792 14.257L49.6386 14.2463C49.5644 14.2268 49.4895 14.21 49.4141 14.1959C49.3851 14.1906 49.3559 14.186 49.3267 14.182L49.2882 14.1763C49.1563 14.1554 49.0229 14.1444 48.8893 14.1434C48.9025 14.0263 48.9097 13.9073 48.9097 13.7867C48.9097 12.346 47.9368 11.0769 46.5511 10.7025L46.5105 10.6918C46.4376 10.6726 46.364 10.6561 46.2899 10.6423C46.2596 10.6367 46.2291 10.6318 46.1986 10.6276L46.1602 10.6218C46.1098 10.6142 46.0594 10.6071 46.0117 10.6026C45.9116 10.5928 45.8111 10.5878 45.7105 10.5877C45.5907 10.5877 45.4716 10.5956 45.353 10.6089C45.3307 9.1891 44.366 7.94469 42.9963 7.57449L42.9558 7.56383C42.8829 7.54465 42.8093 7.52815 42.7351 7.51437C42.7048 7.50872 42.6744 7.5038 42.6438 7.49961L42.6054 7.49387C42.555 7.48625 42.5046 7.4791 42.4569 7.47465C42.3568 7.46482 42.2563 7.45985 42.1557 7.45977C41.8284 7.45977 41.5029 7.51098 41.1922 7.60906C41.0002 6.37824 40.0988 5.34652 38.873 5.01523L38.8324 5.00457C38.7595 4.98539 38.6859 4.9689 38.6118 4.95512C38.5815 4.94946 38.551 4.94454 38.5205 4.94035L38.482 4.93461C38.4316 4.92699 38.3813 4.91984 38.3336 4.91539C38.2335 4.90556 38.133 4.9006 38.0324 4.90051C37.6277 4.90051 37.2259 4.97844 36.8515 5.12715C36.5575 4.05371 35.7152 3.18184 34.6073 2.88254L34.5668 2.87188C34.4939 2.8527 34.4203 2.8362 34.3461 2.82242C34.3158 2.81677 34.2854 2.81185 34.2548 2.80766L34.2164 2.80191C34.166 2.7943 34.1156 2.78715 34.0679 2.7827C33.9678 2.77287 33.8673 2.7679 33.7668 2.76781C33.234 2.76803 32.7097 2.90119 32.2414 3.15523C32.2022 3.17656 32.1648 3.2 32.1267 3.22273C31.7401 2.37594 30.9936 1.71359 30.0574 1.4607L30.0169 1.45004C29.944 1.43086 29.8703 1.41436 29.7962 1.40059C29.7659 1.39493 29.7355 1.39001 29.7049 1.38582L29.6665 1.38008C29.6161 1.37234 29.5657 1.36531 29.518 1.36086C29.4179 1.35103 29.3174 1.34607 29.2168 1.34598C28.6841 1.34619 28.1598 1.47936 27.6915 1.7334C27.593 1.78695 27.4993 1.8466 27.4083 1.90918C26.9929 1.21695 26.3225 0.685742 25.5075 0.46543L25.467 0.454766C25.394 0.435586 25.3204 0.419091 25.2463 0.405313C25.216 0.39966 25.1855 0.394737 25.155 0.390547L25.1166 0.384805C25.0662 0.377187 25.0158 0.370039 24.9681 0.365586C24.8681 0.355809 24.7677 0.350842 24.6673 0.350703C24.1345 0.350918 23.6102 0.484082 23.142 0.738125C22.8896 0.875412 22.6567 1.04596 22.4497 1.2452C22.0377 0.740703 21.4744 0.359141 20.8158 0.181133L20.7752 0.170469C20.7023 0.151289 20.6287 0.134794 20.5546 0.121016C20.5243 0.115363 20.4938 0.11044 20.4633 0.10625L20.4248 0.100508C20.3745 0.0928907 20.3241 0.0857422 20.2764 0.081289C20.1763 0.0715173 20.0758 0.0665506 19.9752 0.0664062C19.4424 0.0666215 18.9182 0.199785 18.4499 0.453828C18.0536 0.669697 17.7074 0.966754 17.4338 1.32559C17.0435 0.92293 16.5479 0.618477 15.9816 0.465547L15.941 0.454883C15.8681 0.435703 15.7945 0.419208 15.7204 0.40543C15.69 0.399777 15.6596 0.394854 15.6291 0.390664L15.5906 0.384922C15.5402 0.377188 15.4898 0.370156 15.4421 0.365703C15.3421 0.355934 15.2415 0.350968 15.141 0.35082C14.6082 0.351036 14.0839 0.484199 13.6157 0.738242C12.9101 1.12173 12.3743 1.75625 12.1144 2.51609C11.9407 2.4324 11.7598 2.36473 11.5738 2.31395L11.5332 2.30328C11.4603 2.2841 11.3867 2.26761 11.3126 2.25383C11.2823 2.24818 11.2518 2.24325 11.2213 2.23906L11.1829 2.23332C11.1336 2.22547 11.084 2.21906 11.0344 2.2141C10.9343 2.20433 10.8338 2.19937 10.7332 2.19922C10.2004 2.19943 9.67617 2.3326 9.20789 2.58664C8.74841 2.83628 8.35713 3.19474 8.06829 3.63065C7.77946 4.06656 7.60187 4.56663 7.55109 5.08707C7.54219 5.08566 7.53352 5.08414 7.52449 5.08285L7.48605 5.07711C7.43566 5.06949 7.38527 5.06234 7.33758 5.05789C7.23749 5.04799 7.13698 5.04294 7.03641 5.04277C6.18801 5.0429 5.3744 5.37997 4.77448 5.97986C4.17456 6.57976 3.83746 7.39336 3.8373 8.24176C3.8373 8.34617 3.8427 8.45281 3.85324 8.55734C3.85734 8.5993 3.86332 8.64055 3.87211 8.69539L3.87492 8.7159C3.88172 8.76535 3.8891 8.81469 3.89836 8.86109C3.90926 8.91688 3.92285 8.97125 3.93715 9.02574L3.945 9.05621C3.94617 9.06066 3.94746 9.065 3.94852 9.06945C3.59967 9.12751 3.26288 9.24302 2.95184 9.41129C2.44561 9.68589 2.02288 10.092 1.72827 10.5869C1.43365 11.0817 1.27807 11.6469 1.27793 12.2229C1.27793 12.3273 1.28332 12.4339 1.29387 12.5384C1.29797 12.5804 1.30395 12.6216 1.31273 12.6765L1.31555 12.697C1.32234 12.7464 1.32973 12.7958 1.33898 12.8422C1.34988 12.898 1.36348 12.9523 1.37777 13.0068L1.38563 13.0373C1.39359 13.07 1.40215 13.1027 1.41188 13.1355C1.43309 13.2066 1.45781 13.276 1.48324 13.3436C1.49191 13.3679 1.50082 13.3921 1.50937 13.4135C1.53832 13.4855 1.57078 13.5573 1.60723 13.6305C1.61461 13.6461 1.62211 13.6617 1.62973 13.6764C1.65223 13.7203 1.67766 13.7615 1.70191 13.8039C1.69207 13.8092 1.68187 13.8137 1.67215 13.8188C1.16638 14.0938 0.744123 14.5001 0.449847 14.9949C0.155572 15.4897 0.000167165 16.0547 0 16.6304C0 16.7348 0.00539063 16.8413 0.0159375 16.946C0.0200391 16.9879 0.0260156 17.0292 0.0348047 17.084L0.0376172 17.1045C0.0444141 17.154 0.0517969 17.2033 0.0610547 17.2497C0.0719531 17.3055 0.0855469 17.3599 0.0998437 17.4144L0.107695 17.4448C0.115664 17.4775 0.124219 17.5102 0.133945 17.543C0.155156 17.6142 0.179883 17.6836 0.205312 17.7512C0.213984 17.7755 0.222891 17.7997 0.231445 17.821C0.260391 17.8931 0.292852 17.9648 0.329297 18.038C0.33668 18.0536 0.34418 18.0692 0.351797 18.084C0.391282 18.161 0.433976 18.2364 0.479766 18.3099C0.483281 18.3159 0.490195 18.3268 0.493711 18.3327C0.543281 18.4112 0.597305 18.4892 0.654844 18.5645L0.658008 18.5687C0.810505 18.7684 0.985572 18.9499 1.17973 19.1095C0.852996 19.4087 0.592047 19.7726 0.413447 20.178C0.234847 20.5834 0.142499 21.0216 0.142266 21.4646C0.142266 21.569 0.147656 21.6755 0.158203 21.7802C0.162305 21.8221 0.168281 21.8634 0.17707 21.918L0.179883 21.9387C0.186562 21.9881 0.194063 22.0373 0.203672 22.0856C0.21457 22.1405 0.22793 22.1947 0.242227 22.2485L0.250078 22.2789C0.258047 22.3116 0.266602 22.3443 0.276328 22.3771C0.297539 22.4483 0.322266 22.5177 0.347695 22.5853C0.356367 22.6096 0.365273 22.6338 0.373828 22.6551C0.402773 22.7272 0.435234 22.7989 0.47168 22.872C0.479062 22.8876 0.486562 22.9032 0.49418 22.918C0.533906 22.9954 0.577266 23.0718 0.622148 23.1439C0.625664 23.1499 0.632578 23.1608 0.636094 23.1666C0.685664 23.2452 0.739688 23.3232 0.797227 23.3984L0.800391 23.4027C1.15418 23.8658 1.61297 24.2136 2.13047 24.4258C1.85276 24.9092 1.70654 25.4568 1.70637 26.0143C1.70637 26.1187 1.71176 26.2252 1.7223 26.3299C1.72641 26.3718 1.73238 26.4131 1.74117 26.4677L1.74398 26.4884C1.75078 26.5379 1.75816 26.5872 1.76742 26.6336C1.77832 26.6894 1.79191 26.7438 1.80621 26.7983L1.81406 26.8287C1.82203 26.8614 1.83059 26.8941 1.84031 26.927C1.86152 26.9981 1.88625 27.0675 1.91168 27.1351C1.92035 27.1595 1.92926 27.1836 1.93781 27.2049C1.96676 27.277 1.99922 27.3487 2.03566 27.4218C2.04305 27.4374 2.05055 27.453 2.05816 27.4678C2.09789 27.5452 2.14125 27.6216 2.18613 27.6937C2.18965 27.6997 2.19656 27.7106 2.20008 27.7164C2.24965 27.795 2.30367 27.873 2.36121 27.9482L2.36438 27.9525C2.94129 28.7077 3.79723 29.1591 4.73355 29.2085C4.70653 29.3746 4.6927 29.5426 4.69219 29.711C4.69219 29.8154 4.69758 29.9219 4.70812 30.0266C4.71223 30.0685 4.7182 30.1098 4.72699 30.1644L4.7298 30.1851C4.7366 30.2346 4.74398 30.2839 4.75324 30.3303C4.76414 30.3861 4.77773 30.4405 4.79203 30.495L4.79988 30.5254C4.80785 30.5581 4.81641 30.5908 4.82613 30.6236C4.84734 30.6948 4.87207 30.7641 4.8975 30.8318C4.90617 30.856 4.91508 30.8803 4.92363 30.9016C4.95258 30.9737 4.98504 31.0454 5.02148 31.1185C5.02887 31.1341 5.03637 31.1497 5.04398 31.1645C5.08371 31.2419 5.12707 31.3183 5.17195 31.3904C5.17547 31.3964 5.18238 31.4073 5.1859 31.4131C5.23547 31.4916 5.28949 31.5697 5.34703 31.6449L5.35019 31.6491C5.96238 32.4505 6.8884 32.9101 7.89141 32.9101C8.12133 32.9101 8.34551 32.8852 8.56195 32.8388L8.56605 32.866L8.56887 32.8868C8.57566 32.9362 8.58305 32.9855 8.5923 33.032C8.6032 33.0877 8.6168 33.1421 8.63109 33.1966L8.63895 33.2271C8.64691 33.2598 8.65547 33.2925 8.6652 33.3253C8.68641 33.3964 8.71113 33.4658 8.73656 33.5334C8.74523 33.5577 8.75414 33.5819 8.7627 33.6032C8.79164 33.6753 8.8241 33.747 8.86055 33.8202C8.86793 33.8357 8.87543 33.8513 8.88305 33.8661C8.92253 33.9432 8.96523 34.0185 9.01101 34.092C9.01453 34.098 9.02145 34.1089 9.02496 34.1148C9.07453 34.1933 9.12855 34.2713 9.18609 34.3466L9.18926 34.3508C9.80145 35.1521 10.7275 35.6117 11.7305 35.6117C12.2838 35.6117 12.8047 35.4704 13.2592 35.2222C13.2625 35.2289 13.2649 35.2354 13.2681 35.2421C13.2755 35.2577 13.283 35.2733 13.2906 35.288C13.3301 35.3651 13.3728 35.4405 13.4186 35.514C13.4221 35.52 13.429 35.5309 13.4325 35.5367C13.4821 35.6152 13.5361 35.6933 13.5936 35.7685L13.5968 35.7727C14.209 36.5741 15.135 37.0337 16.138 37.0337C17.0701 37.0337 17.9102 36.6328 18.4955 35.9945C19.1071 36.746 20.0034 37.1758 20.9721 37.1758C21.8989 37.1758 22.7347 36.7791 23.3195 36.1471C23.9246 36.8037 24.7629 37.1758 25.6641 37.1758C26.629 37.1758 27.4948 36.7459 28.0819 36.068C28.6914 36.7743 29.5613 37.1758 30.4983 37.1758C31.4251 37.1758 32.2609 36.7791 32.8457 36.1471C33.4508 36.8037 34.2891 37.1758 35.1902 37.1758C36.1552 37.1758 37.0209 36.7459 37.608 36.068C38.2175 36.7743 39.0874 37.1758 40.0245 37.1758C40.6963 37.1763 41.3511 36.9641 41.895 36.5696C41.9378 36.6351 41.9818 36.7007 42.0299 36.7637L42.033 36.7679C42.6452 37.5692 43.5713 38.0288 44.5743 38.0288C44.9913 38.0288 45.3894 37.9477 45.755 37.8021C45.7611 37.8263 45.7672 37.8507 45.7745 37.8752C45.7957 37.9463 45.8204 38.0157 45.8459 38.0833C45.8545 38.1076 45.8634 38.1318 45.872 38.1532C45.9009 38.2252 45.9334 38.297 45.9698 38.3701C45.9772 38.3857 45.9847 38.4012 45.9923 38.416C46.0321 38.4935 46.0754 38.5699 46.1203 38.642C46.1238 38.6479 46.1307 38.6588 46.1343 38.6647C46.1838 38.7432 46.2379 38.8213 46.2954 38.8965L46.2986 38.9007C46.9107 39.702 47.8368 40.1616 48.8398 40.1616C48.8709 40.1616 48.9016 40.1602 48.9326 40.1592C48.9185 40.2777 48.9112 40.397 48.9107 40.5164C48.9107 40.6208 48.9161 40.7273 48.9266 40.832C48.9307 40.8739 48.9367 40.9152 48.9455 40.9698L48.9483 40.9905C48.9551 41.04 48.9625 41.0893 48.9717 41.1357C48.9826 41.1915 48.9962 41.2459 49.0105 41.3004L49.0184 41.3308C49.0263 41.3635 49.0349 41.3962 49.0446 41.429C49.0658 41.5002 49.0905 41.5695 49.116 41.6371C49.1246 41.6614 49.1336 41.6857 49.1421 41.707C49.1711 41.7791 49.2035 41.8508 49.24 41.924C49.2473 41.9396 49.2548 41.9552 49.2625 41.97C49.3022 42.0474 49.3455 42.1238 49.3904 42.1959C49.3939 42.2019 49.4009 42.2128 49.4044 42.2186C49.4539 42.2971 49.508 42.3752 49.5655 42.4504L49.5687 42.4547C50.1809 43.256 51.1069 43.7156 52.1099 43.7156C52.6241 43.7156 53.1101 43.5929 53.5412 43.3763L48.253 48.6644C48.1787 48.7389 48.1082 48.8169 48.0416 48.8983C48.0148 48.931 47.9896 48.9648 47.965 48.9989L47.9432 49.0282C47.9136 49.0673 47.8845 49.1067 47.8578 49.1463C47.8264 49.1932 47.7977 49.2411 47.7696 49.2895L47.7544 49.315C47.7364 49.3446 47.7189 49.3745 47.7035 49.403C47.6691 49.4674 47.637 49.533 47.6073 49.5997C47.5957 49.6239 47.5842 49.6486 47.5758 49.6688C47.5468 49.7368 47.52 49.807 47.4904 49.8944C47.4841 49.912 47.4779 49.9297 47.4749 49.9396C47.448 50.0229 47.4247 50.1072 47.4049 50.1924C47.403 50.1999 47.4005 50.2102 47.3991 50.2166C47.3791 50.3043 47.3626 50.3953 47.35 50.4873L47.3487 50.4966C47.2943 50.8973 47.3158 51.3046 47.4121 51.6972C47.3602 51.6804 47.3089 51.6623 47.2559 51.6479L47.2226 51.6391C47.1497 51.6199 47.076 51.6034 47.0019 51.5896C46.9716 51.584 46.9412 51.5791 46.9106 51.5749L46.8722 51.5691C46.8218 51.5615 46.7714 51.5544 46.7237 51.5499C46.6236 51.5401 46.5231 51.5351 46.4225 51.535C45.8898 51.5353 45.3655 51.6684 44.8972 51.9225C44.4916 52.1435 44.1385 52.4496 43.8621 52.8198C43.4436 52.2618 42.8453 51.8391 42.1372 51.6478L42.1039 51.639C42.031 51.6198 41.9574 51.6033 41.8833 51.5895C41.853 51.5839 41.8225 51.579 41.792 51.5748L41.7536 51.569C41.7032 51.5613 41.6528 51.5543 41.6051 51.5498C41.505 51.54 41.4045 51.535 41.3039 51.5349C40.9454 51.5349 40.5894 51.5971 40.2524 51.7145C40.2548 51.3201 40.1889 50.9283 40.0575 50.5564C40.0469 50.5273 40.0357 50.4984 40.024 50.4697C39.9767 50.346 39.922 50.2253 39.8599 50.1083C39.8183 50.0295 39.7736 49.9524 39.7259 49.8772L39.7182 49.8648C39.7008 49.8365 39.6831 49.8085 39.664 49.7802C39.5971 49.6809 39.525 49.5853 39.4481 49.4936C38.8139 48.6931 38.3964 47.5944 37.9546 46.4315C37.2005 44.4467 36.3458 42.197 34.1159 41.2054C33.4777 40.9216 32.7614 40.7572 31.9873 40.7163C31.8474 40.7088 31.7074 40.729 31.5754 40.7757C31.4433 40.8224 31.3218 40.8947 31.2177 40.9884C31.1136 41.0821 31.029 41.1954 30.9687 41.3218C30.9084 41.4482 30.8736 41.5853 30.8664 41.7252C30.8515 42.0076 30.9495 42.2843 31.1387 42.4945C31.3279 42.7047 31.5928 42.8312 31.8752 42.8461C32.3952 42.8734 32.8446 42.9741 33.2494 43.1541C34.6676 43.7848 35.2958 45.4382 35.9609 47.1889C36.4434 48.4591 36.9423 49.7724 37.7897 50.8347L37.7911 50.8365L37.8127 50.8626C37.8395 50.8944 37.8681 50.9321 37.8945 50.9708L37.9222 51.0154C37.9484 51.0564 37.9721 51.0988 37.9935 51.1425C38.0084 51.1734 38.0217 51.205 38.0346 51.2382L38.0513 51.2797C38.2131 51.7464 38.0931 52.2719 37.7443 52.6208C37.2691 53.096 36.4968 53.1261 35.9862 52.6895C35.9769 52.6816 35.9676 52.6739 35.9582 52.6664C34.8955 51.8186 33.5809 51.3199 32.3097 50.8378C29.8746 49.9142 28.3138 49.2196 28.0144 47.2064L30.6746 44.5461C31.0911 44.1296 31.0911 43.4544 30.6746 43.0381C30.5756 42.9391 30.4581 42.8605 30.3287 42.8069C30.1994 42.7533 30.0607 42.7258 29.9207 42.7258C29.7806 42.7258 29.642 42.7533 29.5126 42.8069C29.3832 42.8605 29.2657 42.9391 29.1667 43.0381L26.1506 46.0541C26.0449 46.1598 25.9626 46.2865 25.9091 46.426C25.8555 46.5656 25.8319 46.7148 25.8397 46.8641C26.0439 50.7421 29.0986 51.9009 31.5532 52.832C32.7165 53.2732 33.8156 53.69 34.616 54.324C35.2525 54.8614 36.0396 55.1271 36.8255 55.1271C37.2626 55.1271 37.6989 55.0442 38.1088 54.8809C38.1115 54.9373 38.1154 54.9937 38.121 55.0497C38.1251 55.0917 38.1311 55.1329 38.1398 55.1875L38.1427 55.2083C38.1495 55.2577 38.1568 55.3071 38.1661 55.3535C38.177 55.4093 38.1906 55.4636 38.2049 55.5181L38.2127 55.5486C38.2207 55.5813 38.2293 55.614 38.239 55.6468C38.2602 55.7179 38.2849 55.7873 38.3104 55.8549C38.319 55.8792 38.3279 55.9034 38.3365 55.9248C38.3655 55.9968 38.3979 56.0686 38.4343 56.1417C38.4417 56.1573 38.4492 56.1729 38.4568 56.1876C38.4966 56.2651 38.5399 56.3415 38.5848 56.4136C38.5883 56.4195 38.5952 56.4304 38.5988 56.4363C38.6483 56.5148 38.7023 56.5929 38.7599 56.6681L38.7631 56.6723C39.3752 57.4736 40.3013 57.9332 41.3043 57.9332C42.3507 57.9332 43.2813 57.4282 43.8654 56.6492C43.8701 56.6553 43.8738 56.662 43.8785 56.6681L43.8817 56.6723C44.4939 57.4736 45.4199 57.9332 46.4229 57.9332C48.1869 57.9332 49.622 56.4982 49.622 54.7341C49.6219 54.4747 49.5899 54.2162 49.5268 53.9646C49.8462 54.0689 50.18 54.1224 50.516 54.1232C51.3353 54.1232 52.1544 53.8114 52.7781 53.1877L58.8437 47.1221C60.0069 45.9589 60.0757 44.1208 59.0044 42.8449C58.9421 42.7713 58.8769 42.7002 58.8089 42.6318ZM41.3033 55.801C40.9739 55.801 40.668 55.6498 40.4568 55.3778L40.4536 55.3736C40.4367 55.3513 40.4206 55.3283 40.4054 55.3047L40.3984 55.2935C40.3842 55.2711 40.3709 55.2481 40.3586 55.2247L40.3484 55.2035C40.3378 55.1823 40.3275 55.1608 40.3174 55.137L40.3059 55.1053C40.2978 55.0846 40.2904 55.0637 40.2837 55.0426L40.2668 54.9765C40.2635 54.9639 40.26 54.9516 40.2587 54.9471L40.2412 54.8288C40.2232 54.6213 40.2663 54.413 40.365 54.2296C40.4638 54.0462 40.614 53.8957 40.7972 53.7965C40.9524 53.7118 41.1266 53.6677 41.3034 53.6684C41.3323 53.6684 41.3637 53.6702 41.3995 53.6736L41.4949 53.6875C41.5198 53.6921 41.5441 53.6981 41.5704 53.705L41.5819 53.7079C42.0458 53.8341 42.3698 54.2561 42.3698 54.7348C42.3697 55.3227 41.8914 55.801 41.3033 55.801ZM46.4218 55.801C46.0924 55.801 45.7866 55.6498 45.5753 55.3778L45.5721 55.3736C45.5365 55.3266 45.5048 55.2768 45.4772 55.2247C45.4737 55.2176 45.4703 55.2106 45.467 55.2035C45.4564 55.1823 45.4461 55.1608 45.4361 55.137L45.4246 55.1053C45.4164 55.0846 45.409 55.0637 45.4023 55.0426L45.3854 54.9765C45.3821 54.9639 45.3786 54.9516 45.3773 54.9471L45.3599 54.8288C45.3419 54.6213 45.3849 54.413 45.4837 54.2296C45.5824 54.0462 45.7326 53.8957 45.9158 53.7965C46.0711 53.7118 46.2452 53.6677 46.4221 53.6684C46.4509 53.6684 46.4823 53.6702 46.5182 53.6736L46.6136 53.6875C46.6384 53.6921 46.6628 53.6981 46.689 53.705L46.7005 53.7079C47.1645 53.8341 47.4885 54.2561 47.4885 54.7348C47.4881 55.3227 47.0099 55.801 46.4218 55.801ZM56.5659 33.4978C56.5908 33.5023 56.6152 33.5083 56.6513 33.5177C57.1161 33.6434 57.4407 34.0658 57.4407 34.5452C57.4407 35.1331 56.9625 35.6114 56.3745 35.6114C56.045 35.6114 55.7392 35.4602 55.5279 35.1882L55.5247 35.184C55.5078 35.1616 55.4917 35.1387 55.4766 35.1151L55.4695 35.1038C55.4554 35.0814 55.4421 35.0585 55.4297 35.035C55.4262 35.028 55.4228 35.0209 55.4195 35.0138C55.4089 34.9926 55.3986 34.9712 55.3884 34.9474L55.377 34.9156C55.3688 34.895 55.3614 34.8741 55.3547 34.8529L55.3378 34.7868C55.3345 34.7743 55.331 34.762 55.3297 34.7574L55.3209 34.6955L55.3123 34.6393C55.2942 34.4318 55.3372 34.2235 55.436 34.04C55.5348 33.8566 55.685 33.7061 55.8682 33.6069C56.0234 33.5221 56.1976 33.4781 56.3745 33.4788C56.4033 33.4788 56.4347 33.4805 56.4705 33.4839L56.5659 33.4978ZM55.4753 28.7919L55.5707 28.8058C55.5994 28.8112 55.6278 28.8179 55.656 28.8257C56.1209 28.9515 56.4455 29.3738 56.4455 29.8532C56.4455 30.4412 55.9672 30.9194 55.3791 30.9194C55.0496 30.9194 54.7438 30.7682 54.5325 30.4963L54.5293 30.492C54.4937 30.445 54.462 30.3952 54.4344 30.3431C54.431 30.336 54.4276 30.329 54.4242 30.3219C54.4137 30.3007 54.4034 30.2792 54.3933 30.2554L54.3818 30.2237C54.3736 30.203 54.3662 30.1821 54.3595 30.161L54.3427 30.0949C54.3394 30.0823 54.3359 30.07 54.3346 30.0655L54.3171 29.9472C54.2991 29.7397 54.3421 29.5314 54.4409 29.348C54.5396 29.1646 54.6899 29.0141 54.873 28.9149C55.057 28.8146 55.2667 28.7718 55.4753 28.7919ZM55.0587 42.0617C54.9806 42.1026 54.9048 42.149 54.8298 42.1968C54.8723 42.1283 54.9118 42.058 54.9492 41.9861C54.9853 42.0119 55.0218 42.0373 55.0587 42.0617ZM53.3088 24.5073C53.4641 24.4225 53.6382 24.3785 53.8151 24.3792C53.8439 24.3792 53.8753 24.3809 53.9112 24.3843L54.0101 24.3989C54.0336 24.4033 54.0574 24.4093 54.0919 24.4181C54.5566 24.5438 54.8814 24.9663 54.8814 25.4456C54.8814 26.0336 54.4031 26.5119 53.8151 26.5119C53.4857 26.5119 53.1798 26.3607 52.9685 26.0887L52.9654 26.0845C52.9298 26.0375 52.898 25.9877 52.8704 25.9355C52.867 25.9285 52.8636 25.9214 52.8602 25.9143C52.8497 25.8931 52.8394 25.8717 52.8292 25.8479L52.8177 25.8161C52.8095 25.7955 52.8021 25.7746 52.7954 25.7534L52.7786 25.6873C52.7753 25.6748 52.7718 25.6625 52.7705 25.6579L52.753 25.5397C52.735 25.3322 52.7779 25.1239 52.8767 24.9404C52.9754 24.757 53.1256 24.6065 53.3088 24.5073ZM51.034 20.2419C51.1892 20.1571 51.3634 20.1131 51.5402 20.1138C51.5691 20.1138 51.6005 20.1155 51.6363 20.1189L51.7352 20.1335C51.7588 20.1379 51.7826 20.1439 51.817 20.1527C52.2818 20.2784 52.6065 20.7009 52.6065 21.1802C52.6065 21.7682 52.1283 22.2466 51.5401 22.2466C51.2107 22.2466 50.9048 22.0954 50.6936 21.8234L50.6904 21.8192C50.6548 21.7722 50.6231 21.7224 50.5955 21.6703C50.592 21.6632 50.5886 21.6561 50.5853 21.6491C50.5747 21.6279 50.5644 21.6064 50.5543 21.5826L50.5429 21.5509C50.5347 21.5302 50.5273 21.5093 50.5206 21.4882L50.5037 21.4221C50.5004 21.4095 50.4969 21.3972 50.4956 21.3927L50.4782 21.2744C50.4601 21.0669 50.5031 20.8586 50.6018 20.6751C50.7006 20.4917 50.8508 20.3411 51.034 20.2419ZM48.3326 16.403C48.4878 16.3183 48.662 16.2742 48.8388 16.275C48.8677 16.275 48.8991 16.2767 48.9349 16.2801L49.0338 16.2946C49.0574 16.2991 49.0812 16.3051 49.1156 16.3139C49.5805 16.4396 49.9051 16.862 49.9051 17.3414C49.9051 17.9294 49.4269 18.4078 48.8388 18.4078C48.5094 18.4078 48.2036 18.2566 47.9923 17.9846L47.9891 17.9804C47.9722 17.958 47.9561 17.9351 47.9409 17.9115L47.9339 17.9002C47.9198 17.8778 47.9065 17.8549 47.8941 17.8314C47.8906 17.8244 47.8872 17.8173 47.8839 17.8102C47.8733 17.789 47.863 17.7676 47.8528 17.7438L47.8413 17.712C47.8332 17.6914 47.8258 17.6705 47.8191 17.6493L47.8022 17.5832C47.7989 17.5707 47.7954 17.5584 47.7941 17.5538L47.7766 17.4356C47.7586 17.228 47.8016 17.0197 47.9004 16.8363C47.9992 16.6528 48.1494 16.5023 48.3326 16.403ZM45.2046 12.8485C45.3598 12.7638 45.534 12.7197 45.7109 12.7204C45.7397 12.7204 45.7711 12.7222 45.807 12.7256L45.9023 12.7395C45.9272 12.7441 45.9516 12.7501 45.9877 12.7595C46.4525 12.8852 46.7771 13.3075 46.7771 13.787C46.7771 14.375 46.2989 14.8532 45.7107 14.8532C45.3813 14.8532 45.0755 14.7021 44.8642 14.4301L44.861 14.4259C44.8254 14.3788 44.7937 14.329 44.7661 14.2769C44.7626 14.2699 44.7592 14.2628 44.7559 14.2557C44.7453 14.2345 44.735 14.213 44.725 14.1893L44.7135 14.1575C44.7053 14.1369 44.6979 14.116 44.6912 14.0948L44.6743 14.0287C44.6711 14.0162 44.6675 14.0039 44.6663 13.9993L44.6488 13.8811C44.6307 13.6735 44.6736 13.4652 44.7724 13.2817C44.8712 13.0983 45.0214 12.9477 45.2046 12.8485ZM41.6501 9.72055C41.8053 9.63581 41.9795 9.59175 42.1563 9.59246C42.1852 9.59246 42.2166 9.59422 42.2524 9.59762L42.3478 9.61156C42.3727 9.61613 42.397 9.62211 42.4331 9.63148C42.8979 9.75699 43.2226 10.1796 43.2226 10.6589C43.2226 11.2469 42.7444 11.7253 42.1562 11.7253C41.8268 11.7253 41.5209 11.5741 41.3097 11.3021L41.3065 11.2979C41.2709 11.2509 41.2391 11.2011 41.2116 11.1489C41.2081 11.1419 41.2047 11.1348 41.2014 11.1277C41.1908 11.1065 41.1805 11.0851 41.1703 11.0613L41.1588 11.0295C41.1507 11.0089 41.1433 10.988 41.1366 10.9668L41.1197 10.9007C41.1164 10.8882 41.1129 10.8759 41.1116 10.8713L41.0941 10.7531C41.0761 10.5455 41.1191 10.3372 41.2179 10.1538C41.3167 9.97035 41.4669 9.81977 41.6501 9.72055ZM37.5268 7.16129C37.6821 7.07655 37.8562 7.03249 38.0331 7.0332C38.0619 7.0332 38.0933 7.03496 38.1292 7.03836L38.2246 7.0523C38.2494 7.05687 38.2738 7.06285 38.3099 7.07223C38.7747 7.19773 39.0994 7.62031 39.0994 8.09961C39.0994 8.68766 38.6211 9.16602 38.0331 9.16602C37.7037 9.16602 37.3978 9.01484 37.1865 8.74285L37.1834 8.73863C37.1664 8.71629 37.1504 8.6933 37.1352 8.66973L37.1282 8.65848C37.114 8.63607 37.1007 8.61312 37.0883 8.58969L37.0781 8.56848C37.0676 8.54727 37.0573 8.52582 37.0472 8.50203L37.0357 8.47027C37.0276 8.44964 37.0201 8.42873 37.0134 8.40758L36.9966 8.34148C36.9933 8.32895 36.9898 8.31664 36.9885 8.31207L36.971 8.19383C36.9529 7.98628 36.9959 7.77797 37.0947 7.59452C37.1934 7.41108 37.3436 7.26049 37.5268 7.16129ZM33.2614 5.02859C33.4167 4.94386 33.5908 4.89979 33.7677 4.90051C33.7965 4.90051 33.8279 4.90227 33.8638 4.90566L33.9592 4.91961C33.984 4.92418 34.0084 4.93016 34.0445 4.93953C34.5093 5.06504 34.834 5.48762 34.834 5.96691C34.834 6.55496 34.3557 7.0332 33.7676 7.0332C33.4382 7.0332 33.1323 6.88203 32.921 6.61004L32.9179 6.60582C32.8823 6.55881 32.8505 6.509 32.8229 6.45688C32.8195 6.44983 32.8161 6.44276 32.8127 6.43566C32.8022 6.41445 32.7919 6.39301 32.7817 6.36922L32.7702 6.33746C32.762 6.31683 32.7546 6.29592 32.7479 6.27477L32.7311 6.20867C32.7278 6.19613 32.7243 6.18383 32.723 6.17926L32.7142 6.11738L32.7055 6.06113C32.6875 5.85357 32.7305 5.64527 32.8293 5.46183C32.928 5.27838 33.0782 5.1278 33.2614 5.02859ZM28.7118 3.60688C28.867 3.52214 29.0412 3.47807 29.218 3.47879C29.2468 3.47879 29.2782 3.48055 29.3141 3.48395L29.4095 3.49789C29.4343 3.50246 29.4587 3.50844 29.4948 3.51781C29.9596 3.64332 30.2843 4.0659 30.2843 4.5452C30.2843 5.13324 29.8061 5.61148 29.2179 5.61148C28.8885 5.61148 28.5826 5.46031 28.3713 5.18832L28.3682 5.1841C28.3326 5.13709 28.3008 5.08728 28.2732 5.03516C28.2698 5.0281 28.2664 5.02103 28.263 5.01395C28.2525 4.99273 28.2422 4.97129 28.232 4.9475L28.2205 4.91574C28.2124 4.89511 28.2049 4.8742 28.1982 4.85305L28.1814 4.78695C28.1781 4.77441 28.1746 4.76211 28.1733 4.75754L28.1645 4.69566L28.1558 4.63941C28.1378 4.43185 28.1808 4.22353 28.2795 4.04009C28.3783 3.85664 28.5285 3.70606 28.7118 3.60688ZM24.162 2.6116C24.3172 2.52687 24.4913 2.4828 24.6682 2.48352C24.697 2.48352 24.7284 2.48527 24.7643 2.48867L24.8597 2.50262C24.8845 2.50719 24.9089 2.51316 24.945 2.52254C25.4098 2.64805 25.7345 3.07063 25.7345 3.54992C25.7345 4.13797 25.2563 4.61633 24.6681 4.61633C24.3387 4.61633 24.0328 4.46516 23.8215 4.19316L23.8184 4.18895C23.7828 4.14193 23.751 4.09212 23.7234 4.04C23.72 4.03295 23.7166 4.02588 23.7132 4.01879C23.7027 3.99758 23.6924 3.97613 23.6822 3.95234L23.6707 3.92059C23.6626 3.89995 23.6551 3.87904 23.6484 3.85789L23.6316 3.7918C23.6283 3.77926 23.6248 3.76695 23.6235 3.76238L23.606 3.64414C23.588 3.43658 23.631 3.22828 23.7298 3.04483C23.8285 2.86139 23.9788 2.71081 24.162 2.6116ZM19.47 2.32719C19.6252 2.24245 19.7994 2.19839 19.9762 2.1991C20.0051 2.1991 20.0365 2.20086 20.0723 2.20426L20.1677 2.2182C20.1926 2.22277 20.217 2.22875 20.253 2.23813C20.7178 2.36363 21.0425 2.78621 21.0425 3.26551C21.0425 3.85355 20.5643 4.3318 19.9762 4.3318C19.6468 4.3318 19.341 4.18063 19.1297 3.90863L19.1265 3.90441C19.0909 3.8574 19.0592 3.80759 19.0316 3.75547C19.0282 3.74841 19.0248 3.74134 19.0214 3.73426C19.0109 3.71305 19.0005 3.6916 18.9904 3.66781L18.9789 3.63605C18.9707 3.61542 18.9633 3.59451 18.9566 3.57336L18.9397 3.50727C18.9364 3.49473 18.9329 3.48242 18.9316 3.47785L18.9142 3.35961C18.8961 3.15207 18.9391 2.94378 19.0378 2.76035C19.1366 2.57692 19.2868 2.42636 19.47 2.32719ZM14.6359 2.6116C14.7911 2.52687 14.9653 2.4828 15.1421 2.48352C15.171 2.48352 15.2024 2.48527 15.2382 2.48867L15.3336 2.50262C15.3585 2.50719 15.3829 2.51316 15.4189 2.52254C15.8837 2.64805 16.2084 3.07063 16.2084 3.54992C16.2084 4.13797 15.7302 4.61633 15.142 4.61633C14.8126 4.61633 14.5068 4.46516 14.2955 4.19316L14.2923 4.18895C14.2567 4.14193 14.225 4.09212 14.1974 4.04C14.1939 4.03295 14.1905 4.02588 14.1872 4.01879C14.1766 3.99758 14.1663 3.97613 14.1562 3.95234L14.1448 3.92059C14.1366 3.89995 14.1292 3.87904 14.1225 3.85789L14.1056 3.7918C14.1023 3.77926 14.0988 3.76695 14.0975 3.76238L14.0887 3.70051L14.0801 3.64426C14.062 3.43669 14.1049 3.22835 14.2037 3.04487C14.3024 2.8614 14.4527 2.7108 14.6359 2.6116ZM10.2282 4.45988C10.3835 4.37515 10.5576 4.33108 10.7345 4.3318C10.7633 4.3318 10.7947 4.33355 10.8306 4.33695L10.926 4.3509C10.9508 4.35547 10.9752 4.36145 11.0113 4.37082C11.4761 4.49633 11.8008 4.91891 11.8008 5.3982C11.8008 5.98625 11.3225 6.46449 10.7345 6.46449C10.4051 6.46449 10.0992 6.31332 9.88793 6.04133L9.88477 6.03711C9.86784 6.01477 9.85177 5.99178 9.8366 5.9682L9.82957 5.95695C9.81541 5.93454 9.80212 5.9116 9.78973 5.88816C9.78628 5.88112 9.78288 5.87405 9.77953 5.86695C9.76898 5.84574 9.75867 5.8243 9.74859 5.80051L9.73711 5.76875C9.72896 5.74812 9.72153 5.72721 9.71484 5.70605L9.69797 5.63996C9.69469 5.62742 9.69117 5.61512 9.68988 5.61055L9.68109 5.54867L9.67242 5.49242C9.65435 5.28487 9.69733 5.07656 9.79608 4.89312C9.89483 4.70967 10.045 4.55909 10.2282 4.45988ZM6.53156 7.30356C6.6868 7.21882 6.86096 7.17475 7.03781 7.17547C7.06664 7.17547 7.09805 7.17723 7.13391 7.18062L7.2293 7.19457C7.25414 7.19914 7.27852 7.20512 7.31461 7.21449C7.77938 7.34 8.1041 7.76258 8.1041 8.24187C8.1041 8.82992 7.62586 9.30828 7.03781 9.30828C6.7084 9.30828 6.40254 9.15711 6.19125 8.88512L6.18809 8.8809C6.15249 8.83388 6.12075 8.78407 6.09316 8.73195C6.08974 8.7249 6.08634 8.71782 6.08297 8.71074C6.07242 8.68953 6.06211 8.66809 6.05191 8.6443L6.04043 8.61254C6.03228 8.59191 6.02486 8.57099 6.01816 8.54984L6.00129 8.48375C5.99801 8.47121 5.99449 8.45891 5.9932 8.45434L5.98441 8.39246L5.97574 8.33621C5.95763 8.12864 6.00059 7.9203 6.09934 7.73683C6.1981 7.55335 6.34833 7.40275 6.53156 7.30356ZM3.97242 11.2845C4.12766 11.1998 4.30182 11.1557 4.47867 11.1564C4.5075 11.1564 4.53891 11.1582 4.57477 11.1616L4.67016 11.1755C4.695 11.1801 4.71938 11.1861 4.75547 11.1955C5.22023 11.321 5.54496 11.7436 5.54496 12.2229C5.54496 12.8109 5.06672 13.2893 4.47855 13.2893C4.14914 13.2893 3.84328 13.1381 3.63199 12.8661L3.62883 12.8619C3.59323 12.8149 3.56149 12.7651 3.53391 12.7129C3.53048 12.7059 3.52708 12.6988 3.52371 12.6917C3.51316 12.6705 3.50285 12.6491 3.49266 12.6253L3.48117 12.5935C3.47302 12.5729 3.4656 12.552 3.45891 12.5308L3.44203 12.4647C3.43875 12.4522 3.43523 12.4399 3.43395 12.4353L3.42516 12.3734L3.41648 12.3172C3.3984 12.1096 3.44138 11.9013 3.54016 11.7178C3.63893 11.5343 3.78918 11.3837 3.97242 11.2845ZM2.24414 17.0991C2.23359 17.0779 2.22328 17.0565 2.21309 17.0327L2.2016 17.0009C2.19345 16.9803 2.18603 16.9594 2.17934 16.9382L2.16246 16.8721C2.15918 16.8596 2.15566 16.8473 2.15438 16.8427L2.14559 16.7809L2.13691 16.7246C2.11887 16.5171 2.16188 16.3088 2.26065 16.1253C2.35942 15.9419 2.50965 15.7914 2.69285 15.6922C2.84809 15.6075 3.02225 15.5634 3.1991 15.5641C3.22793 15.5641 3.25934 15.5659 3.2952 15.5693L3.39059 15.5832C3.41543 15.5878 3.4398 15.5938 3.4759 15.6031C3.94066 15.7286 4.26539 16.1512 4.26539 16.6305C4.26539 17.2186 3.78715 17.6969 3.19898 17.6969C2.86957 17.6969 2.56371 17.5457 2.35242 17.2738L2.34926 17.2695C2.31366 17.2225 2.28192 17.1727 2.25434 17.1206C2.2507 17.1126 2.24625 17.1036 2.24414 17.0991ZM2.49469 22.1077L2.49152 22.1035C2.45593 22.0565 2.42418 22.0067 2.3966 21.9546C2.39315 21.9475 2.38976 21.9405 2.38641 21.9334C2.37586 21.9121 2.36555 21.8907 2.35547 21.8669L2.34398 21.8352C2.33637 21.8144 2.3284 21.7937 2.32184 21.7727L2.30496 21.7066C2.30203 21.6957 2.29898 21.6847 2.29629 21.6737L2.27941 21.5591C2.26129 21.3515 2.30425 21.1431 2.403 20.9596C2.50175 20.7761 2.65199 20.6255 2.83523 20.5263C2.99047 20.4416 3.16463 20.3975 3.34148 20.3982C3.37031 20.3982 3.40172 20.4 3.43758 20.4034L3.53297 20.4173C3.55781 20.4219 3.58219 20.4279 3.61828 20.4372C4.08305 20.5627 4.40777 20.9853 4.40777 21.4646C4.40777 22.0527 3.92953 22.5309 3.34137 22.5309C3.01184 22.5309 2.70598 22.3797 2.49469 22.1077ZM4.90523 27.0806C4.57582 27.0806 4.26996 26.9294 4.05867 26.6574L4.05551 26.6532C4.01991 26.6062 3.98817 26.5564 3.96059 26.5043C3.95714 26.4972 3.95374 26.4901 3.95039 26.483C3.93984 26.4618 3.92953 26.4404 3.91945 26.4166L3.90797 26.3848C3.89982 26.3642 3.89239 26.3433 3.8857 26.3221L3.86883 26.2561C3.86555 26.2435 3.86203 26.2312 3.86074 26.2266L3.84328 26.1084C3.82526 25.9009 3.86828 25.6926 3.96705 25.5092C4.06582 25.3258 4.21603 25.1753 4.39922 25.0761C4.55445 24.9914 4.72861 24.9473 4.90547 24.948C4.9343 24.948 4.9657 24.9498 5.00156 24.9532L5.09695 24.9671C5.1218 24.9717 5.14617 24.9777 5.18227 24.987C5.64703 25.1125 5.97176 25.5351 5.97176 26.0144C5.97152 26.6023 5.49328 27.0806 4.90523 27.0806ZM7.89094 30.7773C7.56152 30.7773 7.25566 30.6261 7.04437 30.3541L7.04121 30.3499C7.00561 30.3029 6.97387 30.2531 6.94629 30.2009C6.94286 30.1939 6.93947 30.1868 6.93609 30.1797C6.92555 30.1585 6.91523 30.1371 6.90516 30.1133L6.89367 30.0815C6.88552 30.0609 6.8781 30.04 6.87141 30.0188L6.85453 29.9527C6.85125 29.9402 6.84773 29.9279 6.84645 29.9233L6.82898 29.8051C6.81097 29.5976 6.85399 29.3893 6.95276 29.2059C7.05153 29.0225 7.20174 28.8719 7.38492 28.7728C7.54016 28.688 7.71432 28.644 7.89117 28.6447C7.92 28.6447 7.95141 28.6464 7.98727 28.6498L8.08266 28.6638C8.1075 28.6684 8.13188 28.6743 8.15812 28.6813L8.16961 28.6843C8.63355 28.8104 8.95746 29.2324 8.95746 29.7111C8.95734 30.299 8.4791 30.7773 7.89094 30.7773ZM11.7299 33.4787C11.4005 33.4787 11.0946 33.3275 10.8833 33.0555L10.8802 33.0513C10.8446 33.0043 10.8128 32.9545 10.7852 32.9023C10.7818 32.8953 10.7784 32.8882 10.775 32.8811C10.7645 32.8599 10.7542 32.8385 10.744 32.8147L10.7325 32.7829C10.7244 32.7623 10.7169 32.7414 10.7102 32.7202L10.6934 32.6541C10.6901 32.6416 10.6866 32.6293 10.6853 32.6247L10.6678 32.5065C10.6498 32.299 10.6928 32.0907 10.7916 31.9073C10.8904 31.7239 11.0406 31.5733 11.2238 31.4742C11.379 31.3894 11.5531 31.3454 11.73 31.3461C11.7588 31.3461 11.7902 31.3479 11.8261 31.3512L11.9215 31.3652C11.9463 31.3698 11.9707 31.3757 11.997 31.3827L12.0084 31.3856C12.4724 31.5117 12.7963 31.9337 12.7963 32.4124C12.7962 33.0004 12.3179 33.4787 11.7299 33.4787ZM16.1374 34.9005C15.808 34.9005 15.5021 34.7493 15.2909 34.4773L15.2877 34.4731C15.2521 34.4261 15.2204 34.3763 15.1928 34.3242C15.1893 34.3171 15.1859 34.3101 15.1826 34.303C15.172 34.2818 15.1617 34.2603 15.1515 34.2365L15.14 34.2048C15.1319 34.1841 15.1245 34.1632 15.1178 34.1421L15.1009 34.076C15.0976 34.0634 15.0941 34.0511 15.0928 34.0466L15.0754 33.9283C15.0573 33.7208 15.1004 33.5125 15.1991 33.3291C15.2979 33.1457 15.4481 32.9952 15.6313 32.896C15.7865 32.8113 15.9607 32.7672 16.1375 32.7679C16.1664 32.7679 16.1978 32.7697 16.2336 32.7731L16.329 32.787C16.3539 32.7916 16.3782 32.7976 16.4045 32.8045L16.416 32.8074C16.8799 32.9336 17.2039 33.3556 17.2039 33.8343C17.2038 34.4223 16.7255 34.9005 16.1374 34.9005ZM20.9715 35.0427C20.6421 35.0427 20.3363 34.8915 20.125 34.6195L20.1218 34.6153C20.0862 34.5683 20.0545 34.5184 20.0269 34.4663L20.0167 34.4451C20.0061 34.4239 19.9958 34.4025 19.9857 34.3787L19.9743 34.3469C19.9661 34.3263 19.9587 34.3054 19.952 34.2842L19.9351 34.2181C19.9318 34.2056 19.9283 34.1933 19.927 34.1887L19.9096 34.0705C19.8916 33.8629 19.9346 33.6547 20.0333 33.4713C20.1321 33.2879 20.2823 33.1373 20.4655 33.0382C20.6207 32.9534 20.7949 32.9094 20.9718 32.9101C21.0006 32.9101 21.032 32.9118 21.0679 32.9152L21.1632 32.9292C21.1881 32.9338 21.2125 32.9397 21.2387 32.9466L21.2502 32.9496C21.7141 33.0758 22.0382 33.4978 22.0382 33.9765C22.0379 34.5644 21.5596 35.0427 20.9715 35.0427ZM25.6635 35.0427C25.3341 35.0427 25.0282 34.8915 24.8169 34.6195L24.8138 34.6153C24.7782 34.5683 24.7464 34.5184 24.7188 34.4663C24.7154 34.4593 24.712 34.4522 24.7086 34.4451C24.6981 34.4239 24.6878 34.4025 24.6777 34.3787L24.6662 34.3469C24.6581 34.3263 24.6506 34.3054 24.6439 34.2842L24.6271 34.2181C24.6238 34.2056 24.6203 34.1933 24.619 34.1887L24.6015 34.0705C24.5835 33.8629 24.6265 33.6547 24.7253 33.4713C24.8241 33.2879 24.9743 33.1373 25.1575 33.0382C25.3127 32.9534 25.4869 32.9094 25.6637 32.9101C25.6925 32.9101 25.7239 32.9118 25.7598 32.9152L25.8552 32.9292C25.88 32.9338 25.9044 32.9397 25.9307 32.9466L25.9421 32.9496C26.4061 33.0758 26.7301 33.4978 26.7301 33.9765C26.7299 34.5644 26.2515 35.0427 25.6635 35.0427ZM30.4976 35.0427C30.1682 35.0427 29.8623 34.8915 29.651 34.6195L29.6479 34.6153C29.6123 34.5683 29.5805 34.5184 29.5529 34.4663C29.5495 34.4593 29.5461 34.4522 29.5427 34.4451C29.5322 34.4239 29.5219 34.4025 29.5117 34.3787L29.5002 34.3469C29.492 34.3263 29.4846 34.3054 29.4779 34.2842L29.4611 34.2181C29.4578 34.2056 29.4543 34.1933 29.453 34.1887L29.4355 34.0705C29.4175 33.8629 29.4605 33.6547 29.5593 33.4713C29.658 33.2879 29.8083 33.1373 29.9914 33.0382C30.1467 32.9534 30.3208 32.9094 30.4977 32.9101C30.5265 32.9101 30.5579 32.9118 30.5938 32.9152L30.6892 32.9292C30.714 32.9338 30.7384 32.9397 30.7646 32.9466L30.7761 32.9496C31.2401 33.0758 31.5641 33.4978 31.5641 33.9765C31.564 34.5644 31.0857 35.0427 30.4976 35.0427ZM35.1895 35.0427C34.8601 35.0427 34.5543 34.8915 34.343 34.6195L34.3398 34.6153C34.3042 34.5683 34.2725 34.5184 34.2449 34.4663C34.2414 34.4593 34.238 34.4522 34.2347 34.4451C34.2241 34.4239 34.2138 34.4025 34.2036 34.3787L34.1922 34.3469C34.184 34.3263 34.1766 34.3054 34.1699 34.2842L34.153 34.2181C34.1497 34.2056 34.1462 34.1933 34.1449 34.1887L34.1275 34.0705C34.1094 33.8629 34.1525 33.6547 34.2512 33.4713C34.35 33.2879 34.5002 33.1373 34.6834 33.0382C34.8386 32.9534 35.0128 32.9094 35.1896 32.9101C35.2185 32.9101 35.2499 32.9118 35.2857 32.9152L35.3811 32.9292C35.406 32.9338 35.4304 32.9397 35.4566 32.9466L35.4681 32.9496C35.932 33.0758 36.2561 33.4978 36.2561 33.9765C36.2559 34.5644 35.7776 35.0427 35.1895 35.0427ZM40.0238 35.0427C39.6943 35.0427 39.3885 34.8915 39.1772 34.6195L39.174 34.6153C39.1571 34.5929 39.141 34.5699 39.1259 34.5464L39.1188 34.5351C39.1047 34.5127 39.0914 34.4898 39.079 34.4663L39.0688 34.4451C39.0582 34.4239 39.0479 34.4025 39.0378 34.3787L39.0264 34.3469C39.0182 34.3263 39.0108 34.3054 39.0041 34.2842L38.9872 34.2181C38.9839 34.2056 38.9804 34.1933 38.9791 34.1887L38.9617 34.0705C38.9437 33.8629 38.9867 33.6547 39.0854 33.4713C39.1842 33.2879 39.3344 33.1373 39.5176 33.0382C39.6729 32.9534 39.847 32.9094 40.0239 32.9101C40.0527 32.9101 40.0841 32.9118 40.12 32.9152L40.2154 32.9292C40.2402 32.9338 40.2646 32.9397 40.2908 32.9466L40.3023 32.9496C40.7663 33.0758 41.0903 33.4978 41.0903 33.9765C41.09 34.5644 40.6118 35.0427 40.0238 35.0427ZM44.5734 35.8958C44.244 35.8958 43.9382 35.7446 43.7269 35.4726L43.7237 35.4684C43.7068 35.446 43.6907 35.423 43.6755 35.3995L43.6685 35.3882C43.6544 35.3658 43.6411 35.3429 43.6287 35.3195L43.6185 35.2982C43.6079 35.277 43.5976 35.2556 43.5875 35.2318L43.5761 35.2C43.5679 35.1794 43.5605 35.1585 43.5538 35.1373L43.5369 35.0713C43.5336 35.0587 43.5301 35.0464 43.5288 35.0418L43.5114 34.9236C43.4934 34.7161 43.5364 34.5078 43.6351 34.3244C43.7339 34.141 43.8841 33.9905 44.0673 33.8913C44.2225 33.8066 44.3967 33.7625 44.5736 33.7632C44.6024 33.7632 44.6338 33.765 44.6696 33.7684L44.765 33.7823C44.7899 33.7869 44.8143 33.7929 44.8405 33.7998L44.852 33.8028C45.3159 33.929 45.64 34.351 45.64 34.8297C45.6398 35.4175 45.1615 35.8958 44.5734 35.8958ZM48.8388 38.0286C48.5094 38.0285 48.2036 37.8773 47.9923 37.6053L47.9891 37.6011C47.9535 37.5541 47.9218 37.5043 47.8942 37.4521C47.8907 37.4451 47.8873 37.438 47.884 37.4309C47.8734 37.4097 47.8631 37.3883 47.853 37.3645L47.8416 37.3327C47.8334 37.3121 47.826 37.2912 47.8193 37.27L47.8024 37.2039C47.7991 37.1914 47.7956 37.1791 47.7943 37.1745L47.7769 37.0563C47.7589 36.8488 47.8019 36.6405 47.9007 36.4571C47.9994 36.2737 48.1496 36.1232 48.3328 36.024C48.488 35.9392 48.6622 35.8952 48.8391 35.8959C48.8679 35.8959 48.8993 35.8977 48.9352 35.9011L49.0305 35.915C49.0554 35.9196 49.0798 35.9255 49.1159 35.9349C49.5807 36.0607 49.9054 36.483 49.9054 36.9624C49.9052 37.5504 49.4269 38.0286 48.8388 38.0286ZM52.1091 41.583C51.7796 41.583 51.4738 41.4318 51.2625 41.1598L51.2593 41.1556C51.2237 41.1086 51.192 41.0588 51.1644 41.0067C51.161 40.9996 51.1576 40.9926 51.1542 40.9855C51.1437 40.9643 51.1334 40.9428 51.1233 40.919L51.1118 40.8873C51.1036 40.8666 51.0962 40.8457 51.0895 40.8246L51.0727 40.7585C51.0694 40.7459 51.0659 40.7336 51.0646 40.7291L51.0471 40.6108C51.0291 40.4033 51.0721 40.195 51.1709 40.0116C51.2696 39.8282 51.4199 39.6777 51.603 39.5785C51.7583 39.4938 51.9324 39.4497 52.1093 39.4504C52.1381 39.4504 52.1695 39.4522 52.2054 39.4556L52.3008 39.4695C52.3256 39.4741 52.35 39.4801 52.3763 39.487L52.3877 39.4899C52.8517 39.6161 53.1757 40.0381 53.1757 40.5168C53.1754 41.1046 52.6971 41.583 52.1091 41.583ZM52.9425 37.4305L52.9092 37.4217C52.8363 37.4025 52.7627 37.386 52.6886 37.3722C52.6582 37.3666 52.6278 37.3617 52.5973 37.3575L52.5588 37.3517C52.5084 37.344 52.458 37.337 52.4104 37.3325C52.3103 37.3227 52.2098 37.3177 52.1092 37.3176C52.0786 37.3176 52.048 37.3196 52.0174 37.3204C52.0307 37.2027 52.038 37.0832 52.038 36.9622C52.038 35.5215 51.0652 34.2523 49.6794 33.8779L49.6389 33.8673C49.5659 33.8481 49.4923 33.8316 49.4182 33.8178C49.3879 33.8122 49.3575 33.8072 49.3269 33.803L49.2885 33.7973C49.2381 33.7896 49.1877 33.7825 49.14 33.7781C49.0399 33.7683 48.9394 33.7633 48.8388 33.7632C48.4342 33.7632 48.0322 33.8411 47.6579 33.9898C47.3638 32.9163 46.5202 32.0443 45.4066 31.7432L45.3734 31.7345C45.3004 31.7153 45.2268 31.6988 45.1527 31.685C45.1224 31.6793 45.0919 31.6744 45.0614 31.6702L45.023 31.6645C44.9726 31.6568 44.9222 31.6497 44.8745 31.6453C44.7744 31.6354 44.6739 31.6305 44.5733 31.6304C44.0406 31.6306 43.5163 31.7638 43.048 32.0178C42.9288 32.083 42.8138 32.1556 42.7038 32.2353C42.2843 31.5917 41.6365 31.1008 40.8567 30.8901L40.8234 30.8813C40.7505 30.8622 40.6769 30.8457 40.6028 30.8319C40.5725 30.8262 40.542 30.8213 40.5115 30.8171L40.473 30.8114C40.4227 30.8036 40.3723 30.7966 40.3246 30.7921C40.2245 30.7823 40.124 30.7774 40.0234 30.7773C39.4906 30.7775 38.9664 30.9106 38.4981 31.1647C38.1591 31.3494 37.8563 31.5938 37.6042 31.8861C37.1968 31.4159 36.6534 31.0607 36.0221 30.8901L35.9889 30.8813C35.9159 30.8622 35.8423 30.8457 35.7682 30.8319C35.7379 30.8262 35.7075 30.8213 35.6769 30.8171L35.6385 30.8114C35.5881 30.8036 35.5377 30.7966 35.49 30.7921C35.3899 30.7823 35.2894 30.7774 35.1888 30.7773C34.6561 30.7775 34.1318 30.9106 33.6635 31.1647C33.3561 31.3321 33.0782 31.5486 32.8409 31.8058C32.4333 31.3647 31.9097 31.0473 31.3301 30.8902L31.2968 30.8814C31.2239 30.8623 31.1503 30.8458 31.0761 30.832C31.0458 30.8263 31.0154 30.8214 30.9848 30.8172L30.9464 30.8115C30.896 30.8039 30.8456 30.7967 30.7979 30.7923C30.6978 30.7824 30.5973 30.7775 30.4968 30.7774C29.964 30.7776 29.4397 30.9108 28.9714 31.1648C28.6326 31.3495 28.3299 31.5938 28.0779 31.8861C27.6705 31.4159 27.1271 31.0607 26.4959 30.8901L26.4626 30.8813C26.3897 30.8622 26.316 30.8457 26.2419 30.8319C26.2116 30.8262 26.1812 30.8213 26.1506 30.8171L26.1122 30.8114C26.0618 30.8037 26.0114 30.7966 25.9637 30.7921C25.8636 30.7823 25.7631 30.7774 25.6625 30.7773C25.1298 30.7775 24.6055 30.9106 24.1372 31.1647C23.8298 31.3321 23.552 31.5486 23.3146 31.8058C22.9071 31.3647 22.3834 31.0473 21.8038 30.8902L21.7705 30.8814C21.6976 30.8623 21.624 30.8458 21.5498 30.832C21.5195 30.8263 21.4891 30.8214 21.4586 30.8172L21.4201 30.8115C21.3697 30.8038 21.3193 30.7967 21.2716 30.7923C21.1716 30.7824 21.071 30.7775 20.9705 30.7774C20.4377 30.7776 19.9134 30.9108 19.4452 31.1648C19.1333 31.3345 18.8518 31.5547 18.6121 31.8166C18.1989 31.3105 17.6327 30.9273 16.9695 30.748L16.9362 30.7392C16.8632 30.72 16.7896 30.7035 16.7155 30.6897C16.6852 30.6841 16.6548 30.6791 16.6242 30.675L16.5858 30.6692C16.5354 30.6615 16.485 30.6545 16.4373 30.65C16.3372 30.6402 16.2367 30.6352 16.1361 30.6351C15.6034 30.6353 15.0791 30.7685 14.6108 31.0225L14.6064 31.0252C14.2111 30.2097 13.4786 29.574 12.5617 29.3261L12.5284 29.3173C12.4555 29.2982 12.3819 29.2817 12.3077 29.2679C12.2774 29.2622 12.247 29.2573 12.2164 29.2531L12.178 29.2474C12.1287 29.2395 12.0792 29.2331 12.0295 29.2282C11.9294 29.2183 11.8289 29.2134 11.7284 29.2133C11.5023 29.2133 11.2775 29.2388 11.0575 29.2862C10.8875 28.0266 9.97664 26.9635 8.72273 26.6246L8.68945 26.6158C8.61653 26.5966 8.54292 26.5801 8.46879 26.5664C8.43848 26.5607 8.40804 26.5558 8.3775 26.5516L8.33906 26.5459C8.28867 26.5382 8.23828 26.5311 8.19059 26.5266C8.14807 26.5227 8.10549 26.5196 8.06285 26.5173C8.08929 26.351 8.10261 26.183 8.1027 26.0146C8.1027 24.7059 7.29844 23.5409 6.11227 23.0574C6.39206 22.5733 6.53916 22.024 6.53871 21.4648C6.53871 20.4825 6.0859 19.5805 5.35863 18.9869C5.99613 18.4017 6.39656 17.5623 6.39656 16.6307C6.39656 16.0616 6.24281 15.5205 5.97375 15.0494C6.98555 14.5115 7.67625 13.4468 7.67625 12.2232C7.67625 11.939 7.63699 11.6619 7.56562 11.3967C8.97891 11.1602 10.0805 9.99699 10.2213 8.55559C10.3894 8.58266 10.5607 8.59731 10.7345 8.59731C12.1356 8.59731 13.3283 7.69156 13.76 6.4352C14.1912 6.64242 14.6636 6.74969 15.142 6.74902C16.1764 6.74902 17.0972 6.2552 17.6822 5.49125C18.2829 6.11387 19.1002 6.46461 19.9761 6.46461C20.8361 6.46461 21.6172 6.12301 22.1926 5.56906C22.8042 6.31965 23.7 6.74902 24.6681 6.74902C25.3142 6.74963 25.9451 6.55351 26.477 6.18676C26.4844 6.19918 26.4909 6.21266 26.4984 6.22461C26.502 6.23059 26.5089 6.24148 26.5124 6.24734C26.562 6.32586 26.616 6.40391 26.6735 6.47914L26.6767 6.48336C27.2889 7.28469 28.2149 7.7443 29.2179 7.7443C29.7963 7.74499 30.3639 7.58777 30.8595 7.28961C30.8726 7.31785 30.8835 7.34586 30.8977 7.37445C30.905 7.39004 30.9125 7.40562 30.9202 7.42039C30.9599 7.49785 31.0032 7.57426 31.0481 7.64633C31.0516 7.6523 31.0586 7.6632 31.0621 7.66906C31.1133 7.75016 31.1681 7.82891 31.2264 7.90508C31.8386 8.70641 32.7646 9.16602 33.7676 9.16602C34.1846 9.16602 34.5827 9.08492 34.9484 8.93926C34.9545 8.96352 34.9605 8.98789 34.9678 9.01238C34.989 9.08352 35.0138 9.15289 35.0392 9.22051C35.0479 9.24477 35.0568 9.26902 35.0653 9.29035C35.0943 9.36242 35.1267 9.43414 35.1632 9.50727C35.1705 9.52285 35.178 9.53844 35.1857 9.5532C35.2254 9.63066 35.2687 9.70707 35.3136 9.77914C35.3171 9.78512 35.3241 9.79602 35.3276 9.80188C35.3771 9.88039 35.4313 9.95844 35.4887 10.0337L35.4919 10.0379C36.1041 10.8392 37.0301 11.2988 38.0331 11.2988C38.3603 11.299 38.6857 11.2488 38.9977 11.15C39.0037 11.1936 39.0103 11.2374 39.0184 11.2784C39.0293 11.3342 39.0429 11.3886 39.0572 11.4431L39.065 11.4736C39.073 11.5063 39.0816 11.5389 39.0913 11.5718C39.1125 11.6429 39.1372 11.7123 39.1627 11.7799C39.1713 11.8041 39.1802 11.8284 39.1888 11.8497C39.2177 11.9218 39.2502 11.9935 39.2866 12.0666C39.294 12.0822 39.3015 12.0978 39.3091 12.1126C39.3486 12.1896 39.3913 12.265 39.4371 12.3385C39.4406 12.3445 39.4475 12.3554 39.4511 12.3612C39.5006 12.4398 39.5546 12.5178 39.6122 12.593L39.6154 12.5973C40.2275 13.3986 41.1536 13.8582 42.1566 13.8582C42.2771 13.8582 42.3961 13.8508 42.5133 13.8379C42.5147 13.9261 42.5191 14.0151 42.5279 14.103C42.532 14.145 42.538 14.1862 42.5468 14.2408L42.5496 14.2616C42.5564 14.311 42.5638 14.3604 42.573 14.4068C42.5839 14.4625 42.5975 14.5169 42.6118 14.5714L42.6197 14.6019C42.6277 14.6346 42.6362 14.6673 42.6459 14.7001C42.6671 14.7712 42.6919 14.8406 42.7173 14.9082C42.726 14.9325 42.7349 14.9567 42.7434 14.978C42.7725 15.0501 42.8048 15.1218 42.8413 15.195C42.8487 15.2105 42.8562 15.2261 42.8638 15.2409C42.9035 15.3184 42.9469 15.3948 42.9918 15.4668C42.9953 15.4728 43.0022 15.4837 43.0057 15.4896C43.0553 15.5681 43.1093 15.6461 43.1668 15.7214L43.17 15.7256C43.772 16.5137 44.678 16.9702 45.6618 16.9851C45.6479 17.1036 45.6407 17.2227 45.6402 17.342C45.6402 17.4464 45.6456 17.553 45.6561 17.6575C45.6602 17.6995 45.6662 17.7407 45.675 17.7954L45.6778 17.8161C45.6846 17.8655 45.692 17.9149 45.7013 17.9613C45.7122 18.0171 45.7257 18.0714 45.74 18.1259L45.7479 18.1564C45.7559 18.1891 45.7644 18.2218 45.7741 18.2546C45.7953 18.3257 45.8201 18.3951 45.8455 18.4627C45.8542 18.4871 45.8631 18.5112 45.8716 18.5326C45.9006 18.6046 45.933 18.6764 45.9695 18.7496C45.9769 18.7652 45.9844 18.7808 45.992 18.7955C46.0315 18.8726 46.0742 18.948 46.12 19.0215C46.1235 19.0275 46.1304 19.0384 46.1339 19.0442C46.1835 19.1227 46.2375 19.2008 46.295 19.276L46.2982 19.2802C46.8224 19.9665 47.5773 20.401 48.413 20.5121C48.3657 20.7317 48.3418 20.9557 48.3416 21.1803C48.3416 21.2847 48.347 21.3913 48.3575 21.4959C48.3616 21.5379 48.3676 21.5791 48.3764 21.6337L48.3792 21.6545C48.386 21.7039 48.3934 21.7532 48.4027 21.7996C48.4136 21.8554 48.4272 21.9098 48.4414 21.9643L48.4493 21.9948C48.4573 22.0275 48.4658 22.0602 48.4755 22.093C48.4968 22.1641 48.5215 22.2335 48.5469 22.3011C48.5556 22.3254 48.5645 22.3496 48.573 22.3709C48.602 22.443 48.6345 22.5147 48.6709 22.5879C48.6783 22.6034 48.6858 22.619 48.6934 22.6338C48.7331 22.7113 48.7765 22.7877 48.8214 22.8597C48.8249 22.8657 48.8318 22.8766 48.8353 22.8825C48.8849 22.961 48.9389 23.039 48.9964 23.1143L48.9996 23.1185C49.4638 23.7262 50.1088 24.1367 50.8308 24.3C50.6896 24.6655 50.6169 25.0539 50.6166 25.4457C50.6166 25.5501 50.622 25.6566 50.6325 25.7613C50.6366 25.8032 50.6426 25.8445 50.6514 25.8991L50.6542 25.9198C50.661 25.9693 50.6684 26.0186 50.6776 26.065C50.6885 26.1208 50.7021 26.1752 50.7164 26.2297L50.7243 26.2602C50.7322 26.2929 50.7408 26.3255 50.7505 26.3584C50.7717 26.4295 50.7964 26.4989 50.8219 26.5665C50.8305 26.5907 50.8395 26.615 50.848 26.6363C50.8771 26.7084 50.9094 26.7801 50.9459 26.8532C50.9532 26.8688 50.9607 26.8844 50.9684 26.8992C51.0081 26.9766 51.0514 27.053 51.0963 27.1251C51.0998 27.1311 51.1068 27.142 51.1103 27.1479C51.1598 27.2264 51.2139 27.3044 51.2714 27.3796L51.2746 27.3839C51.6137 27.8279 52.0494 28.1663 52.541 28.3804C52.3043 28.8353 52.1806 29.3405 52.1805 29.8532C52.1805 29.9577 52.1859 30.0643 52.1965 30.1688C52.2006 30.2108 52.2066 30.252 52.2154 30.3066L52.2182 30.3274C52.225 30.3768 52.2323 30.4262 52.2416 30.4726C52.2525 30.5284 52.2661 30.5827 52.2804 30.6372L52.2882 30.6677C52.2962 30.7004 52.3048 30.7331 52.3145 30.7659C52.3357 30.837 52.3604 30.9064 52.3859 30.974C52.3945 30.9984 52.4034 31.0225 52.412 31.0439C52.4409 31.1159 52.4734 31.1877 52.5098 31.2608C52.5172 31.2764 52.5247 31.292 52.5323 31.3067C52.5721 31.3842 52.6154 31.4606 52.6603 31.5327C52.6638 31.5386 52.6707 31.5495 52.6743 31.5554C52.7238 31.6339 52.7779 31.712 52.8354 31.7872L52.8386 31.7914C53.1012 32.1367 53.4309 32.4253 53.8079 32.64C53.3979 33.1906 53.1763 33.8587 53.1759 34.5452C53.1759 34.6496 53.1813 34.7561 53.1919 34.8608C53.196 34.9027 53.202 34.944 53.2107 34.9988L53.2136 35.0193C53.2204 35.0688 53.2277 35.1181 53.237 35.1645C53.2479 35.2203 53.2615 35.2747 53.2758 35.3292L53.2836 35.3596C53.2916 35.3923 53.3002 35.425 53.3099 35.4579C53.3311 35.529 53.3558 35.5984 53.3812 35.666C53.3899 35.6902 53.3988 35.7145 53.4074 35.7358C53.4364 35.8079 53.4688 35.8796 53.5052 35.9527C53.5126 35.9683 53.5201 35.9839 53.5277 35.9987C53.5675 36.0761 53.6108 36.1525 53.6557 36.2246C53.6592 36.2306 53.6661 36.2415 53.6696 36.2473C53.7192 36.3259 53.7732 36.4039 53.8308 36.4791L53.8339 36.4834C54.0308 36.7412 54.2605 36.9629 54.5145 37.1461C54.2925 37.3727 54.1055 37.6311 53.9596 37.9128C53.6518 37.6931 53.3074 37.5297 52.9425 37.4305ZM57.3345 45.6144L51.2687 51.68C50.8529 52.0958 50.1765 52.0958 49.7607 51.68C49.5262 51.4455 49.4171 51.1197 49.4609 50.7855L49.4614 50.7811C49.4654 50.7518 49.4703 50.7228 49.4767 50.6937L49.4797 50.6813C49.4856 50.6565 49.4918 50.6318 49.5011 50.6021L49.5077 50.5828C49.5152 50.5604 49.523 50.5381 49.5332 50.5133L49.5473 50.4832C49.5565 50.4631 49.5654 50.4427 49.5765 50.4219L49.6105 50.3647L49.6253 50.3386L49.6971 50.2419C49.718 50.2168 49.7397 50.1932 49.7609 50.1719L55.793 44.1398C56.2089 43.7243 56.8852 43.724 57.3011 44.1398C57.3233 44.1621 57.3443 44.1856 57.364 44.2094L57.3689 44.2154C57.7302 44.6449 57.7158 45.233 57.3345 45.6144ZM56.8011 40.4457C56.4716 40.4456 56.1657 40.2944 55.9545 40.0224L55.9513 40.0182C55.9318 39.9923 55.9134 39.9655 55.8962 39.938C55.882 39.9156 55.8688 39.8927 55.8564 39.8693C55.8529 39.8622 55.8495 39.8551 55.8462 39.848C55.8356 39.8268 55.8253 39.8054 55.8152 39.7816L55.8037 39.7498C55.7956 39.7292 55.7882 39.7083 55.7815 39.6871L55.7646 39.6211C55.7613 39.6085 55.7578 39.5962 55.7565 39.5916L55.7391 39.4734C55.721 39.2659 55.7641 39.0576 55.8628 38.8742C55.9616 38.6908 56.1118 38.5403 56.295 38.4411C56.4502 38.3564 56.6244 38.3123 56.8013 38.313C56.8301 38.313 56.8615 38.3148 56.8973 38.3182L56.9927 38.3321C57.0176 38.3367 57.042 38.3427 57.0682 38.3496L57.0797 38.3525C57.5436 38.4787 57.8677 38.9007 57.8677 39.3794C57.8674 39.9673 57.3892 40.4457 56.8011 40.4457Z" fill="#2C6E4A"/>
</svg>
