<svg width="60" height="58" viewBox="0 0 60 58" fill="none" xmlns="http://www.w3.org/2000/svg">
<path d="M59.9993 31.1388L59.9995 31.1229C59.9995 31.1159 60 31.1093 60 31.1023V8.17747C60.0002 7.56142 59.8499 6.95464 59.5623 6.40986C59.2747 5.86508 58.8584 5.39878 58.3495 5.0515C57.5335 4.49425 56.5319 4.27847 55.5588 4.45033L50.2436 0.463966C50.2279 0.452247 50.2115 0.442286 50.1954 0.431388C50.1846 0.424122 50.1741 0.416388 50.1631 0.409474C50.1339 0.391575 50.1039 0.37511 50.0732 0.360138C50.0705 0.358849 50.0681 0.357208 50.0654 0.355919C50.0306 0.339233 49.9949 0.324522 49.9585 0.311857C49.9556 0.310919 49.9528 0.310333 49.9501 0.309396C49.9179 0.298386 49.885 0.289038 49.8518 0.281388C49.842 0.279161 49.8322 0.277638 49.8224 0.275646C49.7836 0.267269 49.7443 0.26163 49.7047 0.258771C49.6813 0.256779 49.6579 0.255372 49.6346 0.254786C49.5973 0.253815 49.56 0.255145 49.5229 0.258771C49.5085 0.26006 49.4942 0.260997 49.4799 0.262872C49.4536 0.266366 49.4276 0.270862 49.4017 0.276349C49.3933 0.277989 49.3848 0.278693 49.3765 0.280685L38.1174 2.87814C35.8441 3.40147 33.7706 4.57093 32.1467 6.24563C31.2731 7.14453 30.5443 8.17362 29.9865 9.29614C28.3946 6.10032 25.4356 3.70361 21.8587 2.87802L10.5996 0.28045C10.5912 0.278458 10.5826 0.277755 10.5743 0.276114C10.5484 0.270694 10.5224 0.266199 10.4962 0.262638C10.4818 0.260763 10.4675 0.259825 10.4531 0.258536C10.4306 0.256508 10.4081 0.255179 10.3855 0.254552C10.3476 0.253924 10.3097 0.255175 10.2719 0.258302C10.2586 0.259474 10.2454 0.260529 10.2321 0.262286C10.2062 0.265633 10.1804 0.269972 10.1547 0.275294C10.1446 0.277403 10.1342 0.278927 10.124 0.281271C10.0916 0.28885 10.0596 0.298002 10.0281 0.308692C10.0246 0.309864 10.021 0.310685 10.0176 0.311739C9.98166 0.324396 9.94615 0.33881 9.91123 0.35545C9.9076 0.357091 9.9042 0.359435 9.90057 0.361192C9.87115 0.375724 9.84197 0.391427 9.8135 0.409005C9.80213 0.416036 9.79146 0.423888 9.78045 0.43127C9.76451 0.441934 9.74834 0.451778 9.73275 0.46338L4.49812 4.38962C4.0072 4.29244 3.50184 4.29409 3.01156 4.39447C2.52129 4.49486 2.05595 4.69196 1.64273 4.97427C1.13629 5.31999 0.721927 5.78415 0.435643 6.32641C0.149358 6.86867 -0.000186714 7.47263 1.74953e-07 8.08582V31.0366C1.74953e-07 34.1258 1.85871 36.8498 4.73519 37.9761L21.5395 44.5566L2.10269 52.1237V48.7755C2.10269 47.7399 2.78003 46.8454 3.7882 46.5499C5.93401 45.921 7.89971 44.8769 9.63104 43.4465C9.73923 43.3591 9.82903 43.2512 9.89521 43.1289C9.96139 43.0065 10.0027 42.8723 10.0166 42.7339C10.0306 42.5956 10.0169 42.4558 9.97647 42.3228C9.93604 42.1897 9.8696 42.066 9.78102 41.9588C9.69244 41.8516 9.58347 41.763 9.46042 41.6982C9.33737 41.6334 9.20269 41.5937 9.06417 41.5813C8.92565 41.5689 8.78606 41.5841 8.65346 41.626C8.52086 41.668 8.3979 41.7358 8.2917 41.8256C6.78163 43.0733 5.0673 43.9839 3.19663 44.5322C1.31461 45.0838 1.74953e-07 46.8288 1.74953e-07 48.7755V53.6612C-0.000155913 54.3155 0.159347 54.9599 0.464668 55.5386C0.769989 56.1173 1.2119 56.6127 1.75207 56.9819C2.29204 57.3513 2.91401 57.5834 3.56401 57.658C4.21401 57.7326 4.87239 57.6475 5.48202 57.4099L29.9982 47.8657L54.5189 57.4683C55.1277 57.707 55.7856 57.7933 56.4354 57.7197C57.0852 57.6462 57.7072 57.415 58.2472 57.0463C58.7875 56.6779 59.2296 56.1831 59.5351 55.6049C59.8406 55.0267 60.0001 54.3826 59.9999 53.7286C59.9999 53.7196 59.998 53.7109 59.9978 53.702C59.9984 53.6884 59.9999 53.6751 59.9999 53.6614V48.7826C59.9999 46.8334 58.6823 45.0877 56.7959 44.537C54.1372 43.7613 51.7447 42.2077 49.9347 40.108L55.2599 38.0347C58.1279 36.918 59.9848 34.2138 59.9993 31.1388ZM55.6022 29.1184C55.6052 29.1171 55.6082 29.1155 55.6113 29.1143C55.6334 29.1055 55.6547 29.0955 55.6758 29.0852C55.6867 29.08 55.6978 29.0751 55.7085 29.0695C55.7264 29.06 55.7438 29.0496 55.7611 29.039C55.7741 29.0312 55.7873 29.0238 55.7999 29.0155C55.8133 29.0067 55.826 28.9968 55.8389 28.9875C55.854 28.9764 55.8695 28.9655 55.8839 28.9538C55.8938 28.9459 55.9028 28.9371 55.9124 28.9288C55.9286 28.9146 55.9447 28.9006 55.9599 28.8856C55.9685 28.8771 55.9764 28.8678 55.9847 28.859C55.9992 28.8434 56.0141 28.8281 56.0277 28.8118C56.0377 28.7998 56.0466 28.7871 56.0561 28.7748C56.0667 28.7607 56.0777 28.747 56.0876 28.7326C56.0994 28.7155 56.1098 28.6974 56.1205 28.6796C56.1268 28.6691 56.1336 28.6589 56.1396 28.6481C56.1512 28.6271 56.1615 28.6053 56.1717 28.5835C56.1757 28.575 56.1803 28.5666 56.1839 28.5582C56.1932 28.5368 56.2011 28.5147 56.209 28.4927C56.2126 28.4826 56.2167 28.4728 56.22 28.4626C56.2262 28.4435 56.2311 28.4238 56.2362 28.4042C56.2398 28.39 56.244 28.3761 56.2471 28.3618C56.2505 28.3461 56.2528 28.3302 56.2555 28.3142C56.2588 28.295 56.2621 28.2759 56.2643 28.2566C56.2657 28.2443 56.2663 28.2316 56.2672 28.219C56.2691 28.1959 56.2705 28.1727 56.2707 28.1495C56.2707 28.1461 56.2713 28.1428 56.2713 28.1394V6.49559C56.5843 6.50544 56.8916 6.60212 57.1637 6.78786C57.63 7.10637 57.8973 7.61286 57.8973 8.17747V30.3834L31.0394 40.8367V39.0981C32.1635 38.8754 33.3361 38.2899 34.7076 37.2773L55.6022 29.1184ZM29.9881 35.9989C30.7522 35.9989 31.4944 36.1427 32.1884 36.4192C31.3602 36.8839 30.6521 37.1007 29.9881 37.1007C29.3241 37.1007 28.6161 36.884 27.7878 36.4192C28.4878 36.1405 29.2346 35.9979 29.9881 35.9989ZM25.6451 35.1669L6.85241 27.8291L10.6172 24.8709L21.3859 27.3552C23.2648 27.7878 24.9786 28.7544 26.3208 30.1387C27.384 31.2327 28.1825 32.5556 28.6552 34.006C27.5851 34.1834 26.5669 34.5757 25.6451 35.1669ZM50.7467 25.9612C50.9315 26.107 51.1601 26.1861 51.3955 26.1859C51.6142 26.186 51.8276 26.118 52.0058 25.9912C52.184 25.8644 52.3182 25.6852 52.3898 25.4785C52.4613 25.2718 52.4666 25.048 52.4049 24.8381C52.3433 24.6283 52.2177 24.4429 52.0457 24.3078L50.664 23.2222V3.40771L54.1685 6.03599V27.421L34.3309 35.167C33.4092 34.5758 32.391 34.1837 31.3211 34.006C31.8025 32.5287 32.6218 31.1841 33.714 30.0789C35.0478 28.7265 36.7391 27.7817 38.5901 27.3552L49.3589 24.8708L50.7467 25.9612ZM5.80757 6.03599L9.31205 3.40771V5.5104C9.31204 5.64846 9.33922 5.78517 9.39205 5.91273C9.44487 6.04028 9.52231 6.15618 9.61993 6.25381C9.71756 6.35143 9.83346 6.42887 9.96101 6.48169C10.0886 6.53452 10.2253 6.5617 10.3633 6.56169C10.5014 6.5617 10.6381 6.53452 10.7657 6.48169C10.8932 6.42887 11.0091 6.35143 11.1067 6.25381C11.2044 6.15618 11.2818 6.04028 11.3346 5.91273C11.3875 5.78517 11.4146 5.64846 11.4146 5.5104V2.62642L21.386 4.92669C25.1832 5.80325 28.1368 8.82246 28.9367 12.6322V15.3226C28.9367 15.6014 29.0475 15.8688 29.2446 16.066C29.4418 16.2631 29.7092 16.3739 29.988 16.3739C30.2668 16.3739 30.5342 16.2631 30.7314 16.066C30.9285 15.8688 31.0393 15.6014 31.0393 15.3226V12.6316C31.4268 10.7763 32.3341 9.0694 33.6551 7.71024C34.9973 6.32602 36.711 5.35936 38.5899 4.92669L48.5613 2.62631V22.8968L38.1171 25.3063C35.2696 25.9622 32.7555 27.6262 31.0392 29.9912V25.135C31.0392 24.997 31.012 24.8603 30.9592 24.7327C30.9063 24.6052 30.8289 24.4893 30.7313 24.3916C30.6337 24.294 30.5178 24.2166 30.3902 24.1638C30.2626 24.1109 30.1259 24.0837 29.9879 24.0838C29.8498 24.0837 29.7131 24.1109 29.5855 24.1638C29.458 24.2166 29.3421 24.294 29.2445 24.3916C29.1468 24.4893 29.0694 24.6052 29.0166 24.7327C28.9638 24.8603 28.9366 24.997 28.9366 25.135V29.9916C28.5991 29.5268 28.229 29.0864 27.8293 28.6739C26.2053 26.9992 24.1318 25.8297 21.8585 25.3063L11.4144 22.8969V11.1175C11.4144 10.9794 11.3872 10.8427 11.3344 10.7151C11.2816 10.5876 11.2041 10.4717 11.1065 10.3741C11.0089 10.2764 10.893 10.199 10.7654 10.1462C10.6379 10.0933 10.5012 10.0662 10.3631 10.0662C10.225 10.0662 10.0883 10.0933 9.96078 10.1462C9.83322 10.199 9.71732 10.2764 9.6197 10.3741C9.52207 10.4717 9.44464 10.5876 9.39181 10.7151C9.33898 10.8427 9.3118 10.9794 9.31182 11.1175V23.2224L5.80733 25.9761V6.03599H5.80757ZM2.10269 30.3193V8.08582C2.10269 7.52708 2.3673 7.02575 2.82878 6.71052C3.08741 6.53287 3.39131 6.43258 3.70488 6.42141V28.1389C3.70488 28.1416 3.70546 28.1442 3.70546 28.1469C3.70593 28.1925 3.70886 28.2376 3.71519 28.2823C3.71613 28.289 3.71777 28.2957 3.7187 28.3024C3.72456 28.3398 3.73277 28.3767 3.74249 28.4131C3.74531 28.4236 3.748 28.4339 3.75105 28.4443C3.7637 28.4855 3.77812 28.526 3.79546 28.5655C3.79769 28.5704 3.80038 28.5752 3.80273 28.58C3.82356 28.6248 3.84748 28.6681 3.87433 28.7096C3.89741 28.7454 3.92214 28.7803 3.94945 28.8131L3.95038 28.8144C3.98535 28.8556 4.02348 28.894 4.06441 28.9293C4.09312 28.9544 4.12323 28.9782 4.15499 29.0002C4.16097 29.0045 4.16659 29.0089 4.1728 29.013C4.20972 29.0375 4.24839 29.06 4.28882 29.08C4.29151 29.0814 4.29386 29.0833 4.29655 29.0845C4.3064 29.0893 4.31671 29.0926 4.32667 29.0969C4.34237 29.1039 4.35749 29.1118 4.37378 29.1181L25.2686 37.2768C26.6399 38.2893 27.8126 38.8748 28.9368 39.0977V40.8326L2.10269 30.3193ZM47.8537 38.6617L47.8527 38.662L39.5355 41.8946C38.9943 42.1048 38.7261 42.7142 38.9365 43.2555C39.0376 43.5154 39.2377 43.7245 39.4928 43.8368C39.748 43.9492 40.0374 43.9556 40.2973 43.8547L47.8722 40.9107C49.9929 43.6054 52.9229 45.5972 56.207 46.5556C57.2181 46.8507 57.8975 47.7457 57.8975 48.7826V52.1878L35.9536 43.5933C35.4132 43.3816 34.803 43.6483 34.5912 44.1888C34.4896 44.4484 34.4952 44.7378 34.6068 44.9933C34.7185 45.2488 34.9271 45.4494 35.1866 45.5512L57.7789 54.3999C57.6444 54.7641 57.3988 55.0799 57.0622 55.3095C56.5315 55.6717 55.8837 55.7448 55.2859 55.5107L30.3883 45.7605C30.2896 45.722 30.1856 45.6988 30.0799 45.6917C29.9209 45.6785 29.761 45.7018 29.6124 45.7597L4.71937 55.4506C4.11913 55.6842 3.4705 55.6097 2.93894 55.2462C2.60191 55.0158 2.35593 54.6991 2.22128 54.3339L24.8114 45.5392C25.0085 45.4624 25.1779 45.3279 25.2974 45.1533C25.4169 44.9787 25.4809 44.7721 25.4811 44.5605C25.4813 44.3489 25.4177 44.1422 25.2985 43.9674C25.1794 43.7926 25.0102 43.6577 24.8132 43.5806L5.50183 36.0182C3.96714 35.4173 2.83746 34.1824 2.35781 32.6777L29.6046 43.353C29.6133 43.3565 29.6226 43.3588 29.6316 43.3621C29.6511 43.3692 29.6704 43.3762 29.6903 43.382C29.7037 43.386 29.7171 43.389 29.7305 43.3925C29.7493 43.3973 29.7679 43.4022 29.7871 43.406C29.8045 43.4094 29.8219 43.4115 29.8393 43.4139C29.855 43.4161 29.8704 43.419 29.8864 43.4205C29.9203 43.4238 29.9542 43.4256 29.9881 43.4256C30.022 43.4256 30.056 43.4238 30.0897 43.4205C30.1053 43.4191 30.1203 43.4163 30.1356 43.414C30.1533 43.4116 30.1712 43.4095 30.1886 43.406C30.2072 43.4023 30.2253 43.3975 30.2436 43.3931C30.2576 43.3895 30.2715 43.3865 30.2853 43.3823C30.3044 43.3767 30.323 43.37 30.3417 43.3634C30.3509 43.3601 30.3603 43.3577 30.3694 43.354L57.6434 32.7389C57.1639 34.2437 56.0331 35.4774 54.4967 36.0757L47.8537 38.6617Z" fill="#2C6E4A"/>
<path d="M27.9494 17.448C26.3012 15.7005 24.1949 14.4921 21.8581 13.953L14.805 12.3254C14.6701 12.2933 14.5301 12.2881 14.3932 12.3103C14.2563 12.3325 14.1252 12.3816 14.0073 12.4547C13.8894 12.5278 13.7872 12.6234 13.7065 12.7362C13.6257 12.849 13.5681 12.9766 13.5369 13.1118C13.5058 13.2469 13.5016 13.3869 13.5247 13.5236C13.5479 13.6604 13.5979 13.7912 13.6718 13.9085C13.7457 14.0259 13.8421 14.1275 13.9554 14.2074C14.0688 14.2873 14.1968 14.344 14.3321 14.3743L21.3853 16.0019C23.3164 16.4476 25.0571 17.4465 26.4197 18.8909C26.5179 18.9953 26.6365 19.0784 26.7681 19.1352C26.8996 19.1919 27.0415 19.2211 27.1848 19.2209C27.3901 19.2208 27.5908 19.1605 27.7622 19.0476C27.9337 18.9348 28.0683 18.7742 28.1496 18.5857C28.2309 18.3972 28.2553 18.1891 28.2197 17.9869C28.1841 17.7847 28.0902 17.5974 27.9494 17.448ZM27.9494 11.1399C26.3012 9.39242 24.1949 8.18398 21.8581 7.64492L14.805 6.01742C14.2392 5.88711 13.6747 6.23949 13.544 6.80539C13.4135 7.37117 13.7664 7.93578 14.3321 8.06609L21.3853 9.69371C23.3164 10.1394 25.0571 11.1383 26.4197 12.5827C26.5179 12.6871 26.6365 12.7702 26.7681 12.827C26.8996 12.8837 27.0415 12.9129 27.1848 12.9127C27.3901 12.9126 27.5908 12.8524 27.7622 12.7395C27.9337 12.6266 28.0684 12.4661 28.1497 12.2776C28.231 12.0891 28.2553 11.881 28.2197 11.6788C28.1842 11.4766 28.0902 11.2893 27.9494 11.1399ZM27.9494 23.7559C26.3012 22.0084 24.1949 20.7999 21.8581 20.2609L14.805 18.6332C14.2392 18.503 13.6747 18.8553 13.544 19.4212C13.4135 19.9871 13.7664 20.5517 14.3321 20.6821L21.3853 22.3098C23.3164 22.7554 25.0571 23.7543 26.4197 25.1988C26.5179 25.3031 26.6365 25.3863 26.7681 25.443C26.8996 25.4998 27.0415 25.529 27.1848 25.5288C27.3901 25.5286 27.5908 25.4684 27.7622 25.3555C27.9337 25.2426 28.0683 25.082 28.1496 24.8936C28.2309 24.7051 28.2553 24.4969 28.2197 24.2948C28.1841 24.0926 28.0902 23.9053 27.9494 23.7559ZM46.4321 6.8055C46.3015 6.23972 45.7367 5.88652 45.1712 6.01754L38.118 7.64515C35.7814 8.18445 33.675 9.39289 32.0269 11.1402C31.8861 11.2895 31.7921 11.4768 31.7565 11.679C31.7209 11.8811 31.7453 12.0893 31.8266 12.2778C31.9078 12.4662 32.0425 12.6268 32.214 12.7396C32.3854 12.8525 32.5861 12.9127 32.7914 12.9128C32.9347 12.9131 33.0765 12.8839 33.2081 12.8271C33.3397 12.7704 33.4582 12.6872 33.5564 12.5828C34.9189 11.1383 36.6597 10.1394 38.5909 9.69382L45.644 8.06621C45.9157 8.00348 46.1513 7.83544 46.2991 7.59902C46.4469 7.36261 46.4947 7.07719 46.4321 6.8055ZM46.4321 13.1135C46.3015 12.5477 45.7367 12.1948 45.1712 12.3255L38.118 13.9531C35.7814 14.4924 33.675 15.7009 32.0269 17.4481C31.8861 17.5975 31.7921 17.7848 31.7565 17.987C31.7209 18.1891 31.7453 18.3972 31.8266 18.5857C31.9078 18.7742 32.0425 18.9348 32.214 19.0476C32.3854 19.1605 32.5861 19.2207 32.7914 19.2208C32.9347 19.221 33.0765 19.1919 33.2081 19.1351C33.3397 19.0783 33.4582 18.9952 33.5564 18.8908C34.9189 17.4462 36.6597 16.4473 38.5909 16.0018L45.644 14.3742C46.2097 14.2437 46.5626 13.6793 46.4321 13.1135ZM46.4321 19.4214C46.3015 18.8555 45.7367 18.5028 45.1712 18.6335L38.118 20.2611C35.7814 20.8004 33.675 22.0088 32.0269 23.7561C31.8861 23.9055 31.7921 24.0928 31.7565 24.2949C31.7209 24.4971 31.7453 24.7052 31.8266 24.8937C31.9078 25.0822 32.0425 25.2427 32.214 25.3556C32.3854 25.4684 32.5861 25.5286 32.7914 25.5288C32.9347 25.529 33.0765 25.4998 33.2081 25.4431C33.3397 25.3863 33.4582 25.3032 33.5564 25.1988C34.9189 23.7542 36.6597 22.7553 38.5909 22.3098L45.644 20.6821C46.2097 20.5517 46.5626 19.9872 46.4321 19.4214Z" fill="#2C6E4A"/>
</svg>
