<svg width="60" height="60" viewBox="0 0 60 60" fill="none" xmlns="http://www.w3.org/2000/svg">
<path d="M58.2001 0.18457H13.3837C13.0676 0.184553 12.7643 0.30925 12.5396 0.531576C12.3149 0.753901 12.187 1.0559 12.1837 1.37197L11.7787 41.4952H1.8001C1.48184 41.4952 1.17661 41.6216 0.951569 41.8466C0.726526 42.0717 0.600098 42.3769 0.600098 42.6952V48.9526C0.600098 54.6922 4.9915 59.3944 10.5271 59.7778C10.6189 59.8 10.7131 59.815 10.8115 59.815H48.1603C48.2281 59.815 48.2941 59.806 48.3589 59.7952C48.4891 59.8 48.6163 59.815 48.7471 59.815C54.6217 59.815 59.4001 54.9418 59.4001 48.9526V1.38457C59.4001 1.06631 59.2737 0.761086 59.0486 0.536042C58.8236 0.310999 58.5184 0.18457 58.2001 0.18457ZM11.2531 57.415C6.7021 57.415 3.0001 53.6188 3.0001 48.9526V43.8952H38.0881V48.9526C38.0848 50.5707 38.4412 52.1693 39.1315 53.6329C39.8217 55.0964 40.8286 56.3883 42.0793 57.415H11.2531ZM57.0001 48.9526C57.0001 53.6188 53.2981 57.415 48.7411 57.415C44.1841 57.415 40.4881 53.6188 40.4881 48.9526V42.6952C40.4881 42.3769 40.3617 42.0717 40.1366 41.8466C39.9116 41.6216 39.6064 41.4952 39.2881 41.4952H14.1787L14.5717 2.58397H57.0001V48.9526Z" fill="#2C6E4A"/>
<path d="M23.6605 11.7267H31.5289C31.8472 11.7267 32.1524 11.6002 32.3774 11.3752C32.6025 11.1501 32.7289 10.8449 32.7289 10.5267C32.7289 10.2084 32.6025 9.90318 32.3774 9.67813C32.1524 9.45309 31.8472 9.32666 31.5289 9.32666H23.6605C23.3422 9.32666 23.037 9.45309 22.812 9.67813C22.5869 9.90318 22.4605 10.2084 22.4605 10.5267C22.4605 10.8449 22.5869 11.1501 22.812 11.3752C23.037 11.6002 23.3422 11.7267 23.6605 11.7267ZM23.6605 22.8129H46.5475C46.8658 22.8129 47.171 22.6864 47.396 22.4614C47.6211 22.2363 47.7475 21.9311 47.7475 21.6129C47.7475 21.2946 47.6211 20.9894 47.396 20.7643C47.171 20.5393 46.8658 20.4129 46.5475 20.4129H23.6605C23.3422 20.4129 23.037 20.5393 22.812 20.7643C22.5869 20.9894 22.4605 21.2946 22.4605 21.6129C22.4605 21.9311 22.5869 22.2363 22.812 22.4614C23.037 22.6864 23.3422 22.8129 23.6605 22.8129ZM23.6605 33.9003H46.5475C46.8658 33.9003 47.171 33.7738 47.396 33.5488C47.6211 33.3237 47.7475 33.0185 47.7475 32.7003C47.7475 32.382 47.6211 32.0768 47.396 31.8517C47.171 31.6267 46.8658 31.5003 46.5475 31.5003H23.6605C23.3422 31.5003 23.037 31.6267 22.812 31.8517C22.5869 32.0768 22.4605 32.382 22.4605 32.7003C22.4605 33.0185 22.5869 33.3237 22.812 33.5488C23.037 33.7738 23.3422 33.9003 23.6605 33.9003ZM13.7953 46.9035H8.6563C8.33804 46.9035 8.03281 47.0299 7.80777 47.2549C7.58273 47.48 7.4563 47.7852 7.4563 48.1035C7.4563 48.4217 7.58273 48.7269 7.80777 48.952C8.03281 49.177 8.33804 49.3035 8.6563 49.3035H13.7953C14.1136 49.3035 14.4188 49.177 14.6438 48.952C14.8689 48.7269 14.9953 48.4217 14.9953 48.1035C14.9953 47.7852 14.8689 47.48 14.6438 47.2549C14.4188 47.0299 14.1136 46.9035 13.7953 46.9035ZM19.5637 46.9035H18.9193C18.601 46.9035 18.2958 47.0299 18.0708 47.2549C17.8457 47.48 17.7193 47.7852 17.7193 48.1035C17.7193 48.4217 17.8457 48.7269 18.0708 48.952C18.2958 49.177 18.601 49.3035 18.9193 49.3035H19.5637C19.882 49.3035 20.1872 49.177 20.4122 48.952C20.6373 48.7269 20.7637 48.4217 20.7637 48.1035C20.7637 47.7852 20.6373 47.48 20.4122 47.2549C20.1872 47.0299 19.882 46.9035 19.5637 46.9035Z" fill="#2C6E4A"/>
</svg>
