<svg width="61" height="43" viewBox="0 0 61 43" fill="none" xmlns="http://www.w3.org/2000/svg">
<path d="M59.0841 14.875L59.1 14.8675C59.3426 14.8604 59.573 14.7596 59.7428 14.5861C59.9126 14.4127 60.0085 14.1802 60.0103 13.9375C60.0117 13.8148 59.9887 13.6932 59.9427 13.5795C59.8967 13.4658 59.8287 13.3624 59.7424 13.2752C59.6562 13.188 59.5535 13.1188 59.4403 13.0715C59.3272 13.0243 59.2058 13 59.0831 13C58.8187 12.9156 58.125 11.7746 58.125 9.71871C58.125 7.66277 58.8197 6.52184 59.0841 6.43746L59.0972 6.4309C59.3272 6.41452 59.5431 6.31393 59.7036 6.14838C59.8642 5.98282 59.958 5.76392 59.9673 5.5335C59.9766 5.30309 59.9006 5.07734 59.754 4.89941C59.6073 4.72148 59.4001 4.60386 59.1722 4.56902L28.9575 1.0159C27.7813 0.876211 26.5927 0.876211 25.4166 1.0159L3.63844 3.63152H3.62437C1.86094 3.7534 0.9375 6.27902 0.9375 8.78121C0.876162 10.269 1.2685 11.7403 2.0625 13C1.26823 14.2595 0.875864 15.7309 0.9375 17.2187C0.887146 18.6508 1.24479 20.0677 1.96875 21.3043C0.674062 22.6075 0 25.3112 0 28C0 31.6956 1.26656 35.4371 3.68813 35.5L35.5153 39.2443C35.5517 39.2485 35.5884 39.2504 35.625 39.25C35.6623 39.2501 35.6996 39.2479 35.7366 39.2434L43.125 38.3565V42.0625C43.1249 42.2675 43.1921 42.467 43.3162 42.6302C43.4403 42.7934 43.6146 42.9115 43.8122 42.9662C43.8938 42.9885 43.9779 42.9998 44.0625 43C44.2243 42.9999 44.3833 42.958 44.5241 42.8784C44.6649 42.7987 44.7826 42.6839 44.8659 42.5453L46.9613 39.0531L48.9375 41.6875C49.0556 41.8449 49.2202 41.9611 49.408 42.0198C49.5958 42.0785 49.7973 42.0766 49.984 42.0144C50.1706 41.9521 50.333 41.8327 50.448 41.6731C50.5631 41.5135 50.625 41.3217 50.625 41.125V37.4575L59.1741 36.4309C59.4115 36.4027 59.6292 36.2848 59.7826 36.1013C59.9359 35.9179 60.0134 35.6828 59.9992 35.4441C59.9849 35.2054 59.88 34.9812 59.7059 34.8173C59.5318 34.6534 59.3016 34.5622 59.0625 34.5625C58.4062 34.5625 57.1875 32.4268 57.1875 28.9375C57.1875 25.4781 58.3387 23.4756 59.0625 23.3125C59.3123 23.3132 59.5523 23.215 59.7299 23.0393C59.9075 22.8636 60.0083 22.6248 60.0103 22.375C60.0123 22.1458 59.9294 21.924 59.7776 21.7523C59.6258 21.5806 59.4158 21.4711 59.1881 21.445C59.1511 21.4406 59.1139 21.4381 59.0766 21.4375C58.8075 21.3343 58.125 20.1962 58.125 18.1562C58.125 16.0937 58.8197 14.9593 59.0841 14.875ZM30.2691 36.7384C29.3841 34.9631 28.9687 32.9907 29.0625 31.0093C28.9939 29.1071 29.3637 27.2146 30.1434 25.4781L33.2306 25.8409C32.274 27.6597 31.8068 29.696 31.875 31.75C31.8432 33.569 32.1945 35.3744 32.9062 37.0487L30.2691 36.7384ZM26.4853 36.2931C25.6295 34.5271 25.2265 32.5761 25.3125 30.6156C25.2372 28.6972 25.6183 26.7883 26.4244 25.0459L28.1775 25.2521C27.4797 27.0895 27.1436 29.0444 27.1875 31.0093C27.1582 32.8712 27.4588 34.7235 28.0753 36.4806L26.4853 36.2931ZM11.3316 34.5118C10.6176 32.8233 10.2764 31.0006 10.3313 29.1681C10.2217 27.1335 10.6731 25.1079 11.6362 23.3125L24.3516 24.8059C24.3797 24.8059 24.405 24.8228 24.4331 24.8228C24.4403 24.8232 24.4475 24.8232 24.4547 24.8228C23.7436 26.6696 23.3981 28.637 23.4375 30.6156C23.4104 32.4594 23.7041 34.294 24.3056 36.0372L11.3316 34.5118ZM7.58812 34.0722C6.86701 32.38 6.52341 30.551 6.58125 28.7125C6.47023 26.6821 6.91768 24.6601 7.875 22.8662L9.62063 23.0715C8.79789 24.9952 8.39947 27.0737 8.4525 29.1653C8.43058 30.8937 8.68374 32.6145 9.2025 34.2634L7.58812 34.0722ZM3.77062 20.5C3.50625 20.4156 2.8125 19.2746 2.8125 17.2187C2.8125 15.1806 3.49313 14.0443 3.7425 13.9431L8.18344 14.4606C8.19938 14.4606 8.21156 14.4728 8.22656 14.4747L27.0834 16.6871C26.6639 17.9137 26.4611 19.2039 26.4844 20.5C26.4819 21.4082 26.5791 22.3139 26.7741 23.2009L24.9806 22.9909C24.5405 21.9032 24.3342 20.7351 24.375 19.5625C24.3741 19.0025 24.437 18.4442 24.5625 17.8984C24.5902 17.7784 24.594 17.6542 24.5737 17.5327C24.5534 17.4113 24.5093 17.295 24.4441 17.1906C24.3788 17.0862 24.2936 16.9956 24.1934 16.9241C24.0932 16.8526 23.9798 16.8016 23.8598 16.7739C23.7399 16.7462 23.6156 16.7424 23.4942 16.7627C23.3727 16.783 23.2565 16.827 23.1521 16.8923C23.0476 16.9575 22.9571 17.0427 22.8856 17.143C22.8141 17.2432 22.763 17.3566 22.7353 17.4765C22.5785 18.1607 22.4995 18.8605 22.5 19.5625C22.4899 20.6386 22.6271 21.711 22.9078 22.75L11.2941 21.385H11.2744L7.5375 20.9443H7.51312L3.77062 20.5ZM9.0375 6.12621L12.6778 6.55277H12.6872L33.5184 9.00809C33.0314 10.1177 32.7905 11.3196 32.8125 12.5312C32.8049 13.5519 32.9713 14.5665 33.3047 15.5312L13.0144 13.149C12.7649 12.1819 12.6445 11.1861 12.6562 10.1875C12.6549 9.60077 12.6909 9.01458 12.7641 8.43246C12.7798 8.31033 12.7714 8.18629 12.7392 8.06743C12.707 7.94857 12.6517 7.83721 12.5765 7.7397C12.5013 7.6422 12.4076 7.56047 12.3008 7.49918C12.194 7.43788 12.0762 7.39822 11.9541 7.38246C11.8319 7.3667 11.7079 7.37515 11.589 7.40733C11.4702 7.43951 11.3588 7.49478 11.2613 7.57C11.1638 7.64522 11.0821 7.7389 11.0208 7.8457C10.9595 7.9525 10.9198 8.07033 10.9041 8.19246C10.8208 8.85418 10.7798 9.52053 10.7812 10.1875C10.7785 11.1036 10.8642 12.0178 11.0372 12.9175L8.94469 12.6718C8.57327 11.5705 8.40151 10.4117 8.4375 9.24996C8.43648 8.17998 8.64014 7.11967 9.0375 6.12621ZM35.625 9.24996C35.662 9.25008 35.6989 9.24789 35.7356 9.2434L56.7356 6.72621C56.4052 7.68895 56.241 8.70089 56.25 9.71871C56.2276 10.9328 56.4697 12.1373 56.9597 13.2484L35.6353 15.804C35.3634 15.6962 34.6875 14.5684 34.6875 12.5312C34.6875 10.4753 35.3812 9.33434 35.625 9.24996ZM28.7812 23.4362C28.4899 22.4851 28.3476 21.4946 28.3594 20.5C28.2932 19.2678 28.5288 18.0382 29.0456 16.9178L33.5213 17.4428C33.0322 18.5528 32.7904 19.7559 32.8125 20.9687C32.8049 21.9894 32.9713 23.004 33.3047 23.9687L28.7812 23.4362ZM35.6381 24.2425C35.3644 24.1346 34.6875 23.0068 34.6875 20.9687C34.6875 18.9128 35.3812 17.7718 35.625 17.6875C35.6623 17.6876 35.6996 17.6854 35.7366 17.6809L56.7366 15.1637C56.4058 16.1264 56.2413 17.1383 56.25 18.1562C56.2317 19.3713 56.4813 20.5755 56.9812 21.6831L35.6381 24.2425ZM25.6388 2.87496C26.668 2.75309 27.708 2.75309 28.7372 2.87496L51.1247 5.50746L35.625 7.3684L12.9066 4.6909H12.8972L11.7075 4.55121L25.6388 2.87496ZM3.73781 5.49996L7.12031 5.89652C6.75166 6.97617 6.56321 8.10912 6.5625 9.24996C6.55371 10.3191 6.67109 11.3855 6.91219 12.4271L3.77062 12.0625C3.50625 11.9781 2.8125 10.8371 2.8125 8.78121C2.8125 6.75809 3.48375 5.62184 3.73781 5.50465V5.49996ZM3.75 33.625C3.09375 33.625 1.875 31.4893 1.875 28C1.875 24.5312 3.07312 22.4068 3.73594 22.3796L5.86781 22.63C5.04996 24.551 4.65385 26.6252 4.70625 28.7125C4.68511 30.4445 4.94116 32.1688 5.46469 33.82L3.85969 33.6325C3.82332 33.6276 3.78669 33.6251 3.75 33.625ZM47.625 36.8125C47.5337 36.6883 47.4128 36.5889 47.2733 36.5234C47.1338 36.4579 46.9801 36.4283 46.8263 36.4375C46.6737 36.4463 46.5257 36.4922 46.395 36.5713C46.2642 36.6504 46.1548 36.7602 46.0762 36.8912L45 38.6781V30.6362L48.75 30.1843V38.3125L47.625 36.8125ZM50.625 35.5684V29.9584L51.2137 29.8871C51.4608 29.8577 51.686 29.7313 51.8398 29.5358C51.9937 29.3403 52.0635 29.0917 52.0341 28.8446C52.0046 28.5976 51.8782 28.3724 51.6827 28.2186C51.4872 28.0647 51.2386 27.9949 50.9916 28.0243L49.5853 28.195H49.5788L43.9538 28.87C43.9434 28.87 43.935 28.8775 43.9247 28.8784L42.7566 29.02C42.5194 29.0482 42.302 29.1658 42.1487 29.3488C41.9953 29.5318 41.9176 29.7665 41.9313 30.0049C41.9451 30.2433 42.0493 30.4675 42.2227 30.6317C42.3961 30.7958 42.6256 30.8877 42.8644 30.8884C42.9014 30.8885 42.9383 30.8863 42.975 30.8818L43.125 30.8631V36.4684L35.625 37.3684L35.5425 37.359C34.8956 37.2025 33.75 35.2028 33.75 31.75C33.75 28.2606 34.9688 26.125 35.625 26.125C35.6623 26.1251 35.6996 26.1229 35.7366 26.1184L56.3438 23.6481C55.633 25.3194 55.2817 27.1215 55.3125 28.9375C55.2446 30.9897 55.7094 33.0245 56.6616 34.8437L50.625 35.5684Z" fill="#2C6E4A"/>
</svg>
