<svg width="446" height="323" viewBox="0 0 446 323" fill="none" xmlns="http://www.w3.org/2000/svg">
<g clip-path="url(#clip0_29_1418)">
<path d="M34.4405 8.94943L40.3586 27.0125H21.289L15.3708 45.0755L0 33.9093L0 38.425L14.2201 48.6881L0 92.3678L0 104.191L8.79506 131.121H37.2352L0 158.134L0 162.649L37.2352 189.662H8.79506L0 216.264L0 228.415L14.2201 272.095L0 281.948L0 286.874L15.3708 275.708L21.289 293.771H40.3586L34.4405 311.834L49.8935 323H56.1404L96.4991 293.771H127.323L136.858 323H140.721L150.256 293.771H180.833L221.438 323H227.603L267.962 293.771H298.868L308.403 323H312.348L321.883 293.771H352.624L392.983 323H399.148L414.601 311.834L408.683 293.771H427.424L433.342 275.708L445.671 284.657V280.141L434.492 271.931L445.671 237.611V225.87L431.698 269.796L391.339 240.895L381.804 211.666L406.463 193.603H437.287L445.507 219.302V207.643L439.753 189.99H411.806L446 165.359V160.843L405.641 190.155H374.735L365.201 160.843L374.818 131.614H405.641L446 160.843V156.41L411.806 131.778H440.246L446 114.126V102.467L437.78 128.165H406.792L382.133 110.102L391.668 80.8732L432.027 51.6439L446 94.7489V83.0079L434.821 48.6881L446 40.4777V35.9619L433.671 44.9113L427.752 26.8483H408.683L414.601 8.78522L402.189 -0.164185H396.024L410.327 10.181L404.902 26.602H358.789L396.024 -0.410492H389.942L352.624 27.0125H321.718L312.923 3.05176e-05H307.663L298.868 27.0125H267.962L230.644 3.05176e-05H224.48L261.797 27.0125H233.357L224.562 54.0249L215.767 27.0125H187.244L224.48 3.05176e-05H218.397L180.833 27.0125H150.256L141.461 3.05176e-05H136.118L127.323 27.0125H96.4991L59.1817 3.05176e-05H53.017L90.4165 27.0125H44.2219L38.7969 10.5916L53.017 0.246338H46.8522L34.4405 8.94943ZM404.902 293.771L410.327 310.192L396.024 320.783L358.789 293.771H404.902ZM18.5765 47.4565L24.0015 31.0356H41.5094L55.8117 74.3048L18.5765 47.4565ZM259.002 149.184L274.455 160.351L259.002 171.517L264.92 189.662H245.851L239.933 208.053L224.562 196.887L209.109 208.053L203.191 189.99H184.121L190.039 171.845L174.586 160.679L190.039 149.513L184.121 131.45H203.191L209.109 113.387L224.562 124.553L239.933 113.387L245.851 131.45H264.92L259.002 149.184ZM268.784 131.121H314.814L277.579 158.134L263.03 147.871L268.784 131.121ZM277.579 162.649L314.814 189.662H268.784L263.276 173.241L277.579 162.649ZM85.7313 166.262L94.5264 193.275H123.295L100.198 209.695L109.075 236.708L85.9779 220.287L62.9628 236.708L71.5112 209.942L48.4961 193.521H76.9362L85.7313 166.262ZM168.421 160.351L128.063 189.662H97.2389L87.6218 160.351L97.2389 131.121H128.063L168.421 160.351ZM134.227 131.121H180.34L185.765 147.542L171.545 157.805L134.227 131.121ZM171.545 162.649L185.765 172.913L180.34 189.334H134.227L171.545 162.649ZM104.308 211.338L128.967 193.275H178.86L163.736 240.895L139.077 258.958L114.418 240.895L104.308 211.338ZM168.75 236.954L182.97 193.275H200.56L205.985 209.695L168.75 236.954ZM224.562 200.992L238.782 211.338L224.562 255.017L210.26 211.338L224.562 200.992ZM207.218 213.554L222.589 260.929L213.054 290.158H182.23L157.571 272.177L167.024 242.866L207.218 213.554ZM241.905 213.554L282.264 242.784L291.799 272.095L267.14 290.158H235.987L226.452 260.929L241.905 213.554ZM285.387 240.895L269.934 193.603H319.828L344.487 211.666L335.281 240.895L310.622 258.958L285.387 240.895ZM280.373 237.283L243.056 210.27L248.481 193.849H266.071L280.373 237.283ZM269.934 127.837L285.387 80.5448L310.046 62.4817L334.706 80.5448L345.227 109.528L320.568 127.591L269.934 127.837ZM266.071 127.837H248.481L243.056 111.416L280.373 84.4037L266.071 127.837ZM224.973 120.119L210.26 109.528L224.562 65.848L238.782 109.528L224.973 120.119ZM206.396 111.17L200.971 127.591H182.97L168.75 83.911L206.396 111.17ZM179.518 127.591H129.213L104.554 109.528L114.089 80.2984L138.748 62.2354L163.407 80.2984L179.518 127.591ZM111.13 78.3279L86.4711 96.391L61.812 78.2458L46.359 30.9535H96.2525L120.912 49.0165L111.377 78.2458L111.13 78.3279ZM11.8363 127.591L1.89053 98.2794L17.3435 50.9871L57.5378 80.2163L67.237 109.528L42.578 127.591H11.8363ZM77.5938 127.591H48.4961L71.5112 111.17L62.7162 84.1574L85.7313 100.578L108.829 84.1574L99.9514 111.17L123.049 127.591H94.5264L85.7313 154.603L77.5938 127.591ZM43.4821 189.662L3.04128 160.351L43.4821 131.121H73.9771L83.8408 160.351L73.9771 189.662H43.4821ZM1.89053 222.504L11.4254 193.275H42.2492L66.9082 211.338L57.5378 240.895L17.3435 269.796L1.89053 222.504ZM23.9193 290.158L18.4943 273.737L55.8117 246.478L41.5094 290.158H23.9193ZM45.3727 290.158L60.8257 242.784L85.4847 224.721L110.144 242.784L120.254 272.095L95.5949 290.158H45.3727ZM53.017 320.783L38.7969 310.438L44.2219 294.017H90.4165L53.017 320.783ZM138.748 317.171L129.953 290.158H101.513L124.528 273.737L115.733 246.725L138.748 263.146L161.763 246.725L152.968 273.737L175.983 290.158H147.954L138.748 317.171ZM224.48 320.783L187.244 293.771H215.767L224.562 266.758L233.357 293.771H261.797L224.48 320.783ZM310.293 317.171L301.498 290.158H273.058L295.909 273.737L287.689 246.478L310.704 262.899L333.719 246.478L324.513 273.737L347.528 290.158H319.088L310.293 317.171ZM430.547 273.737L425.122 290.158H407.532L393.23 246.478L430.547 273.737ZM388.298 243.03L403.669 290.158H353.446L328.787 272.095L338.322 242.866L362.981 224.803L388.298 243.03ZM371.858 193.767H400.299L377.283 210.188L386.325 236.954L363.31 220.533L340.295 236.954L349.09 209.942L326.075 193.521H354.515L363.31 166.508L371.858 193.767ZM351.638 190.155H321.061L280.62 160.843L321.061 131.614H351.885L361.666 160.351L351.638 190.155ZM377.283 111.334L400.299 127.755H372.105L363.31 154.521L354.515 127.509H326.075L349.09 111.088L340.295 84.0753L363.31 100.496L386.325 84.0753L377.283 111.334ZM424.875 31.1177L430.3 47.5387L392.983 74.5511L407.285 30.8714L424.875 31.1177ZM403.422 31.1177L388.051 78.41L363.392 96.5552L338.733 78.4921L328.787 48.6881L353.446 30.6251L403.422 31.1177ZM310.293 3.61261L319.088 30.6251H347.528L324.513 47.046L333.308 74.0585L310.293 57.6375L287.278 74.0585L295.909 47.2923L272.893 30.8714H301.334L310.293 3.61261ZM236.316 30.6251H267.14L291.799 48.6881L282.264 77.9995L241.905 107.229L226.452 59.8544L236.316 30.6251ZM213.383 30.6251L222.918 59.8544L207.547 107.229L167.106 77.9995L157.654 48.6881L182.313 30.6251H213.383ZM139.406 3.61261L147.954 30.6251H176.477L153.379 47.046L162.174 74.0585L139.159 57.6375L116.144 74.0585L124.939 47.046L101.924 30.6251H130.364L139.406 3.61261Z" fill="#DCEFE1"/>
</g>
<defs>
<clipPath id="clip0_29_1418">
<rect width="323" height="446" fill="white" transform="matrix(0 -1 1 0 0 323)"/>
</clipPath>
</defs>
</svg>
