<svg width="48" height="34" viewBox="0 0 48 34" fill="none" xmlns="http://www.w3.org/2000/svg">
<g clip-path="url(#clip0_29_1833)">
<path d="M4.12938 0.942047L4.75304 2.84342H2.74346L2.11979 4.74479L0.5 3.5694V4.04474L1.99853 5.12507L0.5 9.72293V10.9675L1.42683 13.8022H4.42389L0.5 16.6457L0.5 17.121L4.42389 19.9644H1.42683L0.5 22.7646L0.5 24.0437L1.99853 28.6416L0.5 29.6787V30.1973L2.11979 29.0219L2.74346 30.9232H4.75304L4.12938 32.8246L5.75783 34H6.41614L10.6692 30.9232H13.9174L14.9222 34H15.3293L16.3341 30.9232H19.5564L23.8354 34H24.4851L28.7381 30.9232H31.995L32.9998 34H33.4156L34.4204 30.9232H37.66L41.913 34H42.5627L44.1911 32.8246L43.5675 30.9232H45.5424L46.1661 29.0219L47.4654 29.9639V29.4886L46.2873 28.6243L47.4654 25.0117V23.7758L45.9928 28.3996L41.7398 25.3574L40.735 22.2806L43.3336 20.3793L46.5818 20.3793L47.448 23.0844V21.8571L46.8417 19.999L43.8966 19.999L47.5 17.4062V16.9309L43.247 20.0163H39.99L38.9853 16.9309L39.9987 13.8541H43.247L47.5 16.9309V16.4642L43.8966 13.8714H46.8937L47.5 12.0132V10.786L46.6338 13.4911H43.3682L40.7696 11.5897L41.7744 8.51297L46.0275 5.4362L47.5 9.97357V8.73767L46.322 5.12507L47.5 4.26081V3.78547L46.2007 4.72751L45.577 2.82614H43.5675L44.1911 0.924763L42.8832 -0.0172806H42.2335L43.7407 1.07169L43.169 2.80021H38.3096L42.2335 -0.0432091H41.5925L37.66 2.84342H34.4031L33.4762 3.8147e-06H32.9219L31.995 2.84342L28.7381 2.84342L24.8056 3.8147e-06H24.1559L28.0885 2.84342H25.0914L24.1646 5.68684L23.2377 2.84342H20.232L24.1559 3.8147e-06H23.5149L19.5564 2.84342H16.3341L15.4073 3.8147e-06H14.8443L13.9174 2.84342H10.6692L6.73664 3.8147e-06H6.08699L10.0282 2.84342H5.16015L4.58846 1.1149L6.08699 0.0259323H5.43734L4.12938 0.942047ZM43.169 30.9232L43.7407 32.6518L42.2335 33.7666L38.3096 30.9232H43.169ZM2.45761 4.99543L3.0293 3.26691H4.87431L6.3815 7.82156L2.45761 4.99543ZM27.794 15.7036L29.4224 16.879L27.794 18.0544L28.4176 19.9644H26.408L25.7844 21.9004L24.1646 20.725L22.5361 21.9004L21.9125 19.999H19.9029L20.5265 18.089L18.8981 16.9136L20.5265 15.7382L19.9029 13.8368H21.9125L22.5361 11.9354L24.1646 13.1108L25.7844 11.9354L26.408 13.8368H28.4176L27.794 15.7036ZM28.8247 13.8022L33.6755 13.8022L29.7516 16.6457L28.2184 15.5653L28.8247 13.8022ZM29.7516 17.121L33.6755 19.9644H28.8247L28.2444 18.2359L29.7516 17.121ZM9.53446 17.5013L10.4613 20.3447H13.493L11.059 22.0732L11.9945 24.9166L9.56045 23.1881L7.13509 24.9166L8.03594 22.0991L5.61058 20.3706H8.60763L9.53446 17.5013ZM18.2484 16.879L13.9954 19.9644H10.7471L9.73369 16.879L10.7471 13.8022H13.9954L18.2484 16.879ZM14.645 13.8022H19.5044L20.0761 15.5308L18.5776 16.6111L14.645 13.8022ZM18.5776 17.121L20.0761 18.2013L19.5044 19.9298H14.645L18.5776 17.121ZM11.4921 22.2461L14.0907 20.3447H19.3485L17.7547 25.3574L15.1561 27.2588L12.5575 25.3574L11.4921 22.2461ZM18.2831 24.9426L19.7816 20.3447H21.6353L22.207 22.0732L18.2831 24.9426ZM24.1646 21.1571L25.6631 22.2461L24.1646 26.8439L22.6574 22.2461L24.1646 21.1571ZM22.3369 22.4794L23.9567 27.4662L22.9519 30.543H19.7036L17.105 28.6502L18.1012 25.5648L22.3369 22.4794ZM25.9923 22.4794L30.2453 25.5562L31.2501 28.6416L28.6515 30.543H25.3686L24.3638 27.4662L25.9923 22.4794ZM30.5745 25.3574L28.946 20.3793H34.2038L36.8024 22.2806L35.8323 25.3574L33.2337 27.2588L30.5745 25.3574ZM30.0461 24.9771L26.1135 22.1337L26.6852 20.4052H28.5389L30.0461 24.9771ZM28.946 13.4565L30.5745 8.4784L33.1731 6.57702L35.7717 8.4784L36.8804 11.5292L34.2818 13.4306L28.946 13.4565ZM28.5389 13.4565H26.6852L26.1135 11.728L30.0461 8.8846L28.5389 13.4565ZM24.2079 12.6441L22.6574 11.5292L24.1646 6.93137L25.6631 11.5292L24.2079 12.6441ZM22.2503 11.7021L21.6786 13.4306H19.7816L18.2831 8.83274L22.2503 11.7021ZM19.4178 13.4306H14.1167L11.5181 11.5292L12.5229 8.45247L15.1215 6.5511L17.7201 8.45247L19.4178 13.4306ZM12.211 8.24505L9.61242 10.1464L7.01382 8.2364L5.38537 3.25826H10.6432L13.2418 5.15964L12.237 8.2364L12.211 8.24505ZM1.74733 13.4306L0.699226 10.3452L2.32768 5.36706L6.5634 8.44383L7.58551 11.5292L4.98691 13.4306H1.74733ZM8.67693 13.4306H5.61058L8.03594 11.7021L7.1091 8.85867L9.53446 10.5872L11.9685 8.85867L11.033 11.7021L13.467 13.4306H10.4613L9.53446 16.274L8.67693 13.4306ZM5.0822 19.9644L0.820494 16.879L5.0822 13.8022H8.2958L9.33524 16.879L8.2958 19.9644H5.0822ZM0.699226 23.4215L1.70402 20.3447H4.95227L7.55087 22.2461L6.5634 25.3574L2.32768 28.3996L0.699226 23.4215ZM3.02064 30.543L2.44895 28.8144L6.3815 25.9451L4.87431 30.543H3.02064ZM5.28142 30.543L6.90988 25.5562L9.50848 23.6548L12.1071 25.5562L13.1725 28.6416L10.5739 30.543H5.28142ZM6.08699 33.7666L4.58846 32.6777L5.16015 30.9492H10.0282L6.08699 33.7666ZM15.1215 33.3864L14.1946 30.543H11.1976L13.6229 28.8144L12.6961 25.971L15.1215 27.6995L17.5468 25.971L16.62 28.8144L19.0453 30.543H16.0916L15.1215 33.3864ZM24.1559 33.7666L20.232 30.9232H23.2377L24.1646 28.0798L25.0914 30.9232H28.0885L24.1559 33.7666ZM33.199 33.3864L32.2722 30.543H29.2752L31.6832 28.8144L30.817 25.9451L33.2424 27.6736L35.6677 25.9451L34.6976 28.8144L37.1229 30.543H34.1259L33.199 33.3864ZM45.8715 28.8144L45.2999 30.543H43.4462L41.939 25.9451L45.8715 28.8144ZM41.4193 25.5821L43.0391 30.543H37.7466L35.148 28.6416L36.1528 25.5648L38.7514 23.6634L41.4193 25.5821ZM39.6869 20.3965H42.6839L40.2586 22.1251L41.2114 24.9426L38.786 23.214L36.3607 24.9426L37.2875 22.0991L34.8621 20.3706H37.8592L38.786 17.5272L39.6869 20.3965ZM37.556 20.0163H34.3338L30.0721 16.9309L34.3338 13.8541H37.582L38.6128 16.879L37.556 20.0163ZM40.2586 11.7194L42.6839 13.4479H39.7129L38.786 16.2654L37.8592 13.422H34.8621L37.2875 11.6934L36.3607 8.85003L38.786 10.5785L41.2114 8.85003L40.2586 11.7194ZM45.2739 3.27555L45.8456 5.00407L41.913 7.84749L43.4202 3.24962L45.2739 3.27555ZM43.0131 3.27555L41.3933 8.25369L38.7947 10.1637L36.1961 8.26233L35.148 5.12507L37.7466 3.22369L43.0131 3.27555ZM33.199 0.380276L34.1259 3.22369H37.1229L34.6976 4.95222L35.6244 7.79563L33.199 6.06711L30.7737 7.79563L31.6832 4.97814L29.2578 3.24962L32.2549 3.24962L33.199 0.380276ZM25.4032 3.22369H28.6515L31.2501 5.12507L30.2453 8.21048L25.9923 11.2872L24.3638 6.30046L25.4032 3.22369ZM22.9865 3.22369L23.9913 6.30046L22.3715 11.2872L18.1098 8.21048L17.1137 5.12507L19.7123 3.22369H22.9865ZM15.1907 0.380276L16.0916 3.22369H19.0973L16.6633 4.95222L17.5901 7.79563L15.1648 6.06711L12.7394 7.79563L13.6662 4.95222L11.2409 3.22369H14.2379L15.1907 0.380276Z" fill="#2C6E4A"/>
</g>
<defs>
<clipPath id="clip0_29_1833">
<rect width="34" height="47" fill="white" transform="matrix(0 -1 1 0 0.5 34)"/>
</clipPath>
</defs>
</svg>
