<svg width="60" height="60" viewBox="0 0 60 60" fill="none" xmlns="http://www.w3.org/2000/svg">
<path d="M58.2 0.18457H13.3836C13.0675 0.184553 12.7642 0.30925 12.5395 0.531576C12.3148 0.753901 12.1869 1.0559 12.1836 1.37197L11.7786 41.4952H1.79998C1.48172 41.4952 1.17649 41.6216 0.951447 41.8466C0.726404 42.0717 0.599976 42.3769 0.599976 42.6952V48.9526C0.599976 54.6922 4.99138 59.3944 10.527 59.7778C10.6188 59.8 10.713 59.815 10.8114 59.815H48.1602C48.228 59.815 48.294 59.806 48.3588 59.7952C48.489 59.8 48.6162 59.815 48.747 59.815C54.6216 59.815 59.4 54.9418 59.4 48.9526V1.38457C59.4 1.06631 59.2735 0.761086 59.0485 0.536042C58.8235 0.310999 58.5182 0.18457 58.2 0.18457ZM11.253 57.415C6.70197 57.415 2.99998 53.6188 2.99998 48.9526V43.8952H38.088V48.9526C38.0847 50.5707 38.4411 52.1693 39.1313 53.6329C39.8216 55.0964 40.8285 56.3883 42.0792 57.415H11.253ZM57 48.9526C57 53.6188 53.298 57.415 48.741 57.415C44.184 57.415 40.488 53.6188 40.488 48.9526V42.6952C40.488 42.3769 40.3615 42.0717 40.1365 41.8466C39.9115 41.6216 39.6062 41.4952 39.288 41.4952H14.1786L14.5716 2.58397H57V48.9526Z" fill="#2C6E4A"/>
<path d="M23.6604 11.7267H31.5288C31.847 11.7267 32.1523 11.6002 32.3773 11.3752C32.6023 11.1501 32.7288 10.8449 32.7288 10.5267C32.7288 10.2084 32.6023 9.90318 32.3773 9.67813C32.1523 9.45309 31.847 9.32666 31.5288 9.32666H23.6604C23.3421 9.32666 23.0369 9.45309 22.8118 9.67813C22.5868 9.90318 22.4604 10.2084 22.4604 10.5267C22.4604 10.8449 22.5868 11.1501 22.8118 11.3752C23.0369 11.6002 23.3421 11.7267 23.6604 11.7267ZM23.6604 22.8129H46.5474C46.8656 22.8129 47.1709 22.6864 47.3959 22.4614C47.6209 22.2363 47.7474 21.9311 47.7474 21.6129C47.7474 21.2946 47.6209 20.9894 47.3959 20.7643C47.1709 20.5393 46.8656 20.4129 46.5474 20.4129H23.6604C23.3421 20.4129 23.0369 20.5393 22.8118 20.7643C22.5868 20.9894 22.4604 21.2946 22.4604 21.6129C22.4604 21.9311 22.5868 22.2363 22.8118 22.4614C23.0369 22.6864 23.3421 22.8129 23.6604 22.8129ZM23.6604 33.9003H46.5474C46.8656 33.9003 47.1709 33.7738 47.3959 33.5488C47.6209 33.3237 47.7474 33.0185 47.7474 32.7003C47.7474 32.382 47.6209 32.0768 47.3959 31.8517C47.1709 31.6267 46.8656 31.5003 46.5474 31.5003H23.6604C23.3421 31.5003 23.0369 31.6267 22.8118 31.8517C22.5868 32.0768 22.4604 32.382 22.4604 32.7003C22.4604 33.0185 22.5868 33.3237 22.8118 33.5488C23.0369 33.7738 23.3421 33.9003 23.6604 33.9003ZM13.7952 46.9035H8.65618C8.33792 46.9035 8.03269 47.0299 7.80765 47.2549C7.58261 47.48 7.45618 47.7852 7.45618 48.1035C7.45618 48.4217 7.58261 48.7269 7.80765 48.952C8.03269 49.177 8.33792 49.3035 8.65618 49.3035H13.7952C14.1134 49.3035 14.4187 49.177 14.6437 48.952C14.8687 48.7269 14.9952 48.4217 14.9952 48.1035C14.9952 47.7852 14.8687 47.48 14.6437 47.2549C14.4187 47.0299 14.1134 46.9035 13.7952 46.9035ZM19.5636 46.9035H18.9192C18.6009 46.9035 18.2957 47.0299 18.0706 47.2549C17.8456 47.48 17.7192 47.7852 17.7192 48.1035C17.7192 48.4217 17.8456 48.7269 18.0706 48.952C18.2957 49.177 18.6009 49.3035 18.9192 49.3035H19.5636C19.8818 49.3035 20.1871 49.177 20.4121 48.952C20.6371 48.7269 20.7636 48.4217 20.7636 48.1035C20.7636 47.7852 20.6371 47.48 20.4121 47.2549C20.1871 47.0299 19.8818 46.9035 19.5636 46.9035Z" fill="#2C6E4A"/>
</svg>
