<svg width="25" height="18" viewBox="0 0 25 18" fill="none" xmlns="http://www.w3.org/2000/svg">
<path d="M15.8682 9.20217L17.2313 7.83905C17.3305 8.21011 17.3887 8.59805 17.3887 9.00005C17.3887 11.4814 15.37 13.5 12.8887 13.5C12.4867 13.5 12.0987 13.4419 11.7276 13.3427L13.0908 11.9796C13.8113 11.9307 14.4897 11.6223 15.0003 11.1117C15.5109 10.601 15.8193 9.92268 15.8682 9.20217ZM24.7942 8.63573C24.7019 8.4698 23.3935 6.17723 20.836 4.23436L19.7446 5.3258C21.6095 6.69698 22.7911 8.29617 23.2563 9.00117C22.3673 10.3547 18.8802 15 12.8887 15C11.9902 15 11.1546 14.8851 10.3685 14.7017L9.13603 15.9342C10.2691 16.2816 11.5145 16.5 12.8887 16.5C20.7398 16.5 24.6323 9.65555 24.7942 9.36436C24.8561 9.25294 24.8887 9.12755 24.8887 9.00005C24.8887 8.87255 24.8561 8.74716 24.7942 8.63573ZM21.6689 1.2803L5.1689 17.7803C5.02246 17.9267 4.83046 18 4.63865 18C4.44684 18 4.25484 17.9267 4.1084 17.7803C4.03871 17.7107 3.98343 17.628 3.94571 17.5371C3.90799 17.4461 3.88858 17.3485 3.88858 17.25C3.88858 17.1516 3.90799 17.054 3.94571 16.963C3.98343 16.8721 4.03871 16.7894 4.1084 16.7198L6.20765 14.6205C2.8139 12.5717 1.08946 9.5558 0.983151 9.36436C0.921189 9.2529 0.888672 9.12748 0.888672 8.99995C0.888672 8.87243 0.921189 8.74701 0.983151 8.63555C1.14496 8.34455 5.03746 1.50005 12.8887 1.50005C14.9187 1.50005 16.6771 1.96317 18.1803 2.64792L20.6084 0.219797C20.9015 -0.0732656 21.376 -0.0732656 21.6689 0.219797C21.9618 0.512859 21.962 0.987422 21.6689 1.2803ZM7.32609 13.5021L9.2249 11.6033C8.70046 10.8675 8.38865 9.97036 8.38865 9.00005C8.38865 6.51867 10.4073 4.50005 12.8887 4.50005C13.859 4.50005 14.7562 4.81186 15.4919 5.33611L17.0273 3.80067C15.8142 3.31486 14.4357 3.00005 12.8887 3.00005C6.89709 3.00005 3.40996 7.64536 2.52121 8.99892C3.08559 9.8543 4.70784 12.0195 7.32609 13.5021ZM10.3137 10.5143L14.4029 6.42511C13.9568 6.16167 13.4433 6.00005 12.8887 6.00005C11.2345 6.00005 9.88865 7.34592 9.88865 9.00005C9.88865 9.55467 10.0503 10.0682 10.3137 10.5143Z" fill="#4F5153"/>
</svg>
