<svg width="21" height="20" viewBox="0 0 21 20" fill="none" xmlns="http://www.w3.org/2000/svg">
<path d="M20.0553 13.3333C19.5553 13.3333 19.222 13.6667 19.222 14.1667V17.1667L14.8053 12.75C14.472 12.4167 13.972 12.4167 13.6387 12.75C13.3053 13.0833 13.3053 13.5833 13.6387 13.9167L18.0553 18.3333H15.0553C14.5553 18.3333 14.222 18.6667 14.222 19.1667C14.222 19.6667 14.5553 20 15.0553 20H20.0553C20.5553 20 20.8887 19.6667 20.8887 19.1667V14.1667C20.8887 13.6667 20.5553 13.3333 20.0553 13.3333ZM20.0553 0H15.0553C14.5553 0 14.222 0.333333 14.222 0.833333C14.222 1.33333 14.5553 1.66667 15.0553 1.66667H18.0553L13.6387 6.08333C13.3053 6.41667 13.3053 6.91667 13.6387 7.25C13.972 7.58333 14.472 7.58333 14.8053 7.25L19.222 2.83333V5.83333C19.222 6.33333 19.5553 6.66667 20.0553 6.66667C20.5553 6.66667 20.8887 6.33333 20.8887 5.83333V0.833333C20.8887 0.333333 20.5553 0 20.0553 0ZM3.72201 1.66667H6.722C7.222 1.66667 7.55534 1.33333 7.55534 0.833333C7.55534 0.333333 7.222 0 6.722 0H1.72201C1.22201 0 0.888672 0.333333 0.888672 0.833333V5.83333C0.888672 6.33333 1.22201 6.66667 1.72201 6.66667C2.22201 6.66667 2.55534 6.33333 2.55534 5.83333V2.83333L6.97201 7.25C7.30534 7.58333 7.80534 7.58333 8.13867 7.25C8.472 6.91667 8.472 6.41667 8.13867 6.08333L3.72201 1.66667ZM6.97201 12.75L2.55534 17.1667V14.1667C2.55534 13.6667 2.22201 13.3333 1.72201 13.3333C1.22201 13.3333 0.888672 13.6667 0.888672 14.1667V19.1667C0.888672 19.6667 1.22201 20 1.72201 20H6.722C7.222 20 7.55534 19.6667 7.55534 19.1667C7.55534 18.6667 7.222 18.3333 6.722 18.3333H3.72201L8.13867 13.9167C8.472 13.5833 8.472 13.0833 8.13867 12.75C7.80534 12.4167 7.30534 12.4167 6.97201 12.75Z" fill="#4F5153"/>
</svg>
