<svg width="60" height="60" viewBox="0 0 60 60" fill="none" xmlns="http://www.w3.org/2000/svg">
<path d="M29.4478 8.36979C29.4478 8.36979 28.0195 3.86356 24.1778 3.25981C24.1778 3.25981 25.6965 5.32686 23.8259 6.2775C23.8259 6.2775 23.8109 3.66708 20.7635 3.63707C17.7162 3.60705 15.1968 5.37223 14.231 7.60539C13.2651 9.83855 13.5673 13.1278 14.6535 14.6661L13.6529 13.6626C13.6529 13.6626 11.2444 7.00097 16.7357 3.41024C22.227 -0.180492 29.3796 2.98762 29.9972 7.78583V8.3657L29.4478 8.36979Z" fill="#2C6E4A"/>
<path d="M32.3062 27.5215C32.3062 27.5215 34.9211 25.2283 32.6684 21.8081C30.4158 18.3879 27.1164 17.5836 25.9902 13.7613C25.9902 13.7613 25.7491 15.2703 24.3191 14.6665C22.889 14.0628 21.503 12.3931 20.6582 13.4795C20.6582 13.4795 20.9802 10.3813 24.0176 11.2061C24.0176 11.2061 22.9433 4.50697 29.9976 0.000732422V1.04688C29.9976 1.04688 25.8368 4.58235 26.1499 9.77896C26.463 14.9756 29.529 17.3834 31.4202 18.7918C33.3113 20.2002 35.3829 23.4791 34.4576 25.5513L32.3062 27.5215Z" fill="#BA4749"/>
<path d="M31.8496 9.31491C31.8496 9.68096 31.741 10.0388 31.5377 10.3432C31.3343 10.6475 31.0453 10.8847 30.7072 11.0248C30.369 11.1649 29.9969 11.2015 29.638 11.1301C29.279 11.0587 28.9493 10.8825 28.6905 10.6236C28.4317 10.3648 28.2554 10.035 28.184 9.67598C28.1126 9.31696 28.1492 8.94483 28.2893 8.60664C28.4294 8.26845 28.6666 7.9794 28.9709 7.77603C29.2752 7.57266 29.633 7.46411 29.999 7.46411C30.4898 7.46411 30.9605 7.65911 31.3075 8.0062C31.6546 8.35329 31.8496 8.82405 31.8496 9.31491Z" fill="#2C6E4A"/>
<path d="M8.50977 8.51308C8.50977 8.51308 8.91699 8.9357 11.3259 8.4701C13.9093 7.97108 17.2196 7.52458 17.7424 9.13388C17.7424 9.13388 17.9532 5.2498 22.0472 7.06171C22.0472 7.06171 18.2755 8.87225 18.6367 12.7048C18.9979 16.5374 24.098 17.9236 27.2961 14.968C30.4941 12.0124 29.589 9.315 29.589 9.315H30.1006L29.9958 12.3426C29.9958 12.3426 30.0102 15.1287 26.1481 17.2203C22.286 19.3119 21.2904 22.5414 21.7144 25.3476C22.1298 28.1081 24.3555 30.051 26.1798 30.1137C26.2101 30.1137 26.2405 30.1137 26.2705 30.1137H23.2232C23.2232 30.1137 18.637 25.1337 20.6585 18.6771C21.1887 18.8064 21.7452 18.7783 22.2597 18.596C22.7742 18.4138 23.2244 18.0854 23.555 17.6511C23.555 17.6511 19.6329 18.2545 18.2145 14.6637C16.796 11.073 14.2923 10.6804 11.4558 11.5557C11.4558 11.5557 12.6024 9.26213 16.0119 9.71374C16.0119 9.71374 14.9158 8.32513 12.2907 8.95923C9.91696 9.53262 9.1755 9.1731 9.1755 9.1731L8.50977 8.51308Z" fill="#2C6E4A"/>
<path d="M30.5449 8.36983C30.5449 8.36983 31.9732 3.8636 35.8152 3.25986C35.8152 3.25986 34.2964 5.3269 36.1671 6.27754C36.1671 6.27754 36.1821 3.66712 39.2298 3.63711C42.2775 3.60709 44.7965 5.37227 45.762 7.60543C46.7275 9.83859 46.4257 13.1278 45.3394 14.6661L46.3439 13.6087C46.3439 13.6087 48.749 6.99998 43.2576 3.40994C37.7663 -0.18011 30.6137 2.98732 29.9961 7.78553V8.3654L30.5449 8.36983Z" fill="#2C6E4A"/>
<path d="M27.6883 27.5213C27.6883 27.5213 25.0734 25.2281 27.3261 21.8079C29.5788 18.3878 32.8774 17.5831 34.0029 13.7608C34.0029 13.7608 34.2444 15.2698 35.6741 14.6661C37.1038 14.0623 38.4902 12.3926 39.335 13.479C39.335 13.479 39.0133 10.3809 35.9759 11.2056C35.9759 11.2056 37.0502 4.50648 29.9959 0.000244141V1.04639C29.9959 1.04639 34.1567 4.58186 33.8437 9.77847C33.5306 14.9751 30.4645 17.3829 28.5737 18.7913C26.6829 20.1997 24.611 23.4786 25.5362 25.5508L27.6883 27.5213Z" fill="#BA4749"/>
<path d="M28.1445 9.31491C28.1445 9.68096 28.2531 10.0388 28.4564 10.3432C28.6597 10.6475 28.9488 10.8847 29.2869 11.0248C29.6251 11.1649 29.9971 11.2015 30.3561 11.1301C30.7151 11.0587 31.0448 10.8825 31.3036 10.6236C31.5624 10.3648 31.7387 10.035 31.8101 9.67598C31.8815 9.31696 31.8449 8.94483 31.7048 8.60664C31.5647 8.26845 31.3275 7.9794 31.0232 7.77603C30.7189 7.57266 30.3611 7.46411 29.9951 7.46411C29.5043 7.46411 29.0336 7.65911 28.6865 8.0062C28.3395 8.35329 28.1445 8.82405 28.1445 9.31491Z" fill="#2C6E4A"/>
<path d="M51.4837 8.51308C51.4837 8.51308 51.0765 8.9357 48.6676 8.4701C46.0841 7.97108 42.7739 7.52458 42.251 9.13388C42.251 9.13388 42.0402 5.2498 37.9462 7.06171C37.9462 7.06171 41.718 8.87225 41.3568 12.7048C40.9956 16.5374 35.8955 17.9236 32.6971 14.968C29.4987 12.0124 30.4042 9.315 30.4042 9.315H29.8926L29.9973 12.3426C29.9973 12.3426 29.983 15.1287 33.8451 17.2203C37.7072 19.3119 38.703 22.5414 38.2805 25.3476C37.8651 28.1081 35.6393 30.051 33.815 30.1137C33.7847 30.1137 33.7547 30.1137 33.7243 30.1137H36.7686C36.7686 30.1137 41.3547 25.1337 39.3333 18.6771C38.803 18.8064 38.2466 18.7783 37.7321 18.596C37.2176 18.4138 36.7674 18.0854 36.4367 17.6511C36.4367 17.6511 40.3589 18.2545 41.7773 14.6637C43.1958 11.073 45.6994 10.6804 48.536 11.5557C48.536 11.5557 47.3894 9.26213 43.9798 9.71374C43.9798 9.71374 45.076 8.32513 47.7011 8.95923C50.0745 9.53262 50.8197 9.17992 50.8197 9.17992L51.4837 8.51308Z" fill="#2C6E4A"/>
<path d="M8.36829 30.5524C8.36829 30.5524 3.86262 31.9805 3.25827 35.8223C3.25827 35.8223 5.32506 34.3034 6.27558 36.1743C6.27558 36.1743 3.66583 36.1893 3.63548 39.237C3.60512 42.2847 5.37042 44.8044 7.60296 45.77C9.83551 46.7357 13.1246 46.4338 14.6628 45.3474L13.6621 46.3397C13.6621 46.3397 6.99862 48.757 3.40834 43.265C-0.181945 37.773 2.98577 30.6195 7.78338 30.0015H8.36318L8.36829 30.5524Z" fill="#2C6E4A"/>
<path d="M27.5173 27.6956C27.5173 27.6956 25.224 25.0804 21.8046 27.3333C18.3852 29.5863 17.5803 32.8857 13.7588 34.0123C13.7588 34.0123 15.2673 34.2538 14.664 35.6837C14.0606 37.1136 12.3908 38.5002 13.4771 39.3451C13.4771 39.3451 10.3793 39.0234 11.204 35.9856C11.204 35.9856 4.50567 37.06 0 30.0048H1.04601C1.04601 30.0048 4.58104 34.1662 9.77701 33.8534C14.973 33.5406 17.3805 30.4738 18.7887 28.5824C20.1969 26.691 23.4755 24.6192 25.5474 25.5446L27.5173 27.6956Z" fill="#BA4749"/>
<path d="M9.31541 31.8539C10.3374 31.8539 11.166 31.0253 11.166 30.0031C11.166 28.981 10.3374 28.1523 9.31541 28.1523C8.29337 28.1523 7.46484 28.981 7.46484 30.0031C7.46484 31.0253 8.29337 31.8539 9.31541 31.8539Z" fill="#2C6E4A"/>
<path d="M8.51284 51.4947C8.51284 51.4947 8.9354 51.0871 8.46986 48.6783C7.9709 46.0941 7.52446 42.7838 9.13355 42.2605C9.13355 42.2605 5.24997 42.0497 7.06165 37.9555C7.06165 37.9555 8.87197 41.7277 12.7041 41.3665C16.5361 41.0053 17.9222 35.9045 14.967 32.7061C12.0117 29.5076 9.31466 30.4125 9.31466 30.4125V29.9009L12.3419 30.0056C12.3419 30.0056 15.1276 29.9916 17.2189 33.8538C19.3103 37.7161 22.5394 38.7121 25.3452 38.2881C28.1054 37.8726 30.048 35.647 30.1108 33.8221C30.1108 33.7918 30.1108 33.7618 30.1108 33.7314V36.7791C30.1108 36.7791 25.1314 41.3658 18.6756 39.3441C18.8049 38.8138 18.7768 38.2573 18.5945 37.7427C18.4123 37.2281 18.0839 36.7779 17.6497 36.4472C17.6497 36.4472 18.2534 40.3698 14.6627 41.7884C11.0721 43.2071 10.6799 45.7111 11.555 48.548C11.555 48.548 9.26179 47.4012 9.71335 43.9913C9.71335 43.9913 8.32526 45.0879 8.95894 47.713C9.53225 50.0867 9.17346 50.8289 9.17346 50.8289L8.51284 51.4947Z" fill="#2C6E4A"/>
<path d="M8.36922 29.4583C8.36922 29.4583 3.86355 28.0298 3.25988 24.1874C3.25988 24.1874 5.32667 25.7063 6.27719 23.8354C6.27719 23.8354 3.66744 23.8203 3.63709 20.7726C3.60674 17.7249 5.37203 15.2053 7.60458 14.2396C9.83712 13.274 13.1262 13.5758 14.6644 14.6622L13.6539 13.6632C13.6539 13.6632 7.00057 11.2523 3.41029 16.7443C-0.179992 22.2363 2.98772 29.3898 7.78534 30.0075H8.36513L8.36922 29.4583Z" fill="#2C6E4A"/>
<path d="M27.5173 32.3148C27.5173 32.3148 25.224 34.93 21.8046 32.677C18.3852 30.4241 17.5803 27.1246 13.7588 25.998C13.7588 25.998 15.2673 25.7565 14.664 24.3266C14.0606 22.8967 12.3908 21.5102 13.4771 20.6653C13.4771 20.6653 10.3793 20.9873 11.204 24.0251C11.204 24.0251 4.50567 22.9506 0 30.0059H1.04601C1.04601 30.0059 4.58104 25.8445 9.77701 26.1576C14.973 26.4708 17.3805 29.5372 18.7887 31.4286C20.1969 33.32 23.4755 35.3918 25.5474 34.4664L27.5173 32.3148Z" fill="#BA4749"/>
<path d="M9.3154 31.8583C9.68141 31.8583 10.0392 31.7498 10.3435 31.5464C10.6478 31.343 10.885 31.054 11.0251 30.7158C11.1652 30.3776 11.2018 30.0055 11.1304 29.6465C11.059 29.2874 10.8828 28.9577 10.6239 28.6988C10.3651 28.44 10.0354 28.2637 9.67643 28.1923C9.31746 28.1209 8.94537 28.1575 8.60723 28.2976C8.26908 28.4377 7.98006 28.6749 7.77672 28.9793C7.57338 29.2836 7.46484 29.6415 7.46484 30.0075C7.46484 30.4984 7.65981 30.9691 8.00686 31.3162C8.35391 31.6633 8.8246 31.8583 9.3154 31.8583Z" fill="#2C6E4A"/>
<path d="M8.51284 8.51611C8.51284 8.51611 8.9354 8.92338 8.46986 11.3326C7.9709 13.9164 7.52446 17.2267 9.13355 17.75C9.13355 17.75 5.24997 17.9608 7.06165 22.0549C7.06165 22.0549 8.87197 18.2827 12.7041 18.644C16.5361 19.0052 17.9222 24.106 14.967 27.3044C12.0117 30.5029 9.31466 29.598 9.31466 29.598V30.1096L12.3419 30.0049C12.3419 30.0049 15.1276 30.0189 17.2189 26.1566C19.3103 22.2944 22.5394 21.2984 25.3452 21.7224C28.1054 22.1378 30.048 24.3638 30.1108 26.1883C30.1108 26.2187 30.1108 26.2487 30.1108 26.2791V23.2314C30.1108 23.2314 25.1314 18.6447 18.6756 20.6663C18.8049 21.1967 18.7768 21.7532 18.5945 22.2678C18.4123 22.7824 18.0839 23.2326 17.6497 23.5633C17.6497 23.5633 18.2534 19.6407 14.6627 18.222C11.0721 16.8034 10.6799 14.2994 11.555 11.4625C11.555 11.4625 9.26179 12.6093 9.71335 16.0192C9.71335 16.0192 8.32526 14.9226 8.95894 12.2975C9.53225 9.92348 9.17278 9.17614 9.17278 9.17614L8.51284 8.51611Z" fill="#2C6E4A"/>
<path d="M30.5514 51.6315C30.5514 51.6315 31.9797 56.1377 35.8217 56.7415C35.8217 56.7415 34.303 54.6744 36.1737 53.7238C36.1737 53.7238 36.1887 56.3342 39.236 56.3642C42.2833 56.3942 44.8027 54.6291 45.7686 52.3959C46.7344 50.1628 46.4322 46.8739 45.346 45.3352L46.3412 46.3442C46.3412 46.3442 48.7555 53 43.2642 56.5911C37.7729 60.1821 30.6199 57.013 30.002 52.2155V51.6356L30.5514 51.6315Z" fill="#2C6E4A"/>
<path d="M27.6954 32.4797C27.6954 32.4797 25.0806 34.7733 27.3336 38.1931C29.5866 41.613 32.8853 42.4193 34.0128 46.2396C34.0128 46.2396 34.2539 44.7306 35.6822 45.3343C37.1106 45.9381 38.4983 47.6077 39.3431 46.5213C39.3431 46.5213 39.0212 49.6192 35.9837 48.7944C35.9837 48.7944 37.0581 55.4936 30.0037 60.0001V58.954C30.0037 58.954 34.1646 55.4185 33.8515 50.2219C33.5384 45.0253 30.4723 42.6175 28.5815 41.2094C26.6907 39.8014 24.6188 36.5221 25.5441 34.4499L27.6954 32.4797Z" fill="#BA4749"/>
<path d="M28.1504 50.686C28.1504 50.3199 28.2589 49.9621 28.4623 49.6577C28.6656 49.3534 28.9546 49.1162 29.2928 48.9761C29.6309 48.836 30.003 48.7994 30.362 48.8708C30.721 48.9422 31.0507 49.1184 31.3095 49.3773C31.5683 49.6361 31.7446 49.9659 31.816 50.3249C31.8874 50.684 31.8507 51.0561 31.7106 51.3943C31.5706 51.7324 31.3334 52.0215 31.0291 52.2249C30.7247 52.4282 30.367 52.5368 30.001 52.5368C29.5102 52.5368 29.0395 52.3418 28.6924 51.9947C28.3454 51.6476 28.1504 51.1769 28.1504 50.686Z" fill="#2C6E4A"/>
<path d="M51.4915 51.488C51.4915 51.488 51.0843 51.0657 48.6754 51.5309C46.0916 52.03 42.7817 52.4765 42.2585 50.8672C42.2585 50.8672 42.0477 54.7512 37.954 52.939C37.954 52.939 41.7258 51.1284 41.3646 47.2962C41.0034 43.464 35.9033 42.0774 32.7052 45.033C29.5071 47.9886 30.412 50.686 30.412 50.686H29.9004L30.0051 47.6585C30.0051 47.6585 29.9908 44.872 33.8532 42.7808C37.7157 40.6895 38.7108 37.4596 38.2869 34.6531C37.8715 31.8926 35.6458 29.9494 33.8215 29.887C33.7915 29.887 33.7611 29.887 33.7311 29.887H36.7788C36.7788 29.887 41.3649 34.867 39.3435 41.3239C38.8132 41.1946 38.2567 41.2228 37.7422 41.405C37.2277 41.5873 36.7776 41.9156 36.4469 42.35C36.4469 42.35 40.369 41.7466 41.7875 45.3376C43.2059 48.9287 45.7096 49.3206 48.5462 48.4457C48.5462 48.4457 47.3995 50.7393 43.99 50.2876C43.99 50.2876 45.0862 51.6759 47.7113 51.0421C50.085 50.4688 50.8179 50.8194 50.8179 50.8194L51.4915 51.488Z" fill="#2C6E4A"/>
<path d="M29.4581 51.6315C29.4581 51.6315 28.0298 56.1377 24.1878 56.7415C24.1878 56.7415 25.7065 54.6744 23.8359 53.7238C23.8359 53.7238 23.8209 56.3342 20.7732 56.3642C17.7255 56.3942 15.2065 54.6291 14.241 52.3959C13.2755 50.1628 13.5773 46.8739 14.6635 45.3352L13.6663 46.3414C13.6663 46.3414 11.254 53 16.7453 56.5907C22.2367 60.1814 29.3896 57.0133 30.0069 52.2151V51.6353L29.4581 51.6315Z" fill="#2C6E4A"/>
<path d="M32.3151 32.4797C32.3151 32.4797 34.9303 34.7733 32.6773 38.1931C30.4243 41.613 27.1246 42.4193 25.9981 46.2396C25.9981 46.2396 25.7566 44.7306 24.3269 45.3343C22.8972 45.9381 21.5108 47.6077 20.666 46.5213C20.666 46.5213 20.988 49.6192 24.0254 48.7944C24.0254 48.7944 22.9511 55.4936 30.0055 60.0001V58.954C30.0055 58.954 25.8446 55.4185 26.1577 50.2219C26.4708 45.0253 29.5368 42.6175 31.4277 41.2094C33.3185 39.8014 35.3904 36.5221 34.4651 34.4499L32.3151 32.4797Z" fill="#BA4749"/>
<path d="M31.8574 50.686C31.8574 50.3199 31.7488 49.9621 31.5455 49.6577C31.3422 49.3534 31.0531 49.1162 30.715 48.9761C30.3768 48.836 30.0048 48.7994 29.6458 48.8708C29.2868 48.9422 28.9571 49.1184 28.6983 49.3773C28.4395 49.6361 28.2632 49.9659 28.1918 50.3249C28.1204 50.684 28.1571 51.0561 28.2971 51.3943C28.4372 51.7324 28.6744 52.0215 28.9787 52.2249C29.283 52.4282 29.6408 52.5368 30.0068 52.5368C30.4976 52.5368 30.9683 52.3418 31.3154 51.9947C31.6624 51.6476 31.8574 51.1769 31.8574 50.686Z" fill="#2C6E4A"/>
<path d="M8.51758 51.488C8.51758 51.488 8.9248 51.0657 11.3337 51.5309C13.9172 52.03 17.2274 52.4765 17.7503 50.8672C17.7503 50.8672 17.961 54.7512 22.0547 52.939C22.0547 52.939 18.2833 51.1284 18.6442 47.2962C19.005 43.464 24.1055 42.0774 27.3035 45.033C30.5016 47.9886 29.5965 50.686 29.5965 50.686H30.108L30.0033 47.6585C30.0033 47.6585 30.0173 44.872 26.1556 42.7808C22.2938 40.6895 21.2976 37.4596 21.7218 34.6531C22.1372 31.8926 24.363 29.9494 26.1873 29.887C26.2176 29.887 26.248 29.887 26.278 29.887H23.2307C23.2307 29.887 18.6445 34.867 20.6659 41.3239C21.1962 41.1946 21.7527 41.2228 22.2672 41.405C22.7817 41.5873 23.2319 41.9156 23.5625 42.35C23.5625 42.35 19.6404 41.7466 18.2219 45.3376C16.8035 48.9287 14.2998 49.3206 11.4633 48.4457C11.4633 48.4457 12.6099 50.7393 16.0194 50.2876C16.0194 50.2876 14.9229 51.6759 12.2982 51.0421C9.92477 50.4688 9.17684 50.8327 9.17684 50.8327L8.51758 51.488Z" fill="#2C6E4A"/>
<path d="M51.6334 29.4526C51.6334 29.4526 56.1394 28.0241 56.7428 24.1816C56.7428 24.1816 54.676 25.7005 53.7254 23.8296C53.7254 23.8296 56.3352 23.8146 56.3656 20.7669C56.3959 17.7192 54.6306 15.1995 52.3977 14.2338C50.1648 13.2682 46.876 13.5701 45.3379 14.6565L46.3952 13.6523C46.3952 13.6523 53.0031 11.2465 56.5927 16.7389C60.1823 22.2312 57.0149 29.3843 52.2176 30.0021H51.6379L51.6334 29.4526Z" fill="#2C6E4A"/>
<path d="M32.4844 32.3092C32.4844 32.3092 34.7776 34.9247 38.197 32.6714C41.6164 30.4181 42.4213 27.119 46.2429 25.9924C46.2429 25.9924 44.7344 25.7509 45.3377 24.321C45.941 22.8911 47.6108 21.5046 46.5246 20.6597C46.5246 20.6597 49.6224 20.9817 48.7973 24.0195C48.7973 24.0195 55.4957 22.945 60.0017 30.0003H58.9556C58.9556 30.0003 55.4206 25.8389 50.2247 26.152C45.0287 26.4651 42.6212 29.532 41.2133 31.423C39.8054 33.314 36.5265 35.3862 34.4546 34.4608L32.4844 32.3092Z" fill="#BA4749"/>
<path d="M50.6884 31.8527C50.3224 31.8527 49.9647 31.7442 49.6603 31.5408C49.356 31.3374 49.1188 31.0484 48.9787 30.7102C48.8387 30.372 48.802 29.9999 48.8735 29.6408C48.9449 29.2818 49.1211 28.952 49.3799 28.6932C49.6387 28.4344 49.9685 28.2581 50.3274 28.1867C50.6864 28.1153 51.0585 28.1519 51.3966 28.292C51.7348 28.4321 52.0238 28.6693 52.2271 28.9737C52.4305 29.278 52.539 29.6359 52.539 30.0019C52.539 30.245 52.4911 30.4856 52.3981 30.7102C52.3051 30.9347 52.1688 31.1388 51.997 31.3106C51.8251 31.4825 51.6211 31.6188 51.3966 31.7118C51.1721 31.8048 50.9315 31.8527 50.6884 31.8527Z" fill="#2C6E4A"/>
<path d="M51.49 8.5105C51.49 8.5105 51.0674 8.91777 51.5329 11.3269C52.0319 13.9107 52.4783 17.2214 50.8692 17.7443C50.8692 17.7443 54.7528 17.9551 52.9411 22.0493C52.9411 22.0493 51.1308 18.2771 47.2991 18.6384C43.4673 18.9996 42.0792 24.1 45.0362 27.2988C47.9931 30.4976 50.6871 29.5934 50.6871 29.5934V30.105L47.6599 30.0003C47.6599 30.0003 44.8742 30.0146 42.7828 26.152C40.6915 22.2895 37.4624 21.2938 34.6562 21.7178C31.896 22.1332 29.9534 24.3592 29.8906 26.1838C29.8906 26.2141 29.8906 26.2441 29.8906 26.2742V23.2265C29.8906 23.2265 34.87 18.6397 41.3258 20.6614C41.1965 21.1917 41.2247 21.7483 41.4069 22.2629C41.5891 22.7774 41.9175 23.2276 42.3517 23.5583C42.3517 23.5583 41.7481 19.6357 45.3387 18.2171C48.9293 16.7985 49.3215 14.2945 48.4464 11.4576C48.4464 11.4576 50.7396 12.6043 50.2881 16.0143C50.2881 16.0143 51.6765 14.9177 51.0425 12.2926C50.4692 9.91855 50.8232 9.18383 50.8232 9.18383L51.49 8.5105Z" fill="#2C6E4A"/>
<path d="M51.6334 30.5473C51.6334 30.5473 56.1394 31.9758 56.7428 35.8183C56.7428 35.8183 54.676 34.2994 53.7254 36.1703C53.7254 36.1703 56.3352 36.1853 56.3656 39.233C56.3959 42.2807 54.6306 44.8004 52.3977 45.766C50.1648 46.7317 46.876 46.4298 45.3379 45.3434L46.3406 46.3439C46.3406 46.3439 53.0017 48.7534 56.5924 43.2614C60.183 37.7694 57.0146 30.6155 52.2173 29.9978H51.6375L51.6334 30.5473Z" fill="#2C6E4A"/>
<path d="M32.4844 27.6902C32.4844 27.6902 34.7776 25.075 38.197 27.3279C41.6164 29.5809 42.4213 32.8803 46.2429 34.0069C46.2429 34.0069 44.7344 34.2484 45.3377 35.6783C45.941 37.1082 47.6108 38.4948 46.5246 39.3397C46.5246 39.3397 49.6224 39.0177 48.7973 35.9802C48.7973 35.9802 55.4957 37.0546 60.0017 29.9994H58.9556C58.9556 29.9994 55.4206 34.1608 50.2247 33.848C45.0287 33.5352 42.6212 30.4681 41.2133 28.577C39.8054 26.686 36.5265 24.6138 34.4546 25.5392L32.4844 27.6902Z" fill="#BA4749"/>
<path d="M50.6884 28.147C50.3224 28.147 49.9647 28.2555 49.6603 28.4589C49.356 28.6622 49.1188 28.9513 48.9787 29.2895C48.8387 29.6277 48.802 29.9998 48.8735 30.3588C48.9449 30.7179 49.1211 31.0476 49.3799 31.3065C49.6387 31.5653 49.9685 31.7416 50.3274 31.813C50.6864 31.8844 51.0585 31.8478 51.3966 31.7077C51.7348 31.5676 52.0238 31.3304 52.2271 31.026C52.4305 30.7216 52.539 30.3638 52.539 29.9978C52.539 29.7547 52.4911 29.514 52.3981 29.2895C52.3051 29.0649 52.1688 28.8609 51.997 28.6891C51.8251 28.5172 51.6211 28.3809 51.3966 28.2879C51.1721 28.1948 50.9315 28.147 50.6884 28.147Z" fill="#2C6E4A"/>
<path d="M51.4905 51.4898C51.4905 51.4898 51.068 51.0822 51.5335 48.673C52.0325 46.0892 52.4789 42.7789 50.8698 42.2557C50.8698 42.2557 54.7534 42.0448 52.9417 37.9507C52.9417 37.9507 51.1314 41.7229 47.2997 41.3616C43.4679 41.0004 42.0798 35.8996 45.0368 32.7012C47.9937 29.5027 50.6891 30.4076 50.6891 30.4076V29.896L47.6619 30.0007C47.6619 30.0007 44.8761 29.9864 42.7848 33.8493C40.6934 37.7122 37.4643 38.7076 34.6581 38.2836C31.898 37.8681 29.9553 35.6421 29.8926 33.8176C29.8926 33.7872 29.8926 33.7572 29.8926 33.7269V36.7746C29.8926 36.7746 34.872 41.3613 41.3278 39.3396C41.1985 38.8093 41.2267 38.2528 41.409 37.7383C41.5912 37.2239 41.9195 36.7737 42.3537 36.443C42.3537 36.443 41.75 40.3656 45.3406 41.7843C48.9313 43.2029 49.3235 45.7069 48.4483 48.5438C48.4483 48.5438 50.7416 47.3974 50.29 43.9871C50.29 43.9871 51.6784 45.0834 51.0444 47.7088C50.4711 50.0828 50.8193 50.8172 50.8193 50.8172L51.4905 51.4898Z" fill="#2C6E4A"/>
<path d="M30.0013 29.0029C30.0485 29.0139 30.0981 29.0079 30.1414 28.986C30.1847 28.9641 30.2189 28.9277 30.238 28.8832C30.7697 27.8258 31.3079 26.7107 31.3099 25.5012C31.3099 24.3483 30.8065 23.284 30.2141 22.3211C30.1919 22.2847 30.1607 22.2546 30.1235 22.2337C30.0863 22.2129 30.0443 22.2019 30.0017 22.2019C29.959 22.2019 29.917 22.2129 29.8798 22.2337C29.8426 22.2546 29.8114 22.2847 29.7892 22.3211C29.1951 23.2847 28.6954 24.3466 28.6934 25.5012C28.691 26.709 29.2346 27.8281 29.765 28.8832C29.7841 28.9276 29.8183 28.9639 29.8615 28.9858C29.9047 29.0077 29.9541 29.0137 30.0013 29.0029Z" fill="#BA4749"/>
<path d="M37.6786 30.2134C37.715 30.1912 37.7451 30.1599 37.766 30.1227C37.7868 30.0854 37.7978 30.0435 37.7978 30.0008C37.7978 29.9581 37.7868 29.9161 37.766 29.8789C37.7451 29.8416 37.715 29.8104 37.6786 29.7881C36.7151 29.1942 35.6534 28.6949 34.499 28.6921C33.2913 28.6898 32.1723 29.2338 31.1174 29.7639C31.0804 29.7912 31.0503 29.8269 31.0296 29.868C31.0088 29.9091 30.998 29.9545 30.998 30.0006C30.998 30.0466 31.0088 30.092 31.0296 30.1332C31.0503 30.1743 31.0804 30.2099 31.1174 30.2373C32.1747 30.7691 33.2896 31.3073 34.499 31.3094C35.6524 31.3108 36.7182 30.8059 37.6786 30.2134Z" fill="#BA4749"/>
<path d="M30.002 30.9983C29.9547 30.9873 29.9051 30.9933 29.8617 31.0151C29.8184 31.037 29.7842 31.0734 29.765 31.118C29.2336 32.1754 28.6951 33.2905 28.6934 34.5C28.6934 35.6529 29.1968 36.7171 29.7892 37.6801C29.8114 37.7165 29.8426 37.7466 29.8798 37.7674C29.917 37.7883 29.959 37.7993 30.0016 37.7993C30.0443 37.7993 30.0863 37.7883 30.1235 37.7674C30.1607 37.7466 30.1919 37.7165 30.2141 37.6801C30.8079 36.7161 31.3075 35.6546 31.3099 34.5C31.3123 33.2922 30.7683 32.173 30.238 31.118C30.2188 31.0736 30.1847 31.0374 30.1416 31.0155C30.0985 30.9937 30.0491 30.9876 30.002 30.9983Z" fill="#BA4749"/>
<path d="M22.3223 29.7881C22.2859 29.8104 22.2558 29.8416 22.2349 29.8789C22.2141 29.9161 22.2031 29.9581 22.2031 30.0008C22.2031 30.0435 22.2141 30.0854 22.2349 30.1227C22.2558 30.1599 22.2859 30.1911 22.3223 30.2134C23.2858 30.8073 24.3475 31.3049 25.5019 31.3094C26.7096 31.3121 27.8286 30.7681 28.8832 30.2373C28.9202 30.21 28.9504 30.1743 28.9712 30.1332C28.9919 30.0921 29.0028 30.0467 29.0028 30.0006C29.0028 29.9545 28.9919 29.9091 28.9712 29.868C28.9504 29.8269 28.9202 29.7912 28.8832 29.7639C27.8259 29.2324 26.7113 28.6938 25.5019 28.6921C24.3492 28.6908 23.283 29.1956 22.3223 29.7881Z" fill="#BA4749"/>
<path d="M24.5092 26.9812C24.863 27.4485 25.38 27.7652 25.957 27.8681C26.7245 28.0478 27.482 28.2684 28.226 28.5288C28.2679 28.5399 28.312 28.5398 28.3539 28.5286C28.3958 28.5173 28.434 28.4952 28.4646 28.4645C28.4953 28.4339 28.5174 28.3957 28.5287 28.3538C28.5399 28.3119 28.54 28.2678 28.5289 28.2259C28.2695 27.4814 28.0491 26.724 27.8686 25.9566C27.7654 25.3796 27.4488 24.8627 26.9818 24.5086C26.2919 24.0696 25.2292 24.4404 25.2336 25.2334C24.4417 25.2287 24.0703 26.2905 24.5092 26.9812Z" fill="#BA4749"/>
<path d="M33.0205 24.508C32.5533 24.8619 32.2366 25.3789 32.1338 25.956C31.9541 26.7236 31.7336 27.4811 31.4731 28.2253C31.462 28.2672 31.4621 28.3113 31.4733 28.3532C31.4846 28.3951 31.5067 28.4333 31.5374 28.4639C31.568 28.4946 31.6062 28.5167 31.6481 28.528C31.69 28.5392 31.7341 28.5393 31.776 28.5282C32.5204 28.2689 33.2778 28.0483 34.045 27.8675C34.6219 27.7643 35.1388 27.4477 35.4928 26.9806C35.9314 26.2906 35.561 25.2274 34.7681 25.2322C34.7722 24.4405 33.7111 24.069 33.0205 24.508Z" fill="#BA4749"/>
<path d="M35.4928 33.0202C35.1391 32.5528 34.6221 32.2361 34.045 32.1334C33.2775 31.9536 32.5201 31.7331 31.776 31.4726C31.7341 31.4615 31.69 31.4616 31.6481 31.4729C31.6062 31.4841 31.568 31.5062 31.5374 31.5369C31.5067 31.5676 31.4846 31.6057 31.4734 31.6476C31.4621 31.6895 31.462 31.7336 31.4731 31.7755C31.7325 32.52 31.953 33.2775 32.1338 34.0449C32.237 34.6218 32.5536 35.1387 33.0205 35.4928C33.7101 35.9315 34.7732 35.561 34.7687 34.768C35.5607 34.7724 35.9314 33.7106 35.4928 33.0202Z" fill="#BA4749"/>
<path d="M26.9818 35.4933C27.4489 35.1393 27.7655 34.6224 27.8686 34.0454C28.0481 33.2777 28.2685 32.5202 28.5288 31.776C28.54 31.7341 28.5399 31.69 28.5286 31.6481C28.5173 31.6062 28.4953 31.568 28.4646 31.5374C28.4339 31.5067 28.3958 31.4846 28.3539 31.4733C28.312 31.4621 28.2679 31.462 28.226 31.4731C27.4816 31.7326 26.7242 31.9532 25.9569 32.1339C25.3801 32.2371 24.8633 32.5537 24.5092 33.0207C24.0706 33.7104 24.441 34.7739 25.2339 34.7688C25.2291 35.5608 26.2912 35.9323 26.9818 35.4933Z" fill="#BA4749"/>
</svg>
